<svg width="270" height="206" viewBox="0 0 270 206" fill="none" xmlns="http://www.w3.org/2000/svg">
<g clip-path="url(#clip0_5223_1715)">
<path d="M269.963 0.365601H0V205.369H269.963V0.365601Z" fill="white"/>
<path d="M38.5557 157.178C58.5918 183.991 66.227 160.165 108.693 168.203C156.411 177.234 177.611 229.518 233.057 156.991L136.305 147.472L38.5557 157.178Z" fill="#FFB200"/>
<path d="M38.5558 157.178C38.5558 157.178 10.6956 130.487 10.5142 112.58C10.2353 85.0389 39.1721 75.6107 52.8819 58.958C66.5916 42.3052 59.5486 15.6222 87.5911 9.83522C115.634 4.04828 130.863 26.433 158.3 31.1464C185.738 35.86 201.805 13.7055 220.388 23.8206C232.708 30.5271 234.296 52.3605 241.222 66.4728C247.771 79.8169 254.582 84.581 256.397 106.86C258.213 129.139 233.057 156.991 233.057 156.991C221.591 157.066 206.312 154.786 193.962 154.786C137.394 154.786 75.9973 156.519 46.8643 156.646C45.4385 156.652 39.833 157.2 38.5558 157.178Z" fill="#FFD6E7"/>
<path d="M75.7087 102.1C75.221 102.688 74.2838 102.712 74.2838 102.712C74.2838 102.712 74.1374 101.784 74.6248 101.196C75.1125 100.609 76.0497 100.584 76.0497 100.584C76.0497 100.584 76.1964 101.513 75.7087 102.1Z" fill="#55A343"/>
<path d="M44.5686 107.439C45.2289 107.822 45.4115 108.744 45.4115 108.744C45.4115 108.744 44.5237 109.046 43.8634 108.663C43.2031 108.281 43.0205 107.359 43.0205 107.359C43.0205 107.359 43.9086 107.057 44.5686 107.439Z" fill="#55A343"/>
<path d="M67.6938 99.3401C68.7984 99.3401 69.7913 99.9164 70.3567 100.808C70.8029 100.561 71.3081 100.428 71.8328 100.428C73.0586 100.428 74.1482 101.174 74.6308 102.257C74.7332 102.246 74.8362 102.241 74.9395 102.241C75.9746 102.241 76.9355 102.77 77.5049 103.609C77.7143 103.57 77.9275 103.55 78.1432 103.55C80.0437 103.55 81.5903 105.1 81.5903 107.006C81.5903 107.232 81.5686 107.455 81.5252 107.673C82.7447 108.18 83.5845 109.385 83.5845 110.768C83.5845 112.617 82.0847 114.121 80.2411 114.121C79.7184 114.121 79.2078 113.998 78.7472 113.766C77.9308 114.819 76.6777 115.447 75.3134 115.447C74.4913 115.447 73.7068 115.221 73.0266 114.797C72.4588 115.669 71.4756 116.233 70.3917 116.233C69.4054 116.233 68.5068 115.781 67.9224 115.033C67.1991 115.42 66.3963 115.622 65.5622 115.622C64.6217 115.622 63.7225 115.366 62.9315 114.877C62.2817 115.271 61.531 115.484 60.7655 115.484C58.4592 115.484 56.5825 113.602 56.5825 111.289C56.5825 109.692 57.5016 108.265 58.8605 107.561C58.5123 107.029 58.3201 106.4 58.3201 105.74C58.3201 103.905 59.8091 102.412 61.6388 102.412C62.3257 102.412 62.9851 102.624 63.5364 103.01C63.8307 102.761 64.1711 102.572 64.5389 102.455C64.5654 100.733 65.9704 99.3401 67.6938 99.3401Z" fill="#55A343"/>
<path d="M55.0139 99.3401C56.2276 99.3401 57.3184 99.9732 57.9392 100.952C58.4294 100.681 58.9842 100.535 59.5608 100.535C60.9074 100.535 62.1045 101.355 62.6347 102.544C62.7473 102.533 62.8603 102.527 62.9739 102.527C64.111 102.527 65.1666 103.108 65.792 104.03C66.0221 103.986 66.2562 103.964 66.4933 103.964C68.5812 103.964 70.2802 105.668 70.2802 107.761C70.2802 108.01 70.2564 108.254 70.2088 108.494C71.5484 109.052 72.4711 110.375 72.4711 111.895C72.4711 113.925 70.8233 115.578 68.798 115.578C68.2239 115.578 67.663 115.442 67.1569 115.187C66.2601 116.345 64.8834 117.034 63.3845 117.034C62.4813 117.034 61.6195 116.786 60.8724 116.321C60.2485 117.278 59.1683 117.899 57.9778 117.899C56.8945 117.899 55.9071 117.402 55.2651 116.579C54.4704 117.005 53.5887 117.227 52.672 117.227C51.6388 117.227 50.651 116.946 49.7819 116.409C49.068 116.842 48.2432 117.076 47.4027 117.076C44.869 117.076 42.8076 115.009 42.8076 112.468C42.8076 110.713 43.8171 109.145 45.3103 108.372C44.9277 107.788 44.7166 107.097 44.7166 106.372C44.7166 104.356 46.3523 102.715 48.3628 102.715C49.1174 102.715 49.8419 102.948 50.4471 103.372C50.7703 103.098 51.1444 102.891 51.5484 102.762C51.5773 100.87 53.1209 99.3401 55.0139 99.3401Z" fill="#55A343"/>
<path d="M48.2026 114.354C50.539 114.354 52.5878 115.816 53.4364 117.894C54.2886 117.115 55.4092 116.666 56.6102 116.666C59.2148 116.666 61.334 118.791 61.334 121.403C61.334 121.894 61.2593 122.375 61.1147 122.835C63.2966 123.115 64.9886 124.989 64.9886 127.252C64.9886 129.708 62.9965 131.705 60.5477 131.705C59.4187 131.705 58.3628 131.285 57.5567 130.543C56.4223 132.254 54.504 133.31 52.3989 133.31C50.6481 133.31 49.0033 132.574 47.8384 131.302C46.91 132.177 45.6749 132.679 44.3832 132.679C41.5994 132.679 39.335 130.408 39.335 127.617C39.335 126.937 39.4717 126.269 39.735 125.648C38.6632 124.958 37.9863 123.757 37.9863 122.445C37.9863 120.345 39.6898 118.637 41.7838 118.637C42.0928 118.637 42.3998 118.676 42.698 118.75C43.2713 116.215 45.517 114.354 48.2026 114.354Z" fill="#448F35"/>
<path d="M67.2419 110.964C68.5174 110.964 69.6633 111.552 70.4224 112.471C71.296 111.893 72.3329 111.569 73.4158 111.569C76.3201 111.569 78.6999 113.865 78.8442 116.742C81.506 117.033 83.5845 119.3 83.5845 122.045C83.5845 124.962 81.2376 127.339 78.3378 127.379C77.5347 128.768 76.0427 129.665 74.3768 129.665C73.0155 129.665 71.7792 129.076 70.9336 128.109C70.4161 128.369 69.8359 128.511 69.2319 128.511C68.1014 128.511 67.0476 127.999 66.3385 127.163C66.1773 127.179 66.015 127.188 65.8526 127.188C64.1524 127.188 62.6402 126.292 61.7801 124.936C61.3581 125.093 60.9041 125.176 60.4366 125.176C58.3116 125.176 56.5825 123.442 56.5825 121.311C56.5825 119.919 57.3028 118.699 58.4077 118.018C58.3818 117.827 58.3686 117.635 58.3686 117.441C58.3686 115.057 60.3028 113.118 62.6799 113.118C62.9812 113.118 63.2791 113.15 63.5698 113.212C64.2563 111.878 65.6444 110.964 67.2419 110.964Z" fill="#448F35"/>
<path d="M76.6862 136.914C74.7525 137.786 72.5351 137.235 71.21 135.708C70.9762 135.888 70.721 136.042 70.4481 136.165C68.5114 137.039 66.2271 136.169 65.3559 134.227C64.4848 132.285 65.3517 129.994 67.2884 129.121C67.9523 128.821 68.6738 128.719 69.376 128.814C70.1291 127.465 71.2865 126.397 72.7189 125.751C73.9461 125.198 75.2728 125 76.5931 125.169C76.9618 124.849 77.3733 124.587 77.8225 124.384C78.0577 124.278 78.2999 124.19 78.5473 124.121C78.8934 123.396 79.4859 122.807 80.2306 122.471C81.9537 121.693 83.9865 122.467 84.7613 124.195C85.4872 125.814 84.8564 127.705 83.3566 128.576C83.7358 130.423 82.8032 132.356 81.0186 133.161C80.4957 133.397 79.9324 133.517 79.3678 133.521C79.0799 134.989 78.1029 136.275 76.6862 136.914Z" fill="#448F35"/>
<path d="M50.3638 125.423C60.3635 142.99 61.0756 136.058 60.6397 154.28C60.6349 154.489 60.8024 154.664 61.0105 154.666C63.7614 154.687 64.0175 153.605 65.5014 154.345C65.7481 154.468 66.0385 154.288 66.0397 154.012C66.1382 130.923 61.4931 133.615 80.4264 123.687L79.7495 122.378L66.701 127.311L72.9565 115.557L71.0349 116.097C71.7006 115.367 67.8547 120.384 64.6359 123.596L58.0572 114.399L56.7407 115.923C63.5427 126.063 63.5427 126.063 60.8403 135.381L51.1837 124.412L50.3638 125.423Z" fill="#794F30"/>
<path d="M65.8838 127.83L66.7001 127.311L72.9557 115.557L72.1149 115.793L65.8838 127.83Z" fill="#71492C"/>
<path d="M64.6356 123.596L58.0568 114.399L57.6655 114.852C63.227 122.626 63.0788 122.169 64.6356 123.596Z" fill="#71492C"/>
<path d="M60.8397 135.381L51.1831 124.412L50.8403 124.835C58.046 133.019 59.4233 134.411 60.8397 135.381Z" fill="#71492C"/>
<path d="M60.9126 154.65C60.9439 154.659 60.9762 154.665 61.0102 154.665C62.749 154.679 63.4909 154.252 64.1762 154.123C63.2611 153.932 62.7297 154.545 60.9126 154.65Z" fill="#71492C"/>
<path d="M80.4258 123.687L79.7489 122.378L79.151 122.604L79.711 123.687C60.778 133.615 65.4231 130.923 65.3243 154.012C65.324 154.097 65.2939 154.171 65.2484 154.232C65.3288 154.264 65.4126 154.301 65.5011 154.345C65.7479 154.468 66.0383 154.288 66.0395 154.012C66.138 130.923 61.4928 133.615 80.4258 123.687Z" fill="#71492C"/>
<path d="M87.0403 113.302C88.767 115.395 88.6447 118.42 86.8634 120.368C87.3993 120.631 87.8792 121.006 88.2666 121.475C89.7614 123.287 89.5074 125.981 87.7006 127.48C85.8934 128.979 83.2073 128.725 81.7125 126.913C81.0805 126.146 80.7419 125.198 80.7362 124.224C78.7107 123.861 76.899 122.805 75.5726 121.197C74.4641 119.853 73.7947 118.245 73.6215 116.521C73.0302 116.174 72.5105 115.731 72.0719 115.2C71.802 114.872 71.5689 114.517 71.3758 114.14C70.3868 114.061 69.4602 113.586 68.8203 112.811C67.5211 111.236 67.7419 108.895 69.3123 107.592C70.8826 106.289 73.2169 106.511 74.5162 108.086C74.5638 108.143 74.6096 108.202 74.6533 108.262C76.5884 106.916 79.271 107.26 80.7995 109.112C81.3565 109.788 81.7038 110.608 81.8119 111.467C83.7266 111.068 85.7558 111.745 87.0403 113.302Z" fill="#5CB248"/>
<path d="M41.2042 110.88C42.9499 108.787 45.9882 108.423 48.1704 109.974C47.558 108.559 47.742 106.86 48.7958 105.596C50.2827 103.813 52.9294 103.576 54.7076 105.067C55.3758 105.627 55.8258 106.352 56.049 107.132C56.1629 106.932 56.2924 106.738 56.4452 106.555C57.826 104.899 60.2839 104.679 61.9353 106.064C63.5867 107.448 63.806 109.913 62.4251 111.569C61.5244 112.65 60.1661 113.114 58.8717 112.926C59.917 114.934 59.7248 117.46 58.1854 119.306C56.9 120.847 54.9826 121.545 53.1294 121.34C53.4873 122.716 53.2026 124.239 52.2236 125.413C50.615 127.342 47.7511 127.598 45.827 125.985C45.1378 125.407 44.6667 124.667 44.4145 123.867C43.2749 124.543 41.7895 124.469 40.7159 123.568C39.3537 122.426 39.1726 120.393 40.3116 119.027C40.6945 118.568 41.1786 118.246 41.703 118.06C39.6522 116.196 39.413 113.028 41.2042 110.88Z" fill="#5CB248"/>
<path d="M54.9833 102.957C57.5471 102.042 60.3486 103.277 61.4434 105.724C61.6319 104.194 62.6513 102.823 64.1988 102.271C66.3825 101.492 68.7828 102.636 69.5597 104.826C69.8516 105.649 69.8724 106.502 69.6696 107.288C69.8691 107.174 70.079 107.073 70.3031 106.993C72.3311 106.269 74.56 107.331 75.2814 109.365C76.0029 111.399 74.9438 113.634 72.9155 114.357C71.5928 114.829 70.1872 114.538 69.1675 113.716C69.0509 115.979 67.6064 118.057 65.3456 118.863C63.4575 119.537 61.4524 119.161 59.9601 118.041C59.5715 119.408 58.5554 120.575 57.1172 121.088C54.7543 121.931 52.1573 120.694 51.3169 118.324C51.0156 117.475 50.9849 116.597 51.1726 115.78C49.8486 115.782 48.6066 114.962 48.1376 113.639C47.5423 111.962 48.4162 110.118 50.0893 109.521C50.6517 109.32 51.2316 109.29 51.7778 109.396C50.9542 106.746 52.3525 103.896 54.9833 102.957Z" fill="#5CB248"/>
<path d="M67.8894 122.756C65.302 122.05 63.7756 119.374 64.4799 116.78C64.5601 116.484 64.6688 116.205 64.7968 115.939C63.9504 116.49 62.8843 116.695 61.8335 116.408C59.8773 115.874 58.7232 113.85 59.2558 111.889C59.7884 109.927 61.8058 108.77 63.7621 109.304C64.8658 109.605 65.7138 110.381 66.1479 111.352C68.0261 110.255 70.3237 109.882 72.5863 110.5C74.4079 110.997 75.9229 112.061 77.0007 113.447C77.7412 113.324 78.5181 113.351 79.2895 113.562C79.8417 113.712 80.349 113.946 80.8048 114.242C81.55 113.625 82.5706 113.367 83.5735 113.641C85.2143 114.089 86.1822 115.786 85.7355 117.431C85.2887 119.077 83.5967 120.047 81.9558 119.599C81.572 119.495 81.2271 119.319 80.9265 119.095C80.9039 119.306 80.8692 119.518 80.812 119.73C80.2279 121.881 78.015 123.151 75.8695 122.565C74.7351 122.255 73.8503 121.486 73.3512 120.515C72.2715 122.369 70.0544 123.348 67.8894 122.756Z" fill="#5CB248"/>
<path d="M56.0815 110.731C56.3695 111.44 55.9502 112.28 55.9502 112.28C55.9502 112.28 55.0639 111.973 54.7763 111.265C54.4883 110.557 54.9079 109.716 54.9079 109.716C54.9079 109.716 55.7935 110.023 56.0815 110.731Z" fill="#55A343"/>
<path d="M57.5272 112.342C56.834 112.66 55.9785 112.275 55.9785 112.275C55.9785 112.275 56.2472 111.374 56.9404 111.056C57.6335 110.738 58.4891 111.123 58.4891 111.123C58.4891 111.123 58.2203 112.024 57.5272 112.342Z" fill="#55A343"/>
<path d="M75.4023 114.645C76.0521 115.045 76.2099 115.972 76.2099 115.972C76.2099 115.972 75.3143 116.25 74.6646 115.85C74.0148 115.45 73.8569 114.523 73.8569 114.523C73.8569 114.523 74.7525 114.245 75.4023 114.645Z" fill="#55A343"/>
<path d="M77.5179 115.086C77.1467 115.754 76.2301 115.951 76.2301 115.951C76.2301 115.951 75.9153 115.066 76.2864 114.398C76.6575 113.73 77.5742 113.533 77.5742 113.533C77.5742 113.533 77.889 114.419 77.5179 115.086Z" fill="#55A343"/>
<path d="M46.3627 122.014C47.0125 122.414 47.1704 123.341 47.1704 123.341C47.1704 123.341 46.2748 123.619 45.625 123.219C44.9752 122.819 44.8174 121.892 44.8174 121.892C44.8174 121.892 45.713 121.614 46.3627 122.014Z" fill="#55A343"/>
<path d="M48.4783 122.455C48.1072 123.123 47.1905 123.32 47.1905 123.32C47.1905 123.32 46.8757 122.435 47.2469 121.767C47.618 121.099 48.5347 120.902 48.5347 120.902C48.5347 120.902 48.8494 121.787 48.4783 122.455Z" fill="#55A343"/>
<path d="M87.9456 120.78C87.184 120.819 86.5312 120.144 86.5312 120.144C86.5312 120.144 87.1129 119.407 87.8745 119.369C88.636 119.33 89.2888 120.005 89.2888 120.005C89.2888 120.005 88.7071 120.742 87.9456 120.78Z" fill="#5CB248"/>
<path d="M52.983 122.61C52.7333 121.887 53.1969 121.07 53.1969 121.07C53.1969 121.07 54.0654 121.424 54.3151 122.146C54.5649 122.869 54.1012 123.686 54.1012 123.686C54.1012 123.686 53.2331 123.332 52.983 122.61Z" fill="#5CB248"/>
<path d="M72.4896 121.74C72.5526 120.978 73.306 120.419 73.306 120.419C73.306 120.419 73.9576 121.095 73.8946 121.856C73.8317 122.618 73.0783 123.178 73.0783 123.178C73.0783 123.178 72.4267 122.502 72.4896 121.74Z" fill="#5CB248"/>
<path d="M71.0439 106.594C70.5728 107.195 69.6368 107.246 69.6368 107.246C69.6368 107.246 69.4642 106.322 69.9354 105.721C70.4065 105.12 71.3424 105.069 71.3424 105.069C71.3424 105.069 71.5151 105.993 71.0439 106.594Z" fill="#5CB248"/>
<path d="M48.156 108.588C48.5587 109.237 48.2867 110.137 48.2867 110.137C48.2867 110.137 47.3616 109.984 46.9588 109.335C46.5561 108.686 46.8281 107.786 46.8281 107.786C46.8281 107.786 47.7532 107.939 48.156 108.588Z" fill="#5CB248"/>
<path d="M178.835 121.846C179.283 121.138 180.299 120.979 180.299 120.979C180.299 120.979 180.589 121.969 180.141 122.677C179.693 123.385 178.677 123.544 178.677 123.544C178.677 123.544 178.387 122.554 178.835 121.846Z" fill="#55A343"/>
<path d="M195.49 106.132C197.043 106.132 198.438 106.942 199.233 108.194C199.859 107.848 200.569 107.661 201.307 107.661C203.029 107.661 204.561 108.709 205.239 110.231C205.383 110.216 205.528 110.209 205.673 110.209C207.127 110.209 208.478 110.953 209.278 112.132C209.572 112.076 209.872 112.048 210.175 112.048C212.846 112.048 215.019 114.227 215.019 116.905C215.019 117.223 214.989 117.536 214.928 117.842C216.642 118.556 217.822 120.249 217.822 122.192C217.822 124.791 215.714 126.904 213.123 126.904C212.389 126.904 211.671 126.731 211.024 126.405C209.877 127.885 208.116 128.767 206.198 128.767C205.043 128.767 203.94 128.45 202.984 127.855C202.186 129.08 200.805 129.873 199.281 129.873C197.895 129.873 196.632 129.237 195.811 128.185C194.794 128.73 193.667 129.014 192.494 129.014C191.172 129.014 189.909 128.654 188.797 127.968C187.884 128.522 186.828 128.82 185.753 128.82C182.512 128.82 179.875 126.176 179.875 122.926C179.875 120.681 181.166 118.675 183.076 117.686C182.586 116.938 182.316 116.054 182.316 115.127C182.316 112.548 184.409 110.45 186.98 110.45C187.946 110.45 188.873 110.748 189.647 111.29C190.061 110.939 190.539 110.674 191.056 110.51C191.094 108.089 193.069 106.132 195.49 106.132Z" fill="#448F35"/>
<path d="M185.568 99.9427C187.783 99.9427 189.773 101.216 190.752 103.124C191.659 102.288 192.858 101.804 194.122 101.804C196.869 101.804 199.105 104.045 199.105 106.8C199.105 107.07 199.083 107.336 199.04 107.599C201.173 107.639 202.895 109.391 202.895 111.539C202.895 112.996 202.109 114.307 200.856 114.993C200.481 116.622 199.037 117.8 197.324 117.8C196.703 117.8 196.1 117.641 195.566 117.342C195.17 117.678 194.663 117.87 194.122 117.87C193.669 117.87 193.237 117.733 192.874 117.49C192.824 117.545 192.772 117.6 192.719 117.653C191.873 118.502 190.749 118.969 189.552 118.969C188.356 118.969 187.23 118.501 186.384 117.653C186.334 117.603 186.286 117.552 186.239 117.5C185.398 118.452 184.177 119.025 182.873 119.025C180.459 119.025 178.484 117.107 178.381 114.712C176.832 114.659 175.589 113.379 175.589 111.814C175.589 111.755 175.591 111.697 175.595 111.638C174.895 110.909 174.501 109.94 174.501 108.915C174.501 106.749 176.259 104.986 178.42 104.986C178.889 104.986 179.344 105.067 179.771 105.224C180.052 102.265 182.545 99.9427 185.568 99.9427Z" fill="#55A343"/>
<path d="M184.414 120.866C195.451 131.634 194.552 150.176 194.292 153.514C194.275 153.737 194.494 153.905 194.701 153.823C196.74 153.017 199.802 153.609 201.022 153.901C201.25 153.955 201.453 153.741 201.384 153.516C199.011 145.792 200.493 134.506 212.174 117.001C212.174 117.001 211.55 116.156 210.889 116.791C208.99 118.617 205.989 122.552 204.538 123.359C204.196 120.282 207.782 113.585 207.782 113.585C207.782 113.585 203.701 119.402 201.805 118.799C199.91 118.195 199.427 113.229 199.427 113.229L197.71 113.601C203.324 124.948 198.632 132.653 198.632 132.653C198.632 132.653 194.314 128.035 195.052 116.911L193.415 117.085C193.415 117.085 194.037 128.365 193.654 128.669C193.37 128.895 187.737 119.025 187.737 119.025L184.414 120.866Z" fill="#794F30"/>
<path d="M194.151 117.007C193.453 127.926 196.896 131.525 198.633 132.653C197.5 130.984 194.478 125.564 195.052 116.911L194.151 117.007Z" fill="#71492C"/>
<path d="M200.91 118.799C201.141 118.872 201.406 118.849 201.692 118.753C199.892 117.99 199.428 113.229 199.428 113.229L198.553 113.418C198.663 114.329 199.235 118.265 200.91 118.799Z" fill="#71492C"/>
<path d="M204.538 123.359C204.685 120.077 207.782 113.585 207.782 113.585C207.782 113.585 207.094 115.189 205.852 116.557C204.427 119.616 204.393 123.49 204.538 123.359Z" fill="#71492C"/>
<path d="M193.654 128.669C192.04 126.198 187.738 119.024 187.738 119.024L187.057 119.401C187.939 120.94 189.979 125.013 193.654 128.669Z" fill="#71492C"/>
<path d="M212.175 117.001C212.175 117.001 211.605 116.234 210.979 116.717C211.163 116.845 211.278 117.001 211.278 117.001C198.78 133.003 196.847 143.093 200.488 153.516C200.52 153.609 200.496 153.702 200.447 153.773C200.666 153.818 200.862 153.862 201.023 153.901C201.251 153.955 201.453 153.741 201.384 153.516C199.011 145.791 200.493 134.506 212.175 117.001Z" fill="#71492C"/>
<path d="M194.316 153.658C194.378 153.801 194.543 153.886 194.701 153.823C195.337 153.572 196.072 153.457 196.819 153.426C195.97 153.394 195.094 153.447 194.316 153.658Z" fill="#71492C"/>
<path d="M220.486 102.702C220.406 102.702 220.325 102.703 220.244 102.706C220.264 102.503 220.273 102.299 220.273 102.094C220.273 98.2915 216.991 95.1982 212.957 95.1982C211.116 95.1982 209.374 95.8516 208.048 96.9817C207.159 95.3985 205.392 94.3149 203.37 94.3149C200.999 94.3149 198.987 95.7927 198.317 97.8221C197.675 97.5838 196.986 97.4584 196.286 97.4584C193.214 97.4584 190.714 99.814 190.714 102.709C190.714 103.19 190.785 103.666 190.923 104.127C189.181 104.37 186.043 106.132 186.006 109.048C185.128 108.489 184.103 108.183 183.051 108.183C180.165 108.183 177.789 110.415 177.549 113.247C177.46 113.242 177.37 113.239 177.281 113.239C174.827 113.239 172.832 115.24 172.832 117.7C172.832 120.161 174.827 122.162 177.281 122.162C178.489 122.162 179.639 121.664 180.471 120.806C180.968 120.915 181.475 120.97 181.985 120.97C182.813 120.97 183.622 120.827 184.396 120.543C186.124 121.705 188.125 122.316 190.218 122.316C192.723 122.316 195.09 121.442 196.979 119.836C197.885 120.579 199.022 120.991 200.216 120.991C202.43 120.991 204.32 119.574 205.032 117.597C205.488 117.733 205.968 117.806 206.461 117.806C207.543 117.806 208.563 117.466 209.383 116.865C210.454 118.47 212.337 119.49 214.449 119.49C216.852 119.49 218.978 118.149 219.924 116.133C220.112 116.147 220.3 116.154 220.487 116.154C224.422 116.154 227.624 113.137 227.624 109.428C227.623 105.719 224.422 102.702 220.486 102.702Z" fill="#5CB248"/>
<path d="M194.112 107.404C194.838 107.823 195.039 108.834 195.039 108.834C195.039 108.834 194.066 109.167 193.341 108.749C192.616 108.33 192.414 107.319 192.414 107.319C192.414 107.319 193.387 106.986 194.112 107.404Z" fill="#55A343"/>
<path d="M196.446 107.822C196.06 108.566 195.061 108.811 195.061 108.811C195.061 108.811 194.688 107.85 195.074 107.106C195.46 106.362 196.46 106.117 196.46 106.117C196.46 106.117 196.832 107.078 196.446 107.822Z" fill="#55A343"/>
<path d="M207.544 100.722C207.859 101.499 207.399 102.421 207.399 102.421C207.399 102.421 206.427 102.084 206.112 101.308C205.796 100.531 206.256 99.6086 206.256 99.6086C206.256 99.6086 207.228 99.9457 207.544 100.722Z" fill="#55A343"/>
<path d="M209.129 102.489C208.369 102.838 207.43 102.416 207.43 102.416C207.43 102.416 207.725 101.428 208.485 101.079C209.246 100.73 210.184 101.152 210.184 101.152C210.184 101.152 209.89 102.14 209.129 102.489Z" fill="#55A343"/>
<path d="M213.717 112.833C214.033 113.609 213.573 114.532 213.573 114.532C213.573 114.532 212.601 114.195 212.285 113.418C211.969 112.642 212.429 111.72 212.429 111.72C212.429 111.72 213.401 112.056 213.717 112.833Z" fill="#55A343"/>
<path d="M215.303 114.6C214.542 114.949 213.604 114.527 213.604 114.527C213.604 114.527 213.899 113.538 214.659 113.19C215.42 112.841 216.358 113.263 216.358 113.263C216.358 113.263 216.063 114.251 215.303 114.6Z" fill="#55A343"/>
<path d="M198.442 96.2075C198.757 96.9841 198.297 97.9064 198.297 97.9064C198.297 97.9064 197.325 97.5696 197.01 96.7929C196.694 96.0163 197.154 95.094 197.154 95.094C197.154 95.094 198.126 95.4308 198.442 96.2075Z" fill="#5CB248"/>
<path d="M221.853 102.579C221.155 103.042 220.163 102.77 220.163 102.77C220.163 102.77 220.302 101.748 221 101.285C221.697 100.823 222.689 101.095 222.689 101.095C222.689 101.095 222.55 102.116 221.853 102.579Z" fill="#5CB248"/>
<path d="M220.466 117.554C219.843 116.994 219.855 115.962 219.855 115.962C219.855 115.962 220.876 115.839 221.499 116.399C222.121 116.959 222.109 117.991 222.109 117.991C222.109 117.991 221.089 118.114 220.466 117.554Z" fill="#5CB248"/>
<path d="M196.347 121.213C196.315 120.375 197.063 119.667 197.063 119.667C197.063 119.667 197.861 120.317 197.892 121.155C197.923 121.994 197.176 122.702 197.176 122.702C197.176 122.702 196.378 122.052 196.347 121.213Z" fill="#5CB248"/>
<path d="M135.71 65.6883C135.373 64.9005 134.593 64.3483 133.683 64.3483C133.399 64.3483 133.128 64.4042 132.878 64.5026C132.902 64.3525 132.918 64.1997 132.918 64.0426C132.918 62.4467 131.628 61.1529 130.036 61.1529C129.195 61.1529 128.44 61.5169 127.913 62.0938C127.514 60.6097 126.167 59.5159 124.561 59.5159C122.642 59.5159 121.086 61.0758 121.086 63.0004C121.086 63.2194 121.109 63.433 121.147 63.6411C120.666 63.1007 119.968 62.7584 119.189 62.7584C117.738 62.7584 116.562 63.9381 116.562 65.3932C116.562 65.4929 116.568 65.5913 116.578 65.6883H135.71Z" fill="#F7FBFC"/>
<path d="M202.32 50.7308H220.928C220.921 50.7194 220.914 50.7076 220.907 50.6961C221.861 50.3575 222.547 49.4467 222.547 48.3734C222.547 47.0116 221.446 45.9075 220.088 45.9075C219.631 45.9075 219.205 46.0344 218.839 46.2516C218.755 44.1307 217.019 42.4354 214.883 42.4354C212.802 42.4354 211.099 44.0449 210.935 46.09C210.408 45.0357 209.324 44.3101 208.067 44.3101C206.295 44.3101 204.857 45.7514 204.857 47.5291C204.857 48.197 205.06 48.8172 205.408 49.3316C205.235 49.3002 205.058 49.2815 204.876 49.2815C203.791 49.2812 202.842 49.8624 202.32 50.7308Z" fill="#EFF7F8"/>
<path d="M71.7857 86.4479C71.3862 85.567 70.54 84.9336 69.5351 84.8432C69.8258 84.3536 69.996 83.7832 69.996 83.1718C69.996 81.363 68.5335 79.8964 66.7296 79.8964C65.9039 79.8964 65.152 80.206 64.577 80.7126C64.5815 80.6449 64.5872 80.5776 64.5872 80.5084C64.5872 78.814 63.2175 77.4402 61.5275 77.4402C59.8454 77.4402 58.4814 78.8016 58.469 80.4857C57.6936 79.0814 56.2019 78.1301 54.4878 78.1301C51.9761 78.1301 49.9397 80.1722 49.9397 82.6909C49.9397 83.2078 50.0267 83.7038 50.1846 84.1672C49.7951 84.0545 49.3842 83.9929 48.9586 83.9929C47.227 83.9929 45.729 84.9928 45.0054 86.4479H71.7857Z" fill="#EFF7F8"/>
<path d="M171.507 56.9207C177.25 56.1413 178.687 56.6893 180.039 54.2956L177.992 54.8207C176.415 52.047 176.146 51.7307 172.9 49.8094C175.335 53.7948 174.594 52.1968 175.624 55.2553L171.507 56.9207Z" fill="#43484E"/>
<path d="M187.257 61.2807C190.107 60.8937 190.82 61.1659 191.49 59.9781L190.475 60.2388C189.692 58.8625 189.559 58.7054 187.948 57.7521C189.156 59.7298 188.789 58.9368 189.3 60.4545L187.257 61.2807Z" fill="#43484E"/>
<path d="M194.678 49.1963C194.678 49.1963 194.275 48.8489 194.291 48.7323C194.421 47.7683 194.83 46.5721 195.351 45.6281C194.042 46.518 192.887 47.5224 192.888 48.5145C191.48 48.2368 189.373 46.3498 189.373 46.3498C189.954 47.8901 191.356 50.1484 192.177 50.4296C191.556 50.5855 191.416 50.5481 190.459 50.4988L191.177 51.0985C192.869 50.4734 193.693 50.3985 194.284 49.6128C194.375 49.4914 194.629 49.4349 194.678 49.1963Z" fill="#43484E"/>
<path d="M203.082 77.5077H99.9751V150.605H203.082V77.5077Z" fill="#E3E2DC"/>
<path d="M203.081 149.659H62.3706V157.058H203.081V149.659Z" fill="#43484E"/>
<path d="M151.528 44.2464L99.9751 77.5077H203.082L151.528 44.2464Z" fill="#E3E2DC"/>
<path d="M137.579 102.131H62.3706V149.659H137.579V102.131Z" fill="#F0F0EC"/>
<path d="M99.9748 77.5077L62.3706 102.131H137.579L99.9748 77.5077Z" fill="#F0F0EC"/>
<path d="M203.145 75.7359L151.527 42.5473L99.2025 76.306L62.2959 100.152V107.605L100.746 82.7629L151.53 49.998L203.145 83.1845V75.7359Z" fill="#DADADA"/>
<path d="M56.6503 107.201L55.106 104.797L99.2027 76.306L151.527 42.5473L209.444 79.7853L207.904 82.1924L151.53 45.9455L100.746 78.7101L56.6503 107.201Z" fill="white"/>
<path d="M140.954 103.152H137.579V157.058H140.954V103.152Z" fill="#DADADA"/>
<path d="M55.106 104.797L99.2027 76.306L151.527 42.5473L209.444 79.7853" stroke="#1D1D1B" stroke-width="1.68727" stroke-miterlimit="10"/>
<path d="M140.968 108.924L142.231 109.711L143.061 107.157L140.954 105.773L140.968 108.924Z" fill="#DADADA"/>
<path d="M58.7531 143.117C55.5913 143.111 53.0229 145.676 53.0169 148.847C53.0154 149.673 53.191 150.456 53.5028 151.166C53.2467 151.095 52.978 151.054 52.6994 151.053C51.0263 151.05 49.6674 152.408 49.6641 154.085C49.6608 155.763 51.0145 157.126 52.6876 157.129L78.2813 157.178C79.5384 157.18 80.5593 156.161 80.5617 154.9C80.5641 153.64 79.5471 152.616 78.2901 152.613C77.7807 152.612 77.3116 152.781 76.9318 153.064C77.0423 152.703 77.1029 152.319 77.1038 151.922C77.108 149.755 75.3596 147.995 73.1991 147.991C71.8769 147.989 70.7093 148.646 69.999 149.651C69.6975 148.141 68.3693 147.002 66.7739 146.999C65.8407 146.997 64.9987 147.386 64.398 148.01C63.989 145.247 61.623 143.122 58.7531 143.117Z" fill="#55A343"/>
<path d="M38.5557 157.178C38.6533 156.967 38.8665 156.819 39.1148 156.819C39.2193 156.819 39.3163 156.848 39.4025 156.894C39.582 156.475 39.9962 156.182 40.4794 156.182C40.6695 156.182 40.8466 156.232 41.0054 156.312C41.3186 155.653 41.9874 155.196 42.7646 155.196C43.1881 155.196 43.5789 155.333 43.8988 155.563C44.2566 154.102 45.5679 153.017 47.1353 153.017C47.3338 153.017 47.5272 153.037 47.7161 153.071C48.1535 151.273 49.7657 149.937 51.6937 149.937C53.3445 149.937 54.7636 150.917 55.4128 152.328C55.6565 149.499 58.0194 147.279 60.9032 147.279C62.6031 147.279 64.1223 148.051 65.1338 149.264C65.3938 149.17 65.673 149.116 65.9655 149.116C67.3193 149.116 68.417 150.217 68.417 151.575C68.417 152.221 68.1661 152.808 67.7588 153.247C68.821 153.685 69.5693 154.732 69.5693 155.955C69.5693 156.392 69.4732 156.806 69.3018 157.179H38.5557V157.178Z" fill="#5CB248"/>
<path d="M62.7256 152.319C62.5626 152.72 62.8 153.196 62.8 153.196C62.8 153.196 63.3019 153.022 63.4652 152.621C63.6281 152.22 63.3907 151.744 63.3907 151.744C63.3907 151.744 62.8886 151.918 62.7256 152.319Z" fill="#55A343"/>
<path d="M61.9072 153.231C62.3001 153.411 62.7845 153.193 62.7845 153.193C62.7845 153.193 62.6323 152.683 62.2395 152.503C61.8467 152.322 61.3623 152.541 61.3623 152.541C61.3623 152.541 61.5144 153.051 61.9072 153.231Z" fill="#55A343"/>
<path d="M73.8923 151.034C73.4735 151.141 73.2319 151.615 73.2319 151.615C73.2319 151.615 73.6693 151.917 74.0881 151.811C74.5068 151.704 74.7484 151.23 74.7484 151.23C74.7484 151.23 74.311 150.928 73.8923 151.034Z" fill="#448F35"/>
<path d="M72.6741 150.914C72.7624 151.338 73.2248 151.6 73.2248 151.6C73.2248 151.6 73.5441 151.175 73.4561 150.751C73.3679 150.327 72.9055 150.065 72.9055 150.065C72.9055 150.065 72.5858 150.491 72.6741 150.914Z" fill="#448F35"/>
<path d="M58.5494 144.73C58.3581 145.118 58.5609 145.611 58.5609 145.611C58.5609 145.611 59.0739 145.473 59.2652 145.085C59.4565 144.697 59.2537 144.205 59.2537 144.205C59.2537 144.205 58.741 144.341 58.5494 144.73Z" fill="#448F35"/>
<path d="M57.6679 145.581C58.0465 145.789 58.5457 145.606 58.5457 145.606C58.5457 145.606 58.4303 145.086 58.0516 144.878C57.673 144.67 57.1738 144.853 57.1738 144.853C57.1738 144.853 57.2892 145.373 57.6679 145.581Z" fill="#448F35"/>
<path d="M50.825 155.044C50.4602 155.205 50.3135 155.675 50.3135 155.675C50.3135 155.675 50.7584 155.882 51.1232 155.72C51.488 155.558 51.6344 155.089 51.6344 155.089C51.6344 155.089 51.1898 154.882 50.825 155.044Z" fill="#55A343"/>
<path d="M49.6967 155.124C49.8425 155.496 50.3043 155.663 50.3043 155.663C50.3043 155.663 50.5293 155.226 50.3832 154.853C50.2374 154.481 49.7756 154.314 49.7756 154.314C49.7756 154.314 49.5509 154.751 49.6967 155.124Z" fill="#55A343"/>
<path d="M58.0943 155.205C57.8648 155.533 57.9802 156.011 57.9802 156.011C57.9802 156.011 58.4679 155.959 58.6974 155.631C58.927 155.304 58.8116 154.826 58.8116 154.826C58.8116 154.826 58.3242 154.878 58.0943 155.205Z" fill="#55A343"/>
<path d="M57.1692 155.857C57.4855 156.101 57.9666 156.005 57.9666 156.005C57.9666 156.005 57.935 155.514 57.6187 155.27C57.3024 155.027 56.8213 155.122 56.8213 155.122C56.8213 155.122 56.8529 155.613 57.1692 155.857Z" fill="#55A343"/>
<path d="M47.0917 152.78C47.3227 153.099 47.8044 153.143 47.8044 153.143C47.8044 153.143 47.9111 152.67 47.68 152.351C47.449 152.032 46.9676 151.988 46.9676 151.988C46.9676 151.988 46.8606 152.461 47.0917 152.78Z" fill="#5CB248"/>
<path d="M68.4562 153.4C68.7954 153.269 68.9493 152.848 68.9493 152.848C68.9493 152.848 68.5535 152.64 68.2143 152.771C67.8751 152.902 67.7212 153.323 67.7212 153.323C67.7212 153.323 68.117 153.531 68.4562 153.4Z" fill="#5CB248"/>
<path d="M77.1416 155.041C77.3739 154.78 77.3209 154.352 77.3209 154.352C77.3209 154.352 76.8913 154.349 76.6591 154.611C76.4268 154.873 76.4798 155.3 76.4798 155.3C76.4798 155.3 76.9094 155.303 77.1416 155.041Z" fill="#448F35"/>
<path d="M192.245 152.698C191.572 153.756 191.176 155.009 191.176 156.357C191.176 156.571 191.187 156.782 191.207 156.99H229.317C229.4 156.599 229.444 156.194 229.444 155.778C229.444 152.548 226.833 149.93 223.611 149.93C223.255 149.93 222.909 149.966 222.57 150.028C223.25 149.022 223.647 147.808 223.647 146.501C223.647 143.023 220.835 140.204 217.367 140.204C214.909 140.204 212.786 141.623 211.755 143.686C211.436 139.685 208.103 136.536 204.031 136.536C199.853 136.536 196.455 139.852 196.291 144.002C195.575 143.577 194.741 143.329 193.848 143.329C191.191 143.329 189.037 145.488 189.037 148.153C189.037 150.253 190.377 152.035 192.245 152.698Z" fill="#55A343"/>
<path d="M233.062 156.99C233.185 156.672 233.255 156.328 233.255 155.966C233.255 154.399 231.988 153.128 230.426 153.128C229.964 153.128 229.53 153.241 229.146 153.437C229.018 150.718 226.785 148.551 224.042 148.551C222.458 148.551 221.043 149.273 220.105 150.406C220.019 148.193 218.208 146.425 215.981 146.425C214.745 146.425 213.638 146.972 212.881 147.834C212.69 145.473 210.723 143.616 208.32 143.616C206.104 143.616 204.256 145.194 203.832 147.291C203.584 147.235 203.328 147.203 203.063 147.203C201.126 147.203 199.557 148.777 199.557 150.719C199.557 151.388 199.746 152.011 200.07 152.543C198.365 152.749 197.044 154.201 197.044 155.966C197.044 156.323 197.101 156.666 197.201 156.99H233.062Z" fill="#5CB248"/>
<path d="M208.546 149.473C209.375 149.768 209.776 150.776 209.776 150.776C209.776 150.776 208.832 151.305 208.003 151.011C207.174 150.716 206.773 149.708 206.773 149.708C206.773 149.708 207.717 149.178 208.546 149.473Z" fill="#55A343"/>
<path d="M211.039 149.461C210.78 150.304 209.793 150.747 209.793 150.747C209.793 150.747 209.226 149.824 209.485 148.981C209.743 148.138 210.73 147.695 210.73 147.695C210.73 147.695 211.298 148.618 211.039 149.461Z" fill="#55A343"/>
<path d="M194.573 148.662C195.426 148.878 195.917 149.844 195.917 149.844C195.917 149.844 195.027 150.46 194.174 150.243C193.321 150.027 192.83 149.061 192.83 149.061C192.83 149.061 193.72 148.446 194.573 148.662Z" fill="#448F35"/>
<path d="M197.054 148.418C196.874 149.282 195.932 149.815 195.932 149.815C195.932 149.815 195.282 148.949 195.462 148.085C195.641 147.222 196.583 146.689 196.583 146.689C196.583 146.689 197.233 147.555 197.054 148.418Z" fill="#448F35"/>
<path d="M221.873 153.677C222.341 154.343 222.106 155.317 222.106 155.317C222.106 155.317 221.112 155.21 220.645 154.544C220.177 153.878 220.413 152.904 220.413 152.904C220.413 152.904 221.406 153.011 221.873 153.677Z" fill="#55A343"/>
<path d="M223.758 155.003C223.114 155.5 222.134 155.305 222.134 155.305C222.134 155.305 222.198 154.305 222.842 153.809C223.486 153.313 224.466 153.508 224.466 153.508C224.466 153.508 224.402 154.507 223.758 155.003Z" fill="#55A343"/>
<path d="M230.405 152.785C229.934 153.434 228.954 153.524 228.954 153.524C228.954 153.524 228.737 152.561 229.207 151.912C229.678 151.263 230.659 151.173 230.659 151.173C230.659 151.173 230.876 152.135 230.405 152.785Z" fill="#5CB248"/>
<path d="M195.047 143.567C194.574 143.034 194.682 142.163 194.682 142.163C194.682 142.163 195.557 142.157 196.03 142.69C196.503 143.223 196.395 144.094 196.395 144.094C196.395 144.094 195.52 144.1 195.047 143.567Z" fill="#55A343"/>
<g clip-path="url(#clip1_5223_1715)">
<path d="M114.075 135.321H153.225C154.536 135.321 155.598 134.258 155.598 132.948V84.0699C155.598 82.7595 154.536 81.6972 153.225 81.6972H114.075C112.765 81.6972 111.703 82.7595 111.703 84.0699V132.948C111.703 134.258 112.765 135.321 114.075 135.321Z" fill="white"/>
<path d="M152.995 119.85H157.978V124.671H152.995V119.85Z" fill="#66E0F7"/>
<path d="M155.487 140.066C153.652 140.066 152.165 138.579 152.165 136.744V125.787C152.165 125.171 152.665 124.671 153.282 124.671H157.692C158.309 124.671 158.809 125.171 158.809 125.787V136.744C158.809 138.579 157.321 140.066 155.487 140.066Z" fill="#FF7D97"/>
<path d="M155.486 119.978C163.541 119.978 170.071 113.448 170.071 105.393C170.071 97.3379 163.541 90.8081 155.486 90.8081C147.431 90.8081 140.901 97.3379 140.901 105.393C140.901 113.448 147.431 119.978 155.486 119.978Z" fill="#00CCF2"/>
<path d="M155.486 115.232C160.92 115.232 165.326 110.827 165.326 105.393C165.326 99.9587 160.92 95.5535 155.486 95.5535C150.052 95.5535 145.647 99.9587 145.647 105.393C145.647 110.827 150.052 115.232 155.486 115.232Z" fill="white"/>
<path d="M155.487 115.232C157.988 115.232 160.271 114.298 162.007 112.76C161.227 109.89 158.604 107.778 155.487 107.778C152.369 107.778 149.746 109.89 148.966 112.76C150.702 114.298 152.985 115.232 155.487 115.232Z" fill="#FF7D97"/>
<path d="M158.573 103.921V104.692C158.573 106.397 157.191 107.778 155.487 107.778C153.783 107.778 152.401 106.397 152.401 104.692V103.921C152.401 102.217 153.782 100.835 155.487 100.835C157.191 100.835 158.573 102.217 158.573 103.921Z" fill="#FFC7AF"/>
<path d="M121.467 97.5944C120.86 97.5944 120.254 97.3631 119.791 96.9003L116.769 93.8788C116.353 93.4624 116.353 92.7871 116.769 92.3707L118.613 90.5275C119.029 90.1111 119.704 90.1111 120.121 90.5275L121.467 91.8733L124.924 88.4159C125.34 87.9995 126.016 87.9995 126.432 88.4159L128.275 90.2591C128.692 90.6755 128.692 91.3508 128.275 91.7672L123.142 96.9004C122.679 97.3631 122.073 97.5944 121.467 97.5944Z" fill="#89DF8F"/>
<path d="M121.467 113.254C120.86 113.254 120.254 113.023 119.791 112.56L116.769 109.539C116.353 109.122 116.353 108.447 116.769 108.031L118.613 106.187C119.029 105.771 119.704 105.771 120.121 106.187L121.467 107.533L124.924 104.076C125.34 103.659 126.016 103.659 126.432 104.076L128.275 105.919C128.692 106.336 128.692 107.011 128.275 107.427L123.142 112.56C122.679 113.023 122.073 113.254 121.467 113.254Z" fill="#89DF8F"/>
<path d="M121.467 128.914C120.86 128.914 120.254 128.683 119.791 128.22L116.769 125.199C116.353 124.782 116.353 124.107 116.769 123.691L118.613 121.847C119.029 121.431 119.704 121.431 120.121 121.847L121.467 123.193L124.924 119.736C125.34 119.319 126.016 119.319 126.432 119.736L128.275 121.579C128.692 121.995 128.692 122.671 128.275 123.087L123.142 128.22C122.679 128.683 122.073 128.914 121.467 128.914Z" fill="#89DF8F"/>
<path d="M171.258 105.393C171.258 97.1335 164.876 90.3376 156.785 89.6755V84.0699C156.785 82.1074 155.188 80.5108 153.226 80.5108H138.989C138.334 80.5108 137.803 81.0421 137.803 81.6972C137.803 82.3523 138.334 82.8836 138.989 82.8836H153.226C153.88 82.8836 154.412 83.4158 154.412 84.0699V89.6592C146.44 90.1986 140.074 96.6885 139.732 104.713H133.394C132.739 104.713 132.207 105.244 132.207 105.899C132.207 106.554 132.739 107.085 133.394 107.085H139.807C140.522 113.757 145.414 119.196 151.809 120.73V124.019C151.303 124.442 150.979 125.077 150.979 125.787V134.134H114.076C113.422 134.134 112.889 133.602 112.889 132.948V84.0699C112.889 83.4158 113.422 82.8836 114.076 82.8836H128.312C128.967 82.8836 129.498 82.3523 129.498 81.6972C129.498 81.0421 128.967 80.5108 128.312 80.5108H114.076C112.113 80.5108 110.517 82.1074 110.517 84.0699V132.948C110.517 134.91 112.113 136.507 114.076 136.507H150.979V136.744C150.979 139.23 153.002 141.252 155.487 141.252C157.973 141.252 159.996 139.23 159.996 136.744V125.787C159.996 125.077 159.672 124.441 159.165 124.018V120.73C166.093 119.069 171.258 112.823 171.258 105.393ZM157.623 136.744C157.623 137.922 156.665 138.88 155.487 138.88C154.31 138.88 153.352 137.922 153.352 136.744V125.857H157.623V136.744ZM154.182 123.484V121.109C154.613 121.145 155.048 121.164 155.487 121.164C155.927 121.164 156.362 121.145 156.792 121.109V123.484H154.182ZM155.487 118.791C148.099 118.791 142.089 112.781 142.089 105.393C142.089 98.0049 148.099 91.9946 155.487 91.9946C162.875 91.9946 168.886 98.005 168.886 105.393C168.886 112.781 162.875 118.791 155.487 118.791Z" fill="black"/>
<path d="M155.487 94.3673C149.407 94.3673 144.461 99.3134 144.461 105.393C144.461 111.473 149.407 116.419 155.487 116.419C161.566 116.419 166.512 111.472 166.512 105.393C166.512 99.3134 161.566 94.3673 155.487 94.3673ZM155.487 114.046C153.568 114.046 151.794 113.417 150.358 112.357C151.22 110.327 153.233 108.965 155.487 108.965C157.74 108.965 159.753 110.327 160.616 112.357C159.179 113.417 157.405 114.046 155.487 114.046ZM153.587 104.692V103.921C153.587 102.874 154.439 102.021 155.487 102.021C156.534 102.021 157.386 102.874 157.386 103.921V104.692C157.386 105.74 156.534 106.592 155.487 106.592C154.439 106.592 153.587 105.74 153.587 104.692ZM162.39 110.603C161.57 109.167 160.32 108.029 158.838 107.337C159.414 106.609 159.759 105.691 159.759 104.692V103.921C159.759 101.565 157.842 99.6489 155.487 99.6489C153.131 99.6489 151.214 101.565 151.214 103.921V104.692C151.214 105.691 151.559 106.609 152.135 107.337C150.653 108.029 149.404 109.167 148.583 110.603C147.486 109.152 146.834 107.348 146.834 105.393C146.834 100.622 150.715 96.7399 155.487 96.7399C160.258 96.7399 164.14 100.622 164.14 105.393C164.14 107.348 163.487 109.152 162.39 110.603Z" fill="black"/>
<path d="M129.114 89.4203L127.271 87.5771C126.845 87.1516 126.28 86.9172 125.678 86.9172C125.076 86.9172 124.51 87.1516 124.085 87.577L121.466 90.1956L120.96 89.6889C120.534 89.2633 119.968 89.029 119.367 89.029C118.765 89.029 118.199 89.2634 117.774 89.6889L115.93 91.532C115.505 91.9574 115.271 92.5231 115.271 93.1249C115.271 93.7268 115.505 94.2924 115.93 94.7178L118.952 97.7393C119.623 98.4109 120.516 98.7808 121.466 98.7808C122.416 98.7808 123.309 98.4109 123.981 97.7393L129.114 92.606C129.54 92.1805 129.774 91.6148 129.774 91.0131C129.774 90.4114 129.539 89.8457 129.114 89.4203ZM122.303 96.0614C122.08 96.2849 121.782 96.4081 121.466 96.4081C121.15 96.4081 120.853 96.2849 120.63 96.0614L117.693 93.1248L119.367 91.4513L120.627 92.7123C121.091 93.1755 121.842 93.1755 122.305 92.7123L125.678 89.3396L127.351 91.0132L122.303 96.0614Z" fill="black"/>
<path d="M133.393 91.4254H143.053C143.709 91.4254 144.24 90.8941 144.24 90.239C144.24 89.5839 143.709 89.0526 143.053 89.0526H133.393C132.738 89.0526 132.207 89.5839 132.207 90.239C132.207 90.8941 132.738 91.4254 133.393 91.4254Z" fill="black"/>
<path d="M133.393 96.6453H137.733C138.389 96.6453 138.92 96.1141 138.92 95.459C138.92 94.8039 138.389 94.2726 137.733 94.2726H133.393C132.738 94.2726 132.207 94.8039 132.207 95.459C132.207 96.1141 132.738 96.6453 133.393 96.6453Z" fill="black"/>
<path d="M129.114 105.08L127.271 103.237C126.845 102.812 126.28 102.577 125.678 102.577C125.076 102.577 124.51 102.812 124.085 103.237L121.466 105.856L120.96 105.349C120.534 104.923 119.968 104.689 119.367 104.689C118.765 104.689 118.199 104.924 117.774 105.349L115.93 107.192C115.505 107.618 115.271 108.183 115.271 108.785C115.271 109.387 115.505 109.953 115.93 110.378L118.952 113.4C119.623 114.071 120.516 114.441 121.466 114.441C122.416 114.441 123.309 114.071 123.981 113.399L129.114 108.266C129.54 107.84 129.774 107.275 129.774 106.673C129.774 106.071 129.539 105.506 129.114 105.08ZM122.303 111.721C122.08 111.945 121.782 112.068 121.466 112.068C121.15 112.068 120.853 111.945 120.63 111.721L117.693 108.785L119.367 107.111L120.627 108.372C121.091 108.835 121.842 108.835 122.305 108.372L125.678 105L127.351 106.673L122.303 111.721Z" fill="black"/>
<path d="M133.393 112.305H136.362C137.017 112.305 137.548 111.774 137.548 111.119C137.548 110.464 137.017 109.933 136.362 109.933H133.393C132.738 109.933 132.207 110.464 132.207 111.119C132.207 111.774 132.738 112.305 133.393 112.305Z" fill="black"/>
<path d="M127.271 118.897C126.845 118.471 126.28 118.237 125.678 118.237C125.076 118.237 124.51 118.471 124.085 118.897L121.466 121.515L120.96 121.009C120.534 120.583 119.968 120.349 119.367 120.349C118.765 120.349 118.199 120.583 117.774 121.009L115.93 122.852C115.505 123.278 115.271 123.843 115.271 124.445C115.271 125.047 115.505 125.613 115.93 126.038L118.952 129.059C119.623 129.731 120.516 130.101 121.466 130.101C122.416 130.101 123.309 129.731 123.981 129.059L129.114 123.926C129.54 123.5 129.774 122.935 129.774 122.333C129.774 121.731 129.539 121.165 129.114 120.74L127.271 118.897ZM122.303 127.381C122.08 127.605 121.782 127.728 121.466 127.728C121.15 127.728 120.853 127.605 120.63 127.381L117.693 124.445L119.367 122.771L120.627 124.032C121.091 124.495 121.842 124.495 122.305 124.032L125.678 120.659L127.351 122.333L122.303 127.381Z" fill="black"/>
<path d="M133.393 122.745H143.053C143.709 122.745 144.24 122.214 144.24 121.559C144.24 120.904 143.709 120.372 143.053 120.372H133.393C132.738 120.372 132.207 120.904 132.207 121.559C132.207 122.214 132.738 122.745 133.393 122.745Z" fill="black"/>
<path d="M133.393 127.965H137.733C138.389 127.965 138.92 127.434 138.92 126.779C138.92 126.124 138.389 125.593 137.733 125.593H133.393C132.738 125.593 132.207 126.124 132.207 126.779C132.207 127.434 132.738 127.965 133.393 127.965Z" fill="black"/>
<path d="M133.65 82.884C134.305 82.884 134.837 82.3529 134.837 81.6977C134.837 81.0424 134.305 80.5113 133.65 80.5113C132.995 80.5113 132.464 81.0424 132.464 81.6977C132.464 82.3529 132.995 82.884 133.65 82.884Z" fill="black"/>
</g>
</g>
<defs>
<clipPath id="clip0_5223_1715">
<rect width="269.963" height="205.003" fill="white" transform="translate(0 0.365601)"/>
</clipPath>
<clipPath id="clip1_5223_1715">
<rect width="60.7416" height="60.7416" fill="white" transform="translate(110.517 80.5108)"/>
</clipPath>
</defs>
</svg>
