<svg width="270" height="206" viewBox="0 0 270 206" fill="none" xmlns="http://www.w3.org/2000/svg">
<g clip-path="url(#clip0_5223_3145)">
<path d="M269.963 0.365601H0V205.369H269.963V0.365601Z" fill="white"/>
<path d="M38.5562 157.178C58.5923 183.991 66.2275 160.165 108.694 168.203C156.411 177.234 177.612 229.518 233.058 156.991L136.305 147.472L38.5562 157.178Z" fill="#FFB200"/>
<path d="M38.5558 157.178C38.5558 157.178 10.6956 130.487 10.5142 112.58C10.2353 85.0389 39.1721 75.6107 52.8819 58.958C66.5916 42.3052 59.5486 15.6222 87.5911 9.83522C115.634 4.04828 130.863 26.433 158.3 31.1464C185.738 35.86 201.805 13.7055 220.388 23.8206C232.708 30.5271 234.296 52.3605 241.222 66.4728C247.771 79.8169 254.582 84.581 256.397 106.86C258.213 129.139 233.057 156.991 233.057 156.991C221.591 157.066 206.312 154.786 193.962 154.786C137.394 154.786 75.9973 156.519 46.8643 156.646C45.4385 156.652 39.833 157.2 38.5558 157.178Z" fill="#FFD6E7"/>
<path d="M75.7087 102.1C75.221 102.688 74.2838 102.712 74.2838 102.712C74.2838 102.712 74.1374 101.784 74.6248 101.196C75.1125 100.609 76.0497 100.584 76.0497 100.584C76.0497 100.584 76.1964 101.513 75.7087 102.1Z" fill="#55A343"/>
<path d="M44.5691 107.439C45.2294 107.822 45.4119 108.744 45.4119 108.744C45.4119 108.744 44.5242 109.046 43.8639 108.663C43.2035 108.281 43.021 107.359 43.021 107.359C43.021 107.359 43.9091 107.057 44.5691 107.439Z" fill="#55A343"/>
<path d="M67.6938 99.3401C68.7984 99.3401 69.7913 99.9164 70.3567 100.808C70.8029 100.561 71.3081 100.428 71.8328 100.428C73.0586 100.428 74.1482 101.174 74.6308 102.257C74.7332 102.246 74.8362 102.241 74.9395 102.241C75.9746 102.241 76.9355 102.77 77.5049 103.609C77.7143 103.57 77.9275 103.55 78.1432 103.55C80.0437 103.55 81.5903 105.1 81.5903 107.006C81.5903 107.232 81.5686 107.455 81.5252 107.673C82.7447 108.18 83.5845 109.385 83.5845 110.768C83.5845 112.617 82.0847 114.121 80.2411 114.121C79.7184 114.121 79.2078 113.998 78.7472 113.766C77.9308 114.819 76.6777 115.447 75.3134 115.447C74.4913 115.447 73.7068 115.221 73.0266 114.797C72.4588 115.669 71.4756 116.233 70.3917 116.233C69.4054 116.233 68.5068 115.781 67.9224 115.033C67.1991 115.42 66.3963 115.622 65.5622 115.622C64.6217 115.622 63.7225 115.366 62.9315 114.877C62.2817 115.271 61.531 115.484 60.7655 115.484C58.4592 115.484 56.5825 113.602 56.5825 111.289C56.5825 109.692 57.5016 108.265 58.8605 107.561C58.5123 107.029 58.3201 106.4 58.3201 105.74C58.3201 103.905 59.8091 102.412 61.6388 102.412C62.3257 102.412 62.9851 102.624 63.5364 103.01C63.8307 102.761 64.1711 102.572 64.5389 102.455C64.5654 100.733 65.9704 99.3401 67.6938 99.3401Z" fill="#55A343"/>
<path d="M55.0139 99.3401C56.2276 99.3401 57.3184 99.9732 57.9392 100.952C58.4294 100.681 58.9842 100.535 59.5608 100.535C60.9074 100.535 62.1045 101.355 62.6347 102.544C62.7473 102.533 62.8603 102.527 62.9739 102.527C64.111 102.527 65.1666 103.108 65.792 104.03C66.0221 103.986 66.2562 103.964 66.4933 103.964C68.5812 103.964 70.2802 105.668 70.2802 107.761C70.2802 108.01 70.2564 108.254 70.2088 108.494C71.5484 109.052 72.4711 110.375 72.4711 111.895C72.4711 113.925 70.8233 115.578 68.798 115.578C68.2239 115.578 67.663 115.442 67.1569 115.187C66.2601 116.345 64.8834 117.034 63.3845 117.034C62.4813 117.034 61.6195 116.786 60.8724 116.321C60.2485 117.278 59.1683 117.899 57.9778 117.899C56.8945 117.899 55.9071 117.402 55.2651 116.579C54.4704 117.005 53.5887 117.227 52.672 117.227C51.6388 117.227 50.651 116.946 49.7819 116.409C49.068 116.842 48.2432 117.076 47.4027 117.076C44.869 117.076 42.8076 115.009 42.8076 112.468C42.8076 110.713 43.8171 109.145 45.3103 108.372C44.9277 107.788 44.7166 107.097 44.7166 106.372C44.7166 104.356 46.3523 102.715 48.3628 102.715C49.1174 102.715 49.8419 102.948 50.4471 103.372C50.7703 103.098 51.1444 102.891 51.5484 102.762C51.5773 100.87 53.1209 99.3401 55.0139 99.3401Z" fill="#55A343"/>
<path d="M48.2026 114.354C50.539 114.354 52.5878 115.816 53.4364 117.894C54.2886 117.115 55.4092 116.666 56.6102 116.666C59.2148 116.666 61.334 118.791 61.334 121.403C61.334 121.894 61.2593 122.375 61.1147 122.835C63.2966 123.115 64.9886 124.989 64.9886 127.252C64.9886 129.708 62.9965 131.705 60.5477 131.705C59.4187 131.705 58.3628 131.285 57.5567 130.543C56.4223 132.254 54.504 133.31 52.3989 133.31C50.6481 133.31 49.0033 132.574 47.8384 131.302C46.91 132.177 45.6749 132.679 44.3832 132.679C41.5994 132.679 39.335 130.408 39.335 127.617C39.335 126.937 39.4717 126.269 39.735 125.648C38.6632 124.958 37.9863 123.757 37.9863 122.445C37.9863 120.345 39.6898 118.637 41.7838 118.637C42.0928 118.637 42.3998 118.676 42.698 118.75C43.2713 116.215 45.517 114.354 48.2026 114.354Z" fill="#448F35"/>
<path d="M67.2419 110.964C68.5174 110.964 69.6633 111.552 70.4224 112.471C71.296 111.893 72.3329 111.569 73.4158 111.569C76.3201 111.569 78.6999 113.865 78.8442 116.742C81.506 117.033 83.5845 119.3 83.5845 122.045C83.5845 124.962 81.2376 127.339 78.3378 127.379C77.5347 128.768 76.0427 129.665 74.3768 129.665C73.0155 129.665 71.7792 129.076 70.9336 128.109C70.4161 128.369 69.8359 128.511 69.2319 128.511C68.1014 128.511 67.0476 127.999 66.3385 127.163C66.1773 127.179 66.015 127.188 65.8526 127.188C64.1524 127.188 62.6402 126.292 61.7801 124.936C61.3581 125.093 60.9041 125.176 60.4366 125.176C58.3116 125.176 56.5825 123.442 56.5825 121.311C56.5825 119.919 57.3028 118.699 58.4077 118.018C58.3818 117.827 58.3686 117.635 58.3686 117.441C58.3686 115.057 60.3028 113.118 62.6799 113.118C62.9812 113.118 63.2791 113.15 63.5698 113.212C64.2563 111.878 65.6444 110.964 67.2419 110.964Z" fill="#448F35"/>
<path d="M76.6867 136.914C74.753 137.786 72.5356 137.235 71.2104 135.708C70.9767 135.888 70.7215 136.042 70.4486 136.165C68.5119 137.039 66.2276 136.169 65.3564 134.227C64.4852 132.285 65.3522 129.994 67.2889 129.121C67.9528 128.821 68.6743 128.719 69.3765 128.814C70.1296 127.465 71.287 126.397 72.7194 125.751C73.9466 125.198 75.2733 125 76.5936 125.169C76.9623 124.849 77.3738 124.587 77.823 124.384C78.0582 124.278 78.3004 124.19 78.5478 124.121C78.8939 123.396 79.4864 122.807 80.2311 122.471C81.9542 121.693 83.987 122.467 84.7617 124.195C85.4877 125.814 84.8569 127.705 83.3571 128.576C83.7363 130.423 82.8037 132.356 81.0191 133.161C80.4962 133.397 79.9329 133.517 79.3683 133.521C79.0803 134.989 78.1034 136.275 76.6867 136.914Z" fill="#448F35"/>
<path d="M50.3638 125.423C60.3635 142.99 61.0756 136.058 60.6397 154.28C60.6349 154.489 60.8024 154.664 61.0105 154.666C63.7614 154.687 64.0175 153.605 65.5014 154.345C65.7481 154.468 66.0385 154.288 66.0397 154.012C66.1382 130.923 61.4931 133.615 80.4264 123.687L79.7495 122.378L66.701 127.311L72.9565 115.557L71.0349 116.097C71.7006 115.367 67.8547 120.384 64.6359 123.596L58.0572 114.399L56.7407 115.923C63.5427 126.063 63.5427 126.063 60.8403 135.381L51.1837 124.412L50.3638 125.423Z" fill="#794F30"/>
<path d="M65.8843 127.83L66.7006 127.311L72.9562 115.557L72.1154 115.793L65.8843 127.83Z" fill="#71492C"/>
<path d="M64.6356 123.596L58.0568 114.399L57.6655 114.852C63.227 122.626 63.0788 122.169 64.6356 123.596Z" fill="#71492C"/>
<path d="M60.8402 135.381L51.1836 124.412L50.8408 124.835C58.0465 133.019 59.4238 134.411 60.8402 135.381Z" fill="#71492C"/>
<path d="M60.9131 154.65C60.9444 154.659 60.9766 154.665 61.0107 154.665C62.7494 154.679 63.4914 154.252 64.1767 154.123C63.2616 153.932 62.7302 154.545 60.9131 154.65Z" fill="#71492C"/>
<path d="M80.4263 123.687L79.7494 122.378L79.1514 122.604L79.7114 123.687C60.7785 133.615 65.4236 130.923 65.3248 154.012C65.3245 154.097 65.2944 154.171 65.2489 154.232C65.3293 154.264 65.4131 154.301 65.5016 154.345C65.7483 154.468 66.0387 154.288 66.0399 154.012C66.1385 130.923 61.4933 133.615 80.4263 123.687Z" fill="#71492C"/>
<path d="M87.0403 113.302C88.767 115.395 88.6447 118.42 86.8634 120.368C87.3993 120.631 87.8792 121.006 88.2666 121.475C89.7614 123.287 89.5074 125.981 87.7006 127.48C85.8934 128.979 83.2073 128.725 81.7125 126.913C81.0805 126.146 80.7419 125.198 80.7362 124.224C78.7107 123.861 76.899 122.805 75.5726 121.197C74.4641 119.853 73.7947 118.245 73.6215 116.521C73.0302 116.174 72.5105 115.731 72.0719 115.2C71.802 114.872 71.5689 114.517 71.3758 114.14C70.3868 114.061 69.4602 113.586 68.8203 112.811C67.5211 111.236 67.7419 108.895 69.3123 107.592C70.8826 106.289 73.2169 106.511 74.5162 108.086C74.5638 108.143 74.6096 108.202 74.6533 108.262C76.5884 106.916 79.271 107.26 80.7995 109.112C81.3565 109.788 81.7038 110.608 81.8119 111.467C83.7266 111.068 85.7558 111.745 87.0403 113.302Z" fill="#5CB248"/>
<path d="M41.2042 110.88C42.9499 108.787 45.9882 108.423 48.1704 109.974C47.558 108.559 47.742 106.86 48.7958 105.596C50.2827 103.813 52.9294 103.576 54.7076 105.067C55.3758 105.627 55.8258 106.352 56.049 107.132C56.1629 106.932 56.2924 106.738 56.4452 106.555C57.826 104.899 60.2839 104.679 61.9353 106.064C63.5867 107.448 63.806 109.913 62.4251 111.569C61.5244 112.65 60.1661 113.114 58.8717 112.926C59.917 114.934 59.7248 117.46 58.1854 119.306C56.9 120.847 54.9826 121.545 53.1294 121.34C53.4873 122.716 53.2026 124.239 52.2236 125.413C50.615 127.342 47.7511 127.598 45.827 125.985C45.1378 125.407 44.6667 124.667 44.4145 123.867C43.2749 124.543 41.7895 124.469 40.7159 123.568C39.3537 122.426 39.1726 120.393 40.3116 119.027C40.6945 118.568 41.1786 118.246 41.703 118.06C39.6522 116.196 39.413 113.028 41.2042 110.88Z" fill="#5CB248"/>
<path d="M54.9837 102.957C57.5476 102.042 60.3491 103.277 61.4438 105.724C61.6324 104.194 62.6518 102.823 64.1993 102.271C66.383 101.492 68.7833 102.636 69.5602 104.826C69.8521 105.649 69.8729 106.502 69.6701 107.288C69.8695 107.174 70.0795 107.073 70.3036 106.993C72.3316 106.269 74.5605 107.331 75.2819 109.365C76.0034 111.399 74.9442 113.634 72.916 114.357C71.5932 114.829 70.1877 114.538 69.168 113.716C69.0514 115.979 67.6069 118.057 65.3461 118.863C63.4579 119.537 61.4529 119.161 59.9605 118.041C59.5719 119.408 58.5559 120.575 57.1177 121.088C54.7548 121.931 52.1578 120.694 51.3173 118.324C51.0161 117.475 50.9854 116.597 51.173 115.78C49.8491 115.782 48.6071 114.962 48.1381 113.639C47.5428 111.962 48.4167 110.118 50.0898 109.521C50.6522 109.32 51.2321 109.29 51.7782 109.396C50.9546 106.746 52.353 103.896 54.9837 102.957Z" fill="#5CB248"/>
<path d="M67.8894 122.756C65.302 122.05 63.7756 119.374 64.4799 116.78C64.5601 116.484 64.6688 116.205 64.7968 115.939C63.9504 116.49 62.8843 116.695 61.8335 116.408C59.8773 115.874 58.7232 113.85 59.2558 111.889C59.7884 109.927 61.8058 108.77 63.7621 109.304C64.8658 109.605 65.7138 110.381 66.1479 111.352C68.0261 110.255 70.3237 109.882 72.5863 110.5C74.4079 110.997 75.9229 112.061 77.0007 113.447C77.7412 113.324 78.5181 113.351 79.2895 113.562C79.8417 113.712 80.349 113.946 80.8048 114.242C81.55 113.625 82.5706 113.367 83.5735 113.641C85.2143 114.089 86.1822 115.786 85.7355 117.431C85.2887 119.077 83.5967 120.047 81.9558 119.599C81.572 119.495 81.2271 119.319 80.9265 119.095C80.9039 119.306 80.8692 119.518 80.812 119.73C80.2279 121.881 78.015 123.151 75.8695 122.565C74.7351 122.255 73.8503 121.486 73.3512 120.515C72.2715 122.369 70.0544 123.348 67.8894 122.756Z" fill="#5CB248"/>
<path d="M56.082 110.731C56.37 111.44 55.9507 112.28 55.9507 112.28C55.9507 112.28 55.0644 111.973 54.7767 111.265C54.4888 110.557 54.9084 109.716 54.9084 109.716C54.9084 109.716 55.794 110.023 56.082 110.731Z" fill="#55A343"/>
<path d="M57.5272 112.342C56.834 112.66 55.9785 112.275 55.9785 112.275C55.9785 112.275 56.2472 111.374 56.9404 111.056C57.6335 110.738 58.4891 111.123 58.4891 111.123C58.4891 111.123 58.2203 112.024 57.5272 112.342Z" fill="#55A343"/>
<path d="M75.4023 114.645C76.0521 115.045 76.2099 115.972 76.2099 115.972C76.2099 115.972 75.3143 116.25 74.6646 115.85C74.0148 115.45 73.8569 114.523 73.8569 114.523C73.8569 114.523 74.7525 114.245 75.4023 114.645Z" fill="#55A343"/>
<path d="M77.5184 115.086C77.1472 115.754 76.2306 115.951 76.2306 115.951C76.2306 115.951 75.9158 115.066 76.2869 114.398C76.658 113.73 77.5747 113.533 77.5747 113.533C77.5747 113.533 77.8895 114.419 77.5184 115.086Z" fill="#55A343"/>
<path d="M46.3627 122.014C47.0125 122.414 47.1704 123.341 47.1704 123.341C47.1704 123.341 46.2748 123.619 45.625 123.219C44.9752 122.819 44.8174 121.892 44.8174 121.892C44.8174 121.892 45.713 121.614 46.3627 122.014Z" fill="#55A343"/>
<path d="M48.4783 122.455C48.1072 123.123 47.1905 123.32 47.1905 123.32C47.1905 123.32 46.8757 122.435 47.2469 121.767C47.618 121.099 48.5347 120.902 48.5347 120.902C48.5347 120.902 48.8494 121.787 48.4783 122.455Z" fill="#55A343"/>
<path d="M87.9456 120.78C87.184 120.819 86.5312 120.144 86.5312 120.144C86.5312 120.144 87.1129 119.407 87.8745 119.369C88.636 119.33 89.2888 120.005 89.2888 120.005C89.2888 120.005 88.7071 120.742 87.9456 120.78Z" fill="#5CB248"/>
<path d="M52.9835 122.61C52.7338 121.887 53.1974 121.07 53.1974 121.07C53.1974 121.07 54.0659 121.424 54.3156 122.146C54.5653 122.869 54.1017 123.686 54.1017 123.686C54.1017 123.686 53.2336 123.332 52.9835 122.61Z" fill="#5CB248"/>
<path d="M72.4906 121.74C72.5536 120.978 73.307 120.419 73.307 120.419C73.307 120.419 73.9586 121.095 73.8956 121.856C73.8326 122.618 73.0792 123.178 73.0792 123.178C73.0792 123.178 72.4277 122.502 72.4906 121.74Z" fill="#5CB248"/>
<path d="M71.0444 106.594C70.5733 107.195 69.6373 107.246 69.6373 107.246C69.6373 107.246 69.4647 106.322 69.9358 105.721C70.407 105.12 71.3429 105.069 71.3429 105.069C71.3429 105.069 71.5155 105.993 71.0444 106.594Z" fill="#5CB248"/>
<path d="M48.156 108.588C48.5587 109.237 48.2867 110.137 48.2867 110.137C48.2867 110.137 47.3616 109.984 46.9588 109.335C46.5561 108.686 46.8281 107.786 46.8281 107.786C46.8281 107.786 47.7532 107.939 48.156 108.588Z" fill="#5CB248"/>
<path d="M178.835 121.846C179.283 121.138 180.299 120.979 180.299 120.979C180.299 120.979 180.589 121.969 180.141 122.677C179.693 123.385 178.677 123.544 178.677 123.544C178.677 123.544 178.387 122.554 178.835 121.846Z" fill="#55A343"/>
<path d="M195.49 106.132C197.043 106.132 198.438 106.942 199.233 108.194C199.859 107.848 200.569 107.661 201.307 107.661C203.029 107.661 204.561 108.709 205.239 110.231C205.383 110.216 205.528 110.209 205.673 110.209C207.127 110.209 208.478 110.953 209.278 112.132C209.572 112.076 209.872 112.048 210.175 112.048C212.846 112.048 215.019 114.227 215.019 116.905C215.019 117.223 214.989 117.536 214.928 117.842C216.642 118.556 217.822 120.249 217.822 122.192C217.822 124.791 215.714 126.904 213.123 126.904C212.389 126.904 211.671 126.731 211.024 126.405C209.877 127.885 208.116 128.767 206.198 128.767C205.043 128.767 203.94 128.45 202.984 127.855C202.186 129.08 200.805 129.873 199.281 129.873C197.895 129.873 196.632 129.237 195.811 128.185C194.794 128.73 193.667 129.014 192.494 129.014C191.172 129.014 189.909 128.654 188.797 127.968C187.884 128.522 186.828 128.82 185.753 128.82C182.512 128.82 179.875 126.176 179.875 122.926C179.875 120.681 181.166 118.675 183.076 117.686C182.586 116.938 182.316 116.054 182.316 115.127C182.316 112.548 184.409 110.45 186.98 110.45C187.946 110.45 188.873 110.748 189.647 111.29C190.061 110.939 190.539 110.674 191.056 110.51C191.094 108.089 193.069 106.132 195.49 106.132Z" fill="#448F35"/>
<path d="M185.569 99.9427C187.784 99.9427 189.774 101.216 190.752 103.124C191.659 102.288 192.858 101.804 194.122 101.804C196.87 101.804 199.105 104.045 199.105 106.8C199.105 107.07 199.084 107.336 199.041 107.599C201.173 107.639 202.896 109.391 202.896 111.539C202.896 112.996 202.109 114.307 200.857 114.993C200.482 116.622 199.038 117.8 197.325 117.8C196.704 117.8 196.101 117.641 195.567 117.342C195.17 117.678 194.664 117.87 194.122 117.87C193.669 117.87 193.237 117.733 192.875 117.49C192.825 117.545 192.773 117.6 192.72 117.653C191.874 118.502 190.749 118.969 189.553 118.969C188.356 118.969 187.231 118.501 186.385 117.653C186.335 117.603 186.286 117.552 186.239 117.5C185.398 118.452 184.177 119.025 182.873 119.025C180.46 119.025 178.484 117.107 178.382 114.712C176.833 114.659 175.589 113.379 175.589 111.814C175.589 111.755 175.591 111.697 175.595 111.638C174.895 110.909 174.502 109.94 174.502 108.915C174.502 106.749 176.26 104.986 178.421 104.986C178.889 104.986 179.345 105.067 179.772 105.224C180.052 102.265 182.545 99.9427 185.569 99.9427Z" fill="#55A343"/>
<path d="M184.415 120.866C195.451 131.634 194.553 150.176 194.292 153.514C194.275 153.737 194.495 153.905 194.702 153.823C196.74 153.017 199.802 153.609 201.023 153.901C201.251 153.955 201.453 153.741 201.384 153.516C199.011 145.792 200.493 134.506 212.175 117.001C212.175 117.001 211.55 116.156 210.89 116.791C208.991 118.617 205.989 122.552 204.539 123.359C204.196 120.282 207.782 113.585 207.782 113.585C207.782 113.585 203.701 119.402 201.806 118.799C199.91 118.195 199.427 113.229 199.427 113.229L197.71 113.601C203.325 124.948 198.633 132.653 198.633 132.653C198.633 132.653 194.314 128.035 195.053 116.911L193.416 117.085C193.416 117.085 194.038 128.365 193.654 128.669C193.371 128.895 187.738 119.025 187.738 119.025L184.415 120.866Z" fill="#794F30"/>
<path d="M194.151 117.007C193.453 127.926 196.896 131.525 198.633 132.653C197.5 130.984 194.478 125.564 195.052 116.911L194.151 117.007Z" fill="#71492C"/>
<path d="M200.91 118.799C201.141 118.872 201.406 118.849 201.692 118.753C199.892 117.99 199.428 113.229 199.428 113.229L198.553 113.418C198.663 114.329 199.235 118.265 200.91 118.799Z" fill="#71492C"/>
<path d="M204.538 123.359C204.685 120.077 207.782 113.585 207.782 113.585C207.782 113.585 207.094 115.189 205.852 116.557C204.427 119.616 204.393 123.49 204.538 123.359Z" fill="#71492C"/>
<path d="M193.654 128.669C192.04 126.198 187.738 119.024 187.738 119.024L187.057 119.401C187.939 120.94 189.979 125.013 193.654 128.669Z" fill="#71492C"/>
<path d="M212.175 117.001C212.175 117.001 211.605 116.234 210.979 116.717C211.163 116.845 211.278 117.001 211.278 117.001C198.78 133.003 196.847 143.093 200.488 153.516C200.52 153.609 200.496 153.702 200.447 153.773C200.666 153.818 200.862 153.862 201.023 153.901C201.251 153.955 201.453 153.741 201.384 153.516C199.011 145.791 200.493 134.506 212.175 117.001Z" fill="#71492C"/>
<path d="M194.317 153.658C194.378 153.801 194.543 153.886 194.702 153.823C195.338 153.572 196.072 153.457 196.82 153.426C195.971 153.394 195.095 153.447 194.317 153.658Z" fill="#71492C"/>
<path d="M220.486 102.702C220.406 102.702 220.325 102.703 220.244 102.706C220.264 102.503 220.273 102.299 220.273 102.094C220.273 98.2915 216.991 95.1982 212.957 95.1982C211.116 95.1982 209.374 95.8516 208.048 96.9817C207.159 95.3985 205.392 94.3149 203.37 94.3149C200.999 94.3149 198.987 95.7927 198.317 97.8221C197.675 97.5838 196.986 97.4584 196.286 97.4584C193.214 97.4584 190.714 99.814 190.714 102.709C190.714 103.19 190.785 103.666 190.923 104.127C189.181 104.37 186.043 106.132 186.006 109.048C185.128 108.489 184.103 108.183 183.051 108.183C180.165 108.183 177.789 110.415 177.549 113.247C177.46 113.242 177.37 113.239 177.281 113.239C174.827 113.239 172.832 115.24 172.832 117.7C172.832 120.161 174.827 122.162 177.281 122.162C178.489 122.162 179.639 121.664 180.471 120.806C180.968 120.915 181.475 120.97 181.985 120.97C182.813 120.97 183.622 120.827 184.396 120.543C186.124 121.705 188.125 122.316 190.218 122.316C192.723 122.316 195.09 121.442 196.979 119.836C197.885 120.579 199.022 120.991 200.216 120.991C202.43 120.991 204.32 119.574 205.032 117.597C205.488 117.733 205.968 117.806 206.461 117.806C207.543 117.806 208.563 117.466 209.383 116.865C210.454 118.47 212.337 119.49 214.449 119.49C216.852 119.49 218.978 118.149 219.924 116.133C220.112 116.147 220.3 116.154 220.487 116.154C224.422 116.154 227.624 113.137 227.624 109.428C227.623 105.719 224.422 102.702 220.486 102.702Z" fill="#5CB248"/>
<path d="M194.112 107.404C194.838 107.823 195.039 108.834 195.039 108.834C195.039 108.834 194.066 109.167 193.341 108.749C192.616 108.33 192.414 107.319 192.414 107.319C192.414 107.319 193.387 106.986 194.112 107.404Z" fill="#55A343"/>
<path d="M196.446 107.822C196.06 108.566 195.061 108.811 195.061 108.811C195.061 108.811 194.688 107.85 195.075 107.106C195.461 106.362 196.46 106.117 196.46 106.117C196.46 106.117 196.833 107.078 196.446 107.822Z" fill="#55A343"/>
<path d="M207.544 100.722C207.86 101.499 207.4 102.421 207.4 102.421C207.4 102.421 206.428 102.084 206.112 101.308C205.796 100.531 206.256 99.6086 206.256 99.6086C206.256 99.6086 207.229 99.9457 207.544 100.722Z" fill="#55A343"/>
<path d="M209.129 102.489C208.369 102.838 207.43 102.416 207.43 102.416C207.43 102.416 207.725 101.428 208.485 101.079C209.246 100.73 210.184 101.152 210.184 101.152C210.184 101.152 209.89 102.14 209.129 102.489Z" fill="#55A343"/>
<path d="M213.718 112.833C214.033 113.609 213.573 114.532 213.573 114.532C213.573 114.532 212.601 114.195 212.285 113.418C211.97 112.642 212.43 111.72 212.43 111.72C212.43 111.72 213.402 112.056 213.718 112.833Z" fill="#55A343"/>
<path d="M215.303 114.6C214.542 114.949 213.604 114.527 213.604 114.527C213.604 114.527 213.899 113.538 214.659 113.19C215.42 112.841 216.358 113.263 216.358 113.263C216.358 113.263 216.063 114.251 215.303 114.6Z" fill="#55A343"/>
<path d="M198.442 96.2075C198.757 96.9841 198.297 97.9064 198.297 97.9064C198.297 97.9064 197.325 97.5696 197.01 96.7929C196.694 96.0163 197.154 95.094 197.154 95.094C197.154 95.094 198.126 95.4308 198.442 96.2075Z" fill="#5CB248"/>
<path d="M221.854 102.579C221.156 103.042 220.164 102.77 220.164 102.77C220.164 102.77 220.303 101.748 221.001 101.285C221.698 100.823 222.69 101.095 222.69 101.095C222.69 101.095 222.551 102.116 221.854 102.579Z" fill="#5CB248"/>
<path d="M220.466 117.554C219.844 116.994 219.855 115.962 219.855 115.962C219.855 115.962 220.877 115.839 221.499 116.399C222.122 116.959 222.11 117.991 222.11 117.991C222.11 117.991 221.089 118.114 220.466 117.554Z" fill="#5CB248"/>
<path d="M196.347 121.213C196.315 120.375 197.063 119.667 197.063 119.667C197.063 119.667 197.861 120.317 197.892 121.155C197.923 121.994 197.176 122.702 197.176 122.702C197.176 122.702 196.378 122.052 196.347 121.213Z" fill="#5CB248"/>
<path d="M135.71 65.6883C135.373 64.9005 134.593 64.3483 133.684 64.3483C133.399 64.3483 133.128 64.4042 132.879 64.5026C132.903 64.3525 132.918 64.1997 132.918 64.0426C132.918 62.4467 131.628 61.1529 130.037 61.1529C129.195 61.1529 128.44 61.5169 127.913 62.0938C127.515 60.6097 126.167 59.5159 124.561 59.5159C122.643 59.5159 121.087 61.0758 121.087 63.0004C121.087 63.2194 121.109 63.433 121.148 63.6411C120.667 63.1007 119.969 62.7584 119.189 62.7584C117.738 62.7584 116.562 63.9381 116.562 65.3932C116.562 65.4929 116.568 65.5913 116.579 65.6883H135.71Z" fill="#F7FBFC"/>
<path d="M202.32 50.7308H220.928C220.921 50.7194 220.914 50.7076 220.907 50.6961C221.861 50.3575 222.547 49.4467 222.547 48.3734C222.547 47.0116 221.446 45.9075 220.088 45.9075C219.631 45.9075 219.205 46.0344 218.839 46.2516C218.755 44.1307 217.019 42.4354 214.883 42.4354C212.802 42.4354 211.099 44.0449 210.935 46.09C210.408 45.0357 209.324 44.3101 208.067 44.3101C206.295 44.3101 204.857 45.7514 204.857 47.5291C204.857 48.197 205.06 48.8172 205.408 49.3316C205.235 49.3002 205.058 49.2815 204.876 49.2815C203.791 49.2812 202.842 49.8624 202.32 50.7308Z" fill="#EFF7F8"/>
<path d="M71.7857 86.4479C71.3862 85.567 70.54 84.9336 69.5351 84.8432C69.8258 84.3536 69.996 83.7832 69.996 83.1718C69.996 81.363 68.5335 79.8964 66.7296 79.8964C65.9039 79.8964 65.152 80.206 64.577 80.7126C64.5815 80.6449 64.5872 80.5776 64.5872 80.5084C64.5872 78.814 63.2175 77.4402 61.5275 77.4402C59.8454 77.4402 58.4814 78.8016 58.469 80.4857C57.6936 79.0814 56.2019 78.1301 54.4878 78.1301C51.9761 78.1301 49.9397 80.1722 49.9397 82.6909C49.9397 83.2078 50.0267 83.7038 50.1846 84.1672C49.7951 84.0545 49.3842 83.9929 48.9586 83.9929C47.227 83.9929 45.729 84.9928 45.0054 86.4479H71.7857Z" fill="#EFF7F8"/>
<path d="M171.507 56.9207C177.25 56.1413 178.687 56.6893 180.039 54.2956L177.992 54.8207C176.415 52.047 176.146 51.7307 172.9 49.8094C175.335 53.7948 174.594 52.1968 175.624 55.2553L171.507 56.9207Z" fill="#43484E"/>
<path d="M187.257 61.2807C190.107 60.8937 190.82 61.1659 191.49 59.9781L190.475 60.2388C189.692 58.8625 189.559 58.7054 187.948 57.7521C189.156 59.7298 188.789 58.9368 189.3 60.4545L187.257 61.2807Z" fill="#43484E"/>
<path d="M194.678 49.1963C194.678 49.1963 194.275 48.8489 194.291 48.7323C194.421 47.7683 194.83 46.5721 195.351 45.6281C194.042 46.518 192.887 47.5224 192.888 48.5145C191.48 48.2368 189.373 46.3498 189.373 46.3498C189.954 47.8901 191.356 50.1484 192.177 50.4296C191.556 50.5855 191.416 50.5481 190.459 50.4988L191.177 51.0985C192.869 50.4734 193.693 50.3985 194.284 49.6128C194.375 49.4914 194.629 49.4349 194.678 49.1963Z" fill="#43484E"/>
<path d="M203.082 77.5077H99.9751V150.605H203.082V77.5077Z" fill="#E3E2DC"/>
<path d="M203.082 149.659H62.3711V157.058H203.082V149.659Z" fill="#43484E"/>
<path d="M151.528 44.2464L99.9751 77.5077H203.082L151.528 44.2464Z" fill="#E3E2DC"/>
<path d="M137.58 102.131H62.3711V149.659H137.58V102.131Z" fill="#F0F0EC"/>
<path d="M99.9753 77.5077L62.3711 102.131H137.579L99.9753 77.5077Z" fill="#F0F0EC"/>
<path d="M203.146 75.7359L151.527 42.5473L99.2029 76.306L62.2964 100.152V107.605L100.746 82.7629L151.53 49.998L203.146 83.1845V75.7359Z" fill="#DADADA"/>
<path d="M56.6508 107.201L55.1064 104.797L99.2032 76.306L151.527 42.5473L209.444 79.7853L207.905 82.1924L151.53 45.9455L100.747 78.7101L56.6508 107.201Z" fill="white"/>
<path d="M140.954 103.152H137.579V157.058H140.954V103.152Z" fill="#DADADA"/>
<path d="M55.1064 104.797L99.2032 76.306L151.527 42.5473L209.444 79.7853" stroke="#1D1D1B" stroke-width="1.68727" stroke-miterlimit="10"/>
<path d="M140.968 108.924L142.231 109.711L143.061 107.157L140.954 105.773L140.968 108.924Z" fill="#DADADA"/>
<path d="M58.7536 143.117C55.5918 143.111 53.0234 145.676 53.0174 148.847C53.0159 149.673 53.1915 150.456 53.5033 151.166C53.2472 151.095 52.9785 151.054 52.6999 151.053C51.0268 151.05 49.6679 152.408 49.6646 154.085C49.6612 155.763 51.015 157.126 52.6881 157.129L78.2818 157.178C79.5389 157.18 80.5598 156.161 80.5622 154.9C80.5646 153.64 79.5476 152.616 78.2905 152.613C77.7811 152.612 77.3121 152.781 76.9323 153.064C77.0428 152.703 77.1034 152.319 77.1043 151.922C77.1085 149.755 75.3601 147.995 73.1996 147.991C71.8774 147.989 70.7098 148.646 69.9995 149.651C69.698 148.141 68.3698 147.002 66.7744 146.999C65.8412 146.997 64.9992 147.386 64.3985 148.01C63.9894 145.247 61.6235 143.122 58.7536 143.117Z" fill="#55A343"/>
<path d="M38.5562 157.178C38.6538 156.967 38.867 156.819 39.1153 156.819C39.2198 156.819 39.3168 156.848 39.4029 156.894C39.5825 156.475 39.9967 156.182 40.4799 156.182C40.67 156.182 40.8471 156.232 41.0058 156.312C41.3191 155.653 41.9879 155.196 42.7651 155.196C43.1886 155.196 43.5793 155.333 43.8993 155.563C44.2571 154.102 45.5684 153.017 47.1358 153.017C47.3343 153.017 47.5277 153.037 47.7166 153.071C48.154 151.273 49.7662 149.937 51.6942 149.937C53.345 149.937 54.7641 150.917 55.4133 152.328C55.657 149.499 58.0199 147.279 60.9037 147.279C62.6036 147.279 64.1227 148.051 65.1343 149.264C65.3943 149.17 65.6735 149.116 65.966 149.116C67.3198 149.116 68.4175 150.217 68.4175 151.575C68.4175 152.221 68.1666 152.808 67.7593 153.247C68.8215 153.685 69.5698 154.732 69.5698 155.955C69.5698 156.392 69.4737 156.806 69.3023 157.179H38.5562V157.178Z" fill="#5CB248"/>
<path d="M62.7256 152.319C62.5626 152.72 62.8 153.196 62.8 153.196C62.8 153.196 63.3019 153.022 63.4652 152.621C63.6281 152.22 63.3907 151.744 63.3907 151.744C63.3907 151.744 62.8886 151.918 62.7256 152.319Z" fill="#55A343"/>
<path d="M61.9072 153.231C62.3001 153.411 62.7845 153.193 62.7845 153.193C62.7845 153.193 62.6323 152.683 62.2395 152.503C61.8467 152.322 61.3623 152.541 61.3623 152.541C61.3623 152.541 61.5144 153.051 61.9072 153.231Z" fill="#55A343"/>
<path d="M73.8923 151.034C73.4735 151.141 73.2319 151.615 73.2319 151.615C73.2319 151.615 73.6693 151.917 74.0881 151.811C74.5068 151.704 74.7484 151.23 74.7484 151.23C74.7484 151.23 74.311 150.928 73.8923 151.034Z" fill="#448F35"/>
<path d="M72.6746 150.914C72.7629 151.338 73.2253 151.6 73.2253 151.6C73.2253 151.6 73.5446 151.175 73.4566 150.751C73.3683 150.327 72.9059 150.065 72.9059 150.065C72.9059 150.065 72.5863 150.491 72.6746 150.914Z" fill="#448F35"/>
<path d="M58.5494 144.73C58.3581 145.118 58.5609 145.611 58.5609 145.611C58.5609 145.611 59.0739 145.473 59.2652 145.085C59.4565 144.697 59.2537 144.205 59.2537 144.205C59.2537 144.205 58.741 144.341 58.5494 144.73Z" fill="#448F35"/>
<path d="M57.6679 145.581C58.0465 145.789 58.5457 145.606 58.5457 145.606C58.5457 145.606 58.4303 145.086 58.0516 144.878C57.673 144.67 57.1738 144.853 57.1738 144.853C57.1738 144.853 57.2892 145.373 57.6679 145.581Z" fill="#448F35"/>
<path d="M50.825 155.044C50.4602 155.205 50.3135 155.675 50.3135 155.675C50.3135 155.675 50.7584 155.882 51.1232 155.72C51.488 155.558 51.6344 155.089 51.6344 155.089C51.6344 155.089 51.1898 154.882 50.825 155.044Z" fill="#55A343"/>
<path d="M49.6976 155.124C49.8434 155.496 50.3052 155.663 50.3052 155.663C50.3052 155.663 50.5303 155.226 50.3842 154.853C50.2384 154.481 49.7766 154.314 49.7766 154.314C49.7766 154.314 49.5518 154.751 49.6976 155.124Z" fill="#55A343"/>
<path d="M58.0943 155.205C57.8648 155.533 57.9802 156.011 57.9802 156.011C57.9802 156.011 58.4679 155.959 58.6974 155.631C58.927 155.304 58.8116 154.826 58.8116 154.826C58.8116 154.826 58.3242 154.878 58.0943 155.205Z" fill="#55A343"/>
<path d="M57.1697 155.857C57.486 156.101 57.9671 156.005 57.9671 156.005C57.9671 156.005 57.9355 155.514 57.6192 155.27C57.3029 155.027 56.8218 155.122 56.8218 155.122C56.8218 155.122 56.8534 155.613 57.1697 155.857Z" fill="#55A343"/>
<path d="M47.0917 152.78C47.3227 153.099 47.8044 153.143 47.8044 153.143C47.8044 153.143 47.9111 152.67 47.68 152.351C47.449 152.032 46.9676 151.988 46.9676 151.988C46.9676 151.988 46.8606 152.461 47.0917 152.78Z" fill="#5CB248"/>
<path d="M68.4562 153.4C68.7954 153.269 68.9493 152.848 68.9493 152.848C68.9493 152.848 68.5535 152.64 68.2143 152.771C67.8751 152.902 67.7212 153.323 67.7212 153.323C67.7212 153.323 68.117 153.531 68.4562 153.4Z" fill="#5CB248"/>
<path d="M77.1416 155.041C77.3739 154.78 77.3209 154.352 77.3209 154.352C77.3209 154.352 76.8913 154.349 76.6591 154.611C76.4268 154.873 76.4798 155.3 76.4798 155.3C76.4798 155.3 76.9094 155.303 77.1416 155.041Z" fill="#448F35"/>
<path d="M192.246 152.698C191.572 153.756 191.177 155.009 191.177 156.357C191.177 156.571 191.188 156.782 191.207 156.99H229.318C229.4 156.599 229.444 156.194 229.444 155.778C229.444 152.548 226.833 149.93 223.612 149.93C223.256 149.93 222.909 149.966 222.571 150.028C223.25 149.022 223.647 147.808 223.647 146.501C223.647 143.023 220.836 140.204 217.367 140.204C214.909 140.204 212.787 141.623 211.755 143.686C211.436 139.685 208.104 136.536 204.032 136.536C199.853 136.536 196.456 139.852 196.292 144.002C195.575 143.577 194.742 143.329 193.849 143.329C191.192 143.329 189.038 145.488 189.038 148.153C189.038 150.253 190.378 152.035 192.246 152.698Z" fill="#55A343"/>
<path d="M233.063 156.99C233.186 156.672 233.256 156.328 233.256 155.966C233.256 154.399 231.989 153.128 230.426 153.128C229.965 153.128 229.531 153.241 229.146 153.437C229.018 150.718 226.786 148.551 224.042 148.551C222.459 148.551 221.044 149.273 220.106 150.406C220.02 148.193 218.209 146.425 215.981 146.425C214.745 146.425 213.639 146.972 212.882 147.834C212.691 145.473 210.724 143.616 208.32 143.616C206.105 143.616 204.257 145.194 203.833 147.291C203.585 147.235 203.328 147.203 203.063 147.203C201.127 147.203 199.557 148.777 199.557 150.719C199.557 151.388 199.747 152.011 200.07 152.543C198.366 152.749 197.044 154.201 197.044 155.966C197.044 156.323 197.101 156.666 197.202 156.99H233.063Z" fill="#5CB248"/>
<path d="M208.547 149.473C209.376 149.768 209.776 150.776 209.776 150.776C209.776 150.776 208.832 151.305 208.003 151.011C207.174 150.716 206.774 149.708 206.774 149.708C206.774 149.708 207.718 149.178 208.547 149.473Z" fill="#55A343"/>
<path d="M211.039 149.461C210.78 150.304 209.793 150.747 209.793 150.747C209.793 150.747 209.226 149.824 209.485 148.981C209.743 148.138 210.73 147.695 210.73 147.695C210.73 147.695 211.298 148.618 211.039 149.461Z" fill="#55A343"/>
<path d="M194.573 148.662C195.426 148.878 195.918 149.844 195.918 149.844C195.918 149.844 195.027 150.46 194.175 150.243C193.322 150.027 192.83 149.061 192.83 149.061C192.83 149.061 193.721 148.446 194.573 148.662Z" fill="#448F35"/>
<path d="M197.054 148.418C196.874 149.282 195.932 149.815 195.932 149.815C195.932 149.815 195.282 148.949 195.462 148.085C195.641 147.222 196.583 146.689 196.583 146.689C196.583 146.689 197.233 147.555 197.054 148.418Z" fill="#448F35"/>
<path d="M221.873 153.677C222.341 154.343 222.106 155.317 222.106 155.317C222.106 155.317 221.112 155.21 220.645 154.544C220.177 153.878 220.413 152.904 220.413 152.904C220.413 152.904 221.406 153.011 221.873 153.677Z" fill="#55A343"/>
<path d="M223.758 155.003C223.114 155.5 222.134 155.305 222.134 155.305C222.134 155.305 222.199 154.305 222.843 153.809C223.487 153.313 224.467 153.508 224.467 153.508C224.467 153.508 224.402 154.507 223.758 155.003Z" fill="#55A343"/>
<path d="M230.405 152.785C229.935 153.434 228.954 153.524 228.954 153.524C228.954 153.524 228.737 152.561 229.208 151.912C229.679 151.263 230.659 151.173 230.659 151.173C230.659 151.173 230.876 152.135 230.405 152.785Z" fill="#5CB248"/>
<path d="M195.047 143.567C194.574 143.034 194.683 142.163 194.683 142.163C194.683 142.163 195.558 142.157 196.031 142.69C196.504 143.223 196.395 144.094 196.395 144.094C196.395 144.094 195.52 144.1 195.047 143.567Z" fill="#55A343"/>
<g clip-path="url(#clip1_5223_3145)">
<path d="M156.811 94.7566C156.811 94.7566 156.773 103.892 156.749 113.772C155.727 113.967 154.793 114.478 154.077 115.233C153.748 115.189 153.417 115.166 153.086 115.162C152.209 115.142 151.35 115.407 150.637 115.917C149.384 116.842 149.109 118.194 148.943 119.015C148.651 119.177 148.369 119.356 148.098 119.552L141.146 112.096C140.778 111.715 140.337 111.411 139.85 111.203C139.362 110.994 138.838 110.885 138.308 110.882C138.256 110.882 138.209 110.886 138.156 110.886C137.612 110.898 137.076 111.019 136.58 111.243C136.084 111.468 135.639 111.79 135.271 112.191L124.784 123.514C124.037 124.35 123.614 125.426 123.593 126.546V138.405C123.595 139.059 123.733 139.705 123.996 140.303C124.048 140.427 124.105 140.545 124.167 140.659H122.112C119.663 140.659 119.739 138.737 119.739 138.737C119.739 138.737 119.678 90.4763 119.739 85.5505C119.796 80.6295 121.638 81.6403 121.638 81.6403L142.574 81.2796L156.811 94.7566Z" fill="#E1EBF4"/>
<path d="M150.162 137.988L148.8 140.303H128.158C128.158 140.303 126.383 140.598 126.383 137.988V126.091L137.947 113.966L146.503 121.796C146.374 122.285 146.343 122.795 146.413 123.296C146.48 123.777 146.612 124.246 146.807 124.691C146.869 124.838 146.931 124.971 146.983 125.089L146.997 125.118C146.993 125.129 146.988 125.14 146.983 125.151C146.646 125.901 146.076 127.154 146.551 128.63C146.976 129.775 147.835 130.708 148.943 131.225C149.05 131.877 149.26 132.508 149.564 133.095L150.162 137.988Z" fill="#81D9E3"/>
<path d="M137.354 124.171C137.23 124.17 137.106 124.195 136.991 124.242C136.875 124.29 136.77 124.36 136.682 124.448C136.594 124.536 136.524 124.641 136.476 124.756C136.428 124.871 136.403 124.995 136.403 125.12C136.403 125.245 136.428 125.368 136.476 125.483C136.524 125.599 136.594 125.703 136.682 125.791C136.77 125.88 136.875 125.949 136.991 125.997C137.106 126.045 137.23 126.069 137.354 126.069H139.253C139.377 126.069 139.501 126.045 139.616 125.997C139.732 125.949 139.837 125.88 139.925 125.791C140.013 125.703 140.083 125.599 140.131 125.483C140.179 125.368 140.204 125.245 140.204 125.12C140.204 124.995 140.179 124.871 140.131 124.756C140.083 124.641 140.013 124.536 139.925 124.448C139.837 124.36 139.732 124.29 139.616 124.242C139.501 124.195 139.377 124.17 139.253 124.171H137.354Z" fill="#2D4356"/>
<path d="M125.491 91.907H139.245C139.37 91.9073 139.493 91.883 139.609 91.8354C139.724 91.7878 139.829 91.718 139.917 91.6298C140.006 91.5417 140.076 91.437 140.124 91.3217C140.171 91.2064 140.196 91.0829 140.196 90.9581C140.196 90.8333 140.171 90.7097 140.124 90.5944C140.076 90.4791 140.006 90.3744 139.917 90.2863C139.829 90.1981 139.724 90.1283 139.609 90.0807C139.493 90.0331 139.37 90.0088 139.245 90.0091H125.491C125.366 90.0088 125.242 90.0331 125.127 90.0807C125.011 90.1283 124.907 90.1981 124.818 90.2863C124.73 90.3744 124.66 90.4791 124.612 90.5944C124.564 90.7097 124.54 90.8333 124.54 90.9581C124.54 91.0829 124.564 91.2064 124.612 91.3217C124.66 91.437 124.73 91.5417 124.818 91.6298C124.907 91.718 125.011 91.7878 125.127 91.8354C125.242 91.883 125.366 91.9073 125.491 91.907Z" fill="#2D4356"/>
<path d="M125.491 88.1087H139.245C139.37 88.109 139.493 88.0847 139.609 88.0371C139.724 87.9895 139.829 87.9197 139.917 87.8315C140.006 87.7434 140.076 87.6387 140.124 87.5234C140.171 87.4081 140.196 87.2845 140.196 87.1597C140.196 87.0349 140.171 86.9114 140.124 86.7961C140.076 86.6808 140.006 86.5761 139.917 86.488C139.829 86.3998 139.724 86.3299 139.609 86.2824C139.493 86.2348 139.37 86.2105 139.245 86.2108H125.491C125.366 86.2105 125.242 86.2348 125.127 86.2824C125.011 86.3299 124.907 86.3998 124.818 86.488C124.73 86.5761 124.66 86.6808 124.612 86.7961C124.564 86.9114 124.54 87.0349 124.54 87.1597C124.54 87.2845 124.564 87.4081 124.612 87.5234C124.66 87.6387 124.73 87.7434 124.818 87.8315C124.907 87.9197 125.011 87.9895 125.127 88.0371C125.242 88.0847 125.366 88.109 125.491 88.1087Z" fill="#2D4356"/>
<path d="M125.491 95.7053H139.245C139.37 95.7055 139.493 95.6812 139.609 95.6336C139.724 95.5861 139.829 95.5162 139.917 95.4281C140.006 95.3399 140.076 95.2352 140.124 95.1199C140.171 95.0046 140.196 94.8811 140.196 94.7563C140.196 94.6315 140.171 94.5079 140.124 94.3926C140.076 94.2773 140.006 94.1726 139.917 94.0845C139.829 93.9963 139.724 93.9265 139.609 93.8789C139.493 93.8313 139.37 93.807 139.245 93.8073H125.491C125.366 93.807 125.242 93.8313 125.127 93.8789C125.011 93.9265 124.907 93.9963 124.818 94.0845C124.73 94.1726 124.66 94.2773 124.612 94.3926C124.564 94.5079 124.54 94.6315 124.54 94.7563C124.54 94.8811 124.564 95.0046 124.612 95.1199C124.66 95.2352 124.73 95.3399 124.818 95.4281C124.907 95.5162 125.011 95.5861 125.127 95.6336C125.242 95.6812 125.366 95.7055 125.491 95.7053Z" fill="#2D4356"/>
<path d="M151.116 97.6056H125.491C125.366 97.6053 125.242 97.6296 125.127 97.6772C125.011 97.7248 124.907 97.7946 124.818 97.8828C124.73 97.9709 124.66 98.0756 124.612 98.1909C124.564 98.3062 124.54 98.4297 124.54 98.5545C124.54 98.6794 124.564 98.8029 124.612 98.9182C124.66 99.0335 124.73 99.1382 124.818 99.2263C124.907 99.3145 125.011 99.3843 125.127 99.4319C125.242 99.4795 125.366 99.5038 125.491 99.5035H151.116C151.241 99.5038 151.364 99.4795 151.48 99.4319C151.595 99.3843 151.7 99.3145 151.788 99.2263C151.877 99.1382 151.947 99.0335 151.995 98.9182C152.042 98.8029 152.067 98.6794 152.067 98.5545C152.067 98.4297 152.042 98.3062 151.995 98.1909C151.947 98.0756 151.877 97.9709 151.788 97.8828C151.7 97.7946 151.595 97.7248 151.48 97.6772C151.364 97.6296 151.241 97.6053 151.116 97.6056Z" fill="#2D4356"/>
<path d="M151.116 101.404H125.491C125.366 101.404 125.242 101.428 125.127 101.475C125.011 101.523 124.907 101.593 124.818 101.681C124.73 101.769 124.66 101.874 124.612 101.989C124.564 102.104 124.54 102.228 124.54 102.353C124.54 102.478 124.564 102.601 124.612 102.716C124.66 102.832 124.73 102.936 124.818 103.025C124.907 103.113 125.011 103.183 125.127 103.23C125.242 103.278 125.366 103.302 125.491 103.302H151.116C151.241 103.302 151.364 103.278 151.48 103.23C151.595 103.183 151.7 103.113 151.788 103.025C151.877 102.936 151.947 102.832 151.995 102.716C152.042 102.601 152.067 102.478 152.067 102.353C152.067 102.228 152.042 102.104 151.995 101.989C151.947 101.874 151.877 101.769 151.788 101.681C151.7 101.593 151.595 101.523 151.48 101.475C151.364 101.428 151.241 101.404 151.116 101.404Z" fill="#2D4356"/>
<path d="M151.116 105.203H125.491C125.366 105.202 125.242 105.227 125.127 105.274C125.011 105.322 124.907 105.392 124.818 105.48C124.73 105.568 124.66 105.673 124.612 105.788C124.564 105.903 124.54 106.027 124.54 106.152C124.54 106.276 124.564 106.4 124.612 106.515C124.66 106.63 124.73 106.735 124.818 106.823C124.907 106.911 125.011 106.981 125.127 107.029C125.242 107.076 125.366 107.101 125.491 107.101H151.116C151.241 107.101 151.364 107.076 151.48 107.029C151.595 106.981 151.7 106.911 151.788 106.823C151.877 106.735 151.947 106.63 151.995 106.515C152.042 106.4 152.067 106.276 152.067 106.152C152.067 106.027 152.042 105.903 151.995 105.788C151.947 105.673 151.877 105.568 151.788 105.48C151.7 105.392 151.595 105.322 151.48 105.274C151.364 105.227 151.241 105.202 151.116 105.203Z" fill="#2D4356"/>
<path d="M151.116 110.899C151.241 110.899 151.364 110.875 151.48 110.827C151.595 110.78 151.7 110.71 151.788 110.622C151.877 110.533 151.947 110.429 151.995 110.313C152.042 110.198 152.067 110.075 152.067 109.95C152.067 109.825 152.042 109.701 151.995 109.586C151.947 109.471 151.877 109.366 151.788 109.278C151.7 109.19 151.595 109.12 151.48 109.072C151.364 109.025 151.241 109.001 151.116 109.001H125.491C125.366 109.001 125.242 109.025 125.127 109.072C125.011 109.12 124.907 109.19 124.818 109.278C124.73 109.366 124.66 109.471 124.612 109.586C124.564 109.701 124.54 109.825 124.54 109.95C124.54 110.075 124.564 110.198 124.612 110.313C124.66 110.429 124.73 110.533 124.818 110.622C124.907 110.71 125.011 110.78 125.127 110.827C125.242 110.875 125.366 110.899 125.491 110.899H151.116Z" fill="#2D4356"/>
<path d="M155.33 140.659H152.44C152.502 140.545 152.559 140.427 152.611 140.303C152.874 139.705 153.011 139.059 153.014 138.405V135.069C153.038 135.069 153.062 135.074 153.09 135.074C153.42 135.071 153.75 135.049 154.077 135.007C154.798 135.768 155.742 136.28 156.773 136.469C156.782 137.262 156.796 137.788 156.81 137.988C156.991 140.185 155.33 140.659 155.33 140.659Z" fill="#E1EBF4"/>
<path d="M140.676 133.66V139.354H135.931V133.66C135.931 133.408 136.032 133.167 136.209 132.989C136.387 132.812 136.628 132.711 136.88 132.711H139.727C139.979 132.711 140.219 132.812 140.397 132.989C140.575 133.167 140.675 133.408 140.676 133.66Z" fill="white"/>
<path opacity="0.5" d="M155.861 137.466V138.415C155.86 138.665 155.759 138.904 155.581 139.08C155.403 139.256 155.163 139.355 154.912 139.354H152.915C152.981 139.042 153.015 138.724 153.014 138.405H154.912C155.163 138.406 155.403 138.307 155.581 138.131C155.759 137.955 155.86 137.716 155.861 137.466Z" fill="#9FA5AA"/>
<path d="M154.813 93.8028H144.881C144.647 93.8027 144.424 93.7103 144.258 93.5458C144.093 93.3813 143.999 93.1581 143.998 92.9249V83.6428L154.813 93.8028Z" fill="#81D9E3"/>
<path d="M164.408 127.467C164.205 127.661 163.973 127.821 163.72 127.941C163.229 128.174 162.796 128.513 162.453 128.933C162.16 129.398 161.974 129.921 161.907 130.466C161.868 130.738 161.797 131.004 161.694 131.259C161.425 131.29 161.153 131.28 160.887 131.23C160.345 131.129 159.788 131.148 159.254 131.287C158.756 131.489 158.309 131.798 157.945 132.193C157.753 132.399 157.53 132.573 157.285 132.711C157.041 132.572 156.818 132.398 156.625 132.193C156.262 131.797 155.815 131.487 155.316 131.287C155.053 131.204 154.779 131.164 154.504 131.168C154.23 131.174 153.956 131.194 153.683 131.23C153.423 131.274 153.159 131.288 152.895 131.273C152.778 131.017 152.7 130.745 152.663 130.466C152.596 129.921 152.41 129.398 152.117 128.933C151.774 128.513 151.341 128.174 150.85 127.941C150.604 127.82 150.374 127.667 150.167 127.486C150.219 127.217 150.312 126.958 150.442 126.717C150.706 126.223 150.861 125.677 150.898 125.118C150.861 124.56 150.706 124.016 150.442 123.523C150.317 123.287 150.222 123.035 150.162 122.774C150.365 122.581 150.598 122.421 150.85 122.299C151.36 122.093 151.802 121.747 152.123 121.3C152.444 120.853 152.631 120.324 152.663 119.775C152.702 119.503 152.773 119.237 152.877 118.982C153.145 118.951 153.417 118.96 153.683 119.011C154.224 119.11 154.779 119.09 155.311 118.954C155.81 118.751 156.259 118.442 156.625 118.047C156.817 117.842 157.038 117.666 157.28 117.525C157.528 117.663 157.752 117.84 157.945 118.047C158.31 118.441 158.757 118.75 159.254 118.954C159.788 119.09 160.345 119.109 160.887 119.011C161.147 118.964 161.411 118.95 161.675 118.968C161.792 119.224 161.87 119.496 161.907 119.775C161.974 120.319 162.16 120.843 162.453 121.307C162.796 121.728 163.229 122.067 163.72 122.299C163.967 122.419 164.197 122.573 164.403 122.755C164.351 123.023 164.258 123.283 164.128 123.524C163.864 124.016 163.709 124.56 163.672 125.118C163.709 125.677 163.864 126.223 164.128 126.717C164.253 126.954 164.348 127.206 164.408 127.467Z" fill="#FFDB80"/>
<path d="M159.226 122.785L156.496 125.495L155.286 124.477C155.094 124.315 154.845 124.236 154.594 124.257C154.344 124.279 154.112 124.399 153.949 124.591C153.787 124.784 153.708 125.033 153.73 125.283C153.751 125.534 153.871 125.766 154.064 125.928L155.937 127.506C156.118 127.659 156.35 127.738 156.587 127.729C156.824 127.719 157.049 127.621 157.217 127.454L160.564 124.133C160.742 123.955 160.842 123.714 160.843 123.463C160.844 123.211 160.745 122.97 160.567 122.791C160.39 122.613 160.15 122.512 159.898 122.511C159.647 122.51 159.405 122.608 159.226 122.785Z" fill="#2D4356"/>
<path opacity="0.5" d="M123.693 139.354H121.695C121.444 139.355 121.204 139.256 121.026 139.08C120.848 138.904 120.748 138.665 120.746 138.415V137.466C120.748 137.716 120.848 137.955 121.026 138.131C121.204 138.307 121.444 138.406 121.695 138.405H123.593C123.592 138.724 123.626 139.042 123.693 139.354Z" fill="#9FA5AA"/>
<path opacity="0.25" d="M154.813 93.8028H144.881C144.647 93.8027 144.424 93.7103 144.258 93.5458C144.093 93.3814 143.999 93.1581 143.998 92.9249V91.9758C143.999 92.209 144.093 92.4323 144.258 92.5968C144.424 92.7612 144.647 92.8536 144.881 92.8537H153.802L154.813 93.8028Z" fill="#0F423C"/>
<path opacity="0.5" d="M142.1 82.4138V83.3628H121.671C121.548 83.3639 121.427 83.3893 121.314 83.4373C121.201 83.4854 121.098 83.5553 121.012 83.643C120.926 83.7308 120.859 83.8346 120.813 83.9485C120.767 84.0625 120.744 84.1844 120.746 84.3072V83.3581C120.744 83.2353 120.767 83.1134 120.813 82.9995C120.859 82.8855 120.926 82.7817 121.012 82.694C121.098 82.6062 121.201 82.5363 121.314 82.4882C121.427 82.4402 121.548 82.4149 121.671 82.4138H142.1Z" fill="white"/>
<path opacity="0.5" d="M164.403 122.755C164.353 123.014 164.265 123.266 164.142 123.5C164.005 123.41 163.843 123.319 163.72 123.248C163.229 123.016 162.796 122.677 162.453 122.256C162.16 121.792 161.974 121.269 161.907 120.724C161.87 120.445 161.792 120.173 161.675 119.917C161.411 119.899 161.147 119.913 160.887 119.96C160.345 120.059 159.788 120.039 159.254 119.903C158.757 119.699 158.31 119.39 157.945 118.996C157.752 118.789 157.528 118.612 157.28 118.474C157.038 118.615 156.817 118.791 156.625 118.996C156.259 119.391 155.81 119.7 155.311 119.903C154.779 120.039 154.224 120.059 153.683 119.96C153.417 119.909 153.145 119.9 152.877 119.931C152.773 120.186 152.702 120.452 152.663 120.724C152.631 121.273 152.444 121.802 152.123 122.249C151.802 122.696 151.36 123.042 150.85 123.248C150.732 123.315 150.57 123.41 150.433 123.5C150.311 123.271 150.22 123.027 150.162 122.774C150.365 122.581 150.598 122.421 150.85 122.299C151.36 122.093 151.802 121.747 152.123 121.3C152.444 120.853 152.631 120.324 152.663 119.775C152.702 119.503 152.773 119.237 152.877 118.982C153.145 118.951 153.417 118.96 153.683 119.011C154.224 119.11 154.779 119.09 155.311 118.954C155.81 118.751 156.259 118.442 156.625 118.047C156.817 117.842 157.038 117.666 157.28 117.525C157.528 117.663 157.752 117.84 157.945 118.047C158.31 118.441 158.757 118.75 159.254 118.954C159.788 119.09 160.345 119.109 160.887 119.011C161.147 118.964 161.411 118.95 161.675 118.968C161.792 119.224 161.87 119.496 161.907 119.775C161.974 120.319 162.16 120.843 162.453 121.307C162.796 121.728 163.229 122.067 163.72 122.299C163.967 122.419 164.197 122.573 164.403 122.755Z" fill="#F9EDD2"/>
<path opacity="0.45" d="M164.408 127.467C164.206 127.661 163.973 127.821 163.72 127.942C163.229 128.174 162.796 128.513 162.453 128.933C162.161 129.398 161.974 129.921 161.907 130.466C161.869 130.738 161.797 131.004 161.694 131.259C161.425 131.29 161.153 131.28 160.887 131.23C160.345 131.129 159.788 131.148 159.255 131.287C158.756 131.489 158.309 131.798 157.945 132.193C157.753 132.399 157.53 132.573 157.285 132.711C157.041 132.572 156.818 132.398 156.626 132.193C156.262 131.797 155.815 131.487 155.316 131.287C155.053 131.204 154.779 131.164 154.504 131.168C154.23 131.174 153.956 131.194 153.683 131.23C153.423 131.274 153.159 131.288 152.896 131.273C152.778 131.017 152.7 130.745 152.663 130.466C152.596 129.921 152.41 129.398 152.117 128.933C151.774 128.513 151.341 128.174 150.85 127.942C150.604 127.82 150.374 127.667 150.167 127.486C150.217 127.226 150.305 126.975 150.428 126.741C150.566 126.831 150.732 126.921 150.85 126.992C151.341 127.225 151.774 127.564 152.117 127.984C152.41 128.449 152.596 128.972 152.663 129.517C152.7 129.796 152.778 130.068 152.896 130.324C153.159 130.339 153.423 130.325 153.683 130.281C153.956 130.245 154.23 130.225 154.504 130.219C154.779 130.215 155.053 130.255 155.316 130.338C155.815 130.538 156.262 130.848 156.626 131.244C156.818 131.449 157.041 131.623 157.285 131.762C157.53 131.624 157.753 131.45 157.945 131.244C158.309 130.849 158.756 130.54 159.255 130.338C159.788 130.199 160.345 130.18 160.887 130.281C161.153 130.331 161.425 130.341 161.694 130.309C161.797 130.055 161.869 129.789 161.907 129.517C161.974 128.972 162.161 128.449 162.453 127.984C162.796 127.564 163.229 127.225 163.72 126.992C163.843 126.926 164.005 126.831 164.138 126.741C164.259 126.97 164.35 127.214 164.408 127.467Z" fill="#AD9359"/>
<path opacity="0.3" d="M146.807 124.691L138.422 115.694C138.375 115.652 138.314 115.63 138.251 115.632C138.214 115.632 138.177 115.64 138.144 115.656C138.11 115.671 138.08 115.694 138.056 115.722L127.569 127.04C127.472 127.176 127.41 127.334 127.389 127.5V126.551C127.41 126.385 127.472 126.227 127.569 126.091L138.056 114.773C138.08 114.745 138.11 114.722 138.144 114.706C138.177 114.691 138.214 114.683 138.251 114.683C138.314 114.681 138.375 114.703 138.422 114.744L146.394 123.286C146.399 123.291 146.408 123.291 146.413 123.296C146.48 123.777 146.612 124.246 146.807 124.691Z" fill="#E8FBFC"/>
<path opacity="0.25" d="M149.218 137.437V138.386C149.22 138.64 149.122 138.885 148.944 139.067C148.766 139.248 148.523 139.352 148.269 139.354H142.574V138.405H148.269C148.523 138.403 148.766 138.299 148.944 138.118C149.122 137.936 149.22 137.691 149.218 137.437Z" fill="#0F423C"/>
<path opacity="0.25" d="M134.032 138.405V139.354H128.338C128.084 139.352 127.841 139.248 127.663 139.067C127.485 138.885 127.386 138.64 127.389 138.386V137.437C127.386 137.691 127.485 137.936 127.663 138.118C127.841 138.299 128.084 138.403 128.338 138.405H134.032Z" fill="#0F423C"/>
<path d="M150.637 134.303C149.963 133.799 149.466 133.094 149.218 132.291V138.369C149.22 138.624 149.122 138.868 148.944 139.05C148.766 139.231 148.523 139.335 148.269 139.338H142.574V133.643C142.574 132.888 142.274 132.164 141.74 131.63C141.206 131.097 140.482 130.796 139.727 130.796H136.88C136.125 130.796 135.401 131.097 134.867 131.63C134.333 132.164 134.033 132.888 134.033 133.643V139.338H128.338C128.084 139.335 127.841 139.231 127.663 139.05C127.485 138.868 127.387 138.624 127.389 138.369V126.534C127.41 126.368 127.472 126.21 127.569 126.074L138.057 114.756C138.081 114.728 138.11 114.705 138.144 114.69C138.178 114.674 138.214 114.666 138.251 114.666C138.314 114.664 138.375 114.686 138.422 114.728L146.413 123.288C146.328 122.719 146.375 122.138 146.551 121.59C146.622 121.369 146.715 121.157 146.826 120.954L139.793 113.413C139.591 113.2 139.346 113.033 139.075 112.922C138.803 112.81 138.511 112.758 138.218 112.768C137.925 112.772 137.637 112.836 137.37 112.956C137.103 113.076 136.864 113.249 136.666 113.465L126.174 124.788C125.75 125.273 125.509 125.89 125.491 126.534V138.369C125.489 139.127 125.788 139.854 126.322 140.391C126.855 140.929 127.581 141.232 128.338 141.236H148.269C149.026 141.232 149.751 140.929 150.285 140.391C150.819 139.854 151.118 139.127 151.116 138.369V134.602C150.948 134.515 150.788 134.415 150.637 134.303ZM140.676 139.338H135.931V133.643C135.931 133.392 136.032 133.151 136.209 132.973C136.387 132.795 136.628 132.695 136.88 132.694H139.727C139.979 132.695 140.22 132.795 140.397 132.973C140.575 133.151 140.675 133.392 140.676 133.643V139.338Z" fill="black"/>
<path d="M155.861 136.221V138.413C155.86 138.664 155.759 138.904 155.581 139.08C155.403 139.257 155.163 139.355 154.912 139.355H152.915C152.772 140.043 152.476 140.692 152.051 141.252H154.912C155.666 141.253 156.389 140.954 156.923 140.422C157.456 139.889 157.757 139.167 157.759 138.413V136.47C157.602 136.492 157.444 136.504 157.285 136.506C156.797 136.504 156.313 136.408 155.861 136.221Z" fill="#2D4356"/>
<path d="M156.863 93.1242L144.264 81.2891C144.012 81.0282 143.708 80.8243 143.37 80.6908C143.033 80.5574 142.671 80.4977 142.309 80.5156H121.671C120.92 80.5193 120.201 80.8205 119.672 81.3533C119.143 81.8862 118.846 82.6071 118.848 83.3581V138.415C118.849 139.168 119.15 139.891 119.684 140.423C120.218 140.955 120.941 141.253 121.695 141.252H124.556C124.13 140.693 123.834 140.044 123.693 139.354H121.695C121.445 139.355 121.204 139.256 121.027 139.08C120.849 138.904 120.748 138.665 120.746 138.415V83.3581C120.744 83.2353 120.767 83.1134 120.813 82.9995C120.859 82.8855 120.927 82.7817 121.013 82.694C121.099 82.6062 121.201 82.5363 121.314 82.4882C121.427 82.4402 121.548 82.4149 121.671 82.4138H142.1V92.9249C142.102 93.6616 142.395 94.3677 142.916 94.8882C143.438 95.4087 144.144 95.701 144.881 95.701H155.862V114.014C156.46 113.756 157.117 113.671 157.76 113.767V95.1932C157.759 94.8055 157.679 94.4222 157.525 94.0664C157.371 93.7107 157.145 93.3901 156.863 93.1242ZM144.881 93.8028C144.648 93.8027 144.424 93.7103 144.259 93.5459C144.093 93.3814 144 93.1581 143.998 92.9249V83.6428L154.813 93.8028H144.881Z" fill="black"/>
<path d="M165.57 125.118C165.626 124.835 165.722 124.562 165.855 124.306C166.125 123.709 166.462 122.968 166.216 122.19C165.955 121.383 165.233 120.975 164.654 120.648C164.413 120.531 164.19 120.38 163.99 120.202C163.878 119.948 163.803 119.679 163.767 119.404C163.639 118.754 163.478 117.943 162.808 117.445C162.135 116.951 161.323 117.046 160.668 117.122C160.398 117.175 160.121 117.184 159.847 117.15C159.625 117.017 159.422 116.854 159.245 116.666C158.751 116.201 158.144 115.632 157.285 115.632C156.426 115.632 155.818 116.201 155.325 116.666C155.147 116.854 154.944 117.017 154.722 117.15C154.449 117.184 154.172 117.175 153.901 117.122C153.246 117.046 152.435 116.951 151.761 117.445C151.092 117.938 150.931 118.754 150.802 119.404C150.765 119.679 150.69 119.948 150.579 120.202C150.38 120.38 150.156 120.53 149.915 120.648C149.336 120.975 148.615 121.383 148.359 122.19C148.107 122.968 148.444 123.709 148.714 124.306C148.847 124.562 148.943 124.835 148.999 125.118C148.944 125.402 148.848 125.677 148.714 125.934C148.444 126.527 148.107 127.272 148.359 128.051C148.615 128.857 149.336 129.265 149.915 129.593C150.156 129.71 150.38 129.86 150.579 130.039C150.691 130.293 150.766 130.561 150.802 130.836C150.931 131.486 151.092 132.298 151.761 132.791C152.435 133.29 153.246 133.19 153.901 133.114C154.172 133.065 154.449 133.057 154.722 133.09C154.944 133.223 155.147 133.386 155.325 133.574C155.818 134.035 156.426 134.609 157.285 134.609C158.144 134.609 158.751 134.035 159.245 133.574C159.424 133.386 159.626 133.222 159.847 133.086C160.121 133.056 160.397 133.066 160.668 133.114C161.323 133.195 162.135 133.29 162.808 132.791C163.478 132.298 163.639 131.486 163.767 130.836C163.803 130.561 163.878 130.293 163.99 130.039C164.19 129.86 164.413 129.71 164.654 129.593C165.233 129.265 165.955 128.857 166.216 128.051C166.462 127.272 166.125 126.527 165.855 125.934C165.721 125.677 165.625 125.402 165.57 125.118ZM163.72 127.941C163.229 128.174 162.796 128.513 162.453 128.933C162.16 129.398 161.974 129.921 161.907 130.466C161.868 130.738 161.796 131.004 161.693 131.259C161.424 131.29 161.152 131.28 160.887 131.23C160.345 131.129 159.787 131.148 159.254 131.287C158.756 131.489 158.309 131.798 157.944 132.193C157.753 132.399 157.53 132.573 157.285 132.711C157.04 132.572 156.818 132.398 156.625 132.193C156.262 131.797 155.814 131.487 155.315 131.287C155.053 131.204 154.779 131.164 154.504 131.168C154.229 131.174 153.955 131.194 153.683 131.23C153.423 131.274 153.159 131.288 152.895 131.273C152.778 131.017 152.699 130.745 152.663 130.466C152.596 129.921 152.409 129.398 152.117 128.933C151.774 128.513 151.341 128.174 150.85 127.941C150.603 127.82 150.374 127.667 150.167 127.486C150.219 127.217 150.312 126.958 150.442 126.717C150.706 126.223 150.861 125.677 150.897 125.118C150.861 124.56 150.706 124.016 150.442 123.523C150.316 123.287 150.222 123.035 150.162 122.774C150.365 122.581 150.597 122.421 150.85 122.299C151.36 122.093 151.801 121.747 152.122 121.3C152.443 120.853 152.631 120.324 152.663 119.775C152.701 119.503 152.773 119.237 152.876 118.982C153.145 118.951 153.417 118.96 153.683 119.011C154.223 119.11 154.779 119.09 155.311 118.954C155.81 118.751 156.259 118.442 156.625 118.047C156.817 117.842 157.037 117.666 157.28 117.525C157.527 117.663 157.752 117.84 157.944 118.047C158.31 118.441 158.757 118.75 159.254 118.954C159.788 119.09 160.345 119.109 160.887 119.011C161.146 118.964 161.411 118.95 161.674 118.968C161.792 119.224 161.87 119.496 161.907 119.775C161.974 120.319 162.16 120.843 162.453 121.307C162.796 121.728 163.229 122.067 163.72 122.299C163.967 122.419 164.197 122.573 164.403 122.755C164.35 123.023 164.258 123.283 164.128 123.524C163.864 124.016 163.708 124.56 163.672 125.118C163.708 125.677 163.864 126.223 164.128 126.717C164.253 126.954 164.347 127.206 164.408 127.467C164.205 127.661 163.973 127.821 163.72 127.941Z" fill="black"/>
</g>
</g>
<defs>
<clipPath id="clip0_5223_3145">
<rect width="269.963" height="205.003" fill="white" transform="translate(0 0.365601)"/>
</clipPath>
<clipPath id="clip1_5223_3145">
<rect width="60.7416" height="60.7416" fill="white" transform="translate(112.204 80.5108)"/>
</clipPath>
</defs>
</svg>
