<svg width="37" height="37" viewBox="0 0 37 37" fill="none" xmlns="http://www.w3.org/2000/svg">
<rect width="37" height="37" rx="18.5" fill="#FF0169"/>
<path d="M22.6026 22.5373L23.4207 15.5137C23.4331 15.3827 23.4194 15.2504 23.3806 15.1247C23.3079 14.8717 23.1385 14.6575 22.909 14.5287C22.7955 14.462 22.6699 14.4183 22.5395 14.4002L15.5159 13.5821C15.385 13.5669 15.2523 13.5776 15.1254 13.6136C14.9986 13.6496 14.8801 13.7103 14.7767 13.7921C14.5679 13.9573 14.4332 14.1988 14.4024 14.4633C14.3716 14.7278 14.4471 14.9937 14.6124 15.2026C14.7776 15.4114 15.0191 15.546 15.2836 15.5768L19.913 16.1089L13.9611 20.8189C13.7531 20.9835 13.6191 21.2239 13.5884 21.4874C13.5577 21.7508 13.6329 22.0156 13.7975 22.2236C13.9621 22.4316 14.2025 22.5657 14.466 22.5963C14.7294 22.627 14.9942 22.5518 15.2022 22.3872L21.1541 17.6773L20.6079 22.305C20.5921 22.436 20.6024 22.5689 20.6382 22.696C20.674 22.8231 20.7346 22.9418 20.8165 23.0453C20.8984 23.1488 21.0001 23.2351 21.1155 23.2992C21.2309 23.3632 21.3579 23.4038 21.4891 23.4185C21.6201 23.4343 21.753 23.424 21.8801 23.3882C22.0072 23.3524 22.1259 23.2918 22.2294 23.2099C22.3329 23.128 22.4192 23.0263 22.4832 22.9109C22.5473 22.7955 22.5879 22.6685 22.6026 22.5373Z" fill="white"/>
</svg>
