<svg width="270" height="206" viewBox="0 0 270 206" fill="none" xmlns="http://www.w3.org/2000/svg">
<g clip-path="url(#clip0_5223_3300)">
<path d="M269.963 0.209229H0V205.212H269.963V0.209229Z" fill="white"/>
<path d="M38.5562 157.022C58.5923 183.835 66.2275 160.008 108.694 168.046C156.411 177.078 177.612 229.361 233.058 156.834L136.305 147.315L38.5562 157.022Z" fill="#FFB200"/>
<path d="M38.5553 157.022C38.5553 157.022 10.6951 130.33 10.5137 112.424C10.2348 84.8826 39.1716 75.4543 52.8814 58.8016C66.5912 42.1488 59.5482 15.4658 87.5906 9.67885C115.633 3.89191 130.862 26.2766 158.3 30.99C185.738 35.7036 201.804 13.5491 220.387 23.6642C232.708 30.3707 234.296 52.2042 241.222 66.3164C247.771 79.6605 254.582 84.4246 256.397 106.704C258.212 128.983 233.057 156.834 233.057 156.834C221.59 156.91 206.312 154.63 193.962 154.63C137.394 154.63 75.9968 156.363 46.8638 156.49C45.438 156.496 39.8326 157.044 38.5553 157.022Z" fill="#FFD6E7"/>
<path d="M75.7092 101.944C75.2215 102.532 74.2843 102.556 74.2843 102.556C74.2843 102.556 74.1379 101.628 74.6253 101.04C75.113 100.452 76.0502 100.428 76.0502 100.428C76.0502 100.428 76.1969 101.357 75.7092 101.944Z" fill="#55A343"/>
<path d="M44.5686 107.283C45.2289 107.665 45.4115 108.587 45.4115 108.587C45.4115 108.587 44.5237 108.89 43.8634 108.507C43.2031 108.125 43.0205 107.203 43.0205 107.203C43.0205 107.203 43.9086 106.901 44.5686 107.283Z" fill="#55A343"/>
<path d="M67.6933 99.1837C68.7979 99.1837 69.7908 99.7601 70.3563 100.651C70.8024 100.405 71.3076 100.272 71.8323 100.272C73.0581 100.272 74.1477 101.018 74.6303 102.101C74.7327 102.09 74.8357 102.085 74.939 102.085C75.9741 102.085 76.9351 102.614 77.5044 103.453C77.7138 103.413 77.927 103.393 78.1427 103.393C80.0433 103.393 81.5898 104.944 81.5898 106.85C81.5898 107.076 81.5681 107.298 81.5248 107.517C82.7442 108.024 83.584 109.229 83.584 110.612C83.584 112.461 82.0842 113.964 80.2406 113.964C79.7179 113.964 79.2073 113.841 78.7467 113.609C77.9304 114.663 76.6772 115.291 75.3129 115.291C74.4908 115.291 73.7064 115.064 73.0262 114.641C72.4583 115.513 71.4751 116.077 70.3912 116.077C69.4049 116.077 68.5063 115.625 67.9219 114.876C67.1987 115.264 66.3959 115.466 65.5617 115.466C64.6212 115.466 63.722 115.21 62.931 114.721C62.2812 115.115 61.5305 115.328 60.7651 115.328C58.4588 115.328 56.582 113.446 56.582 111.133C56.582 109.536 57.5011 108.108 58.86 107.405C58.5118 106.873 58.3196 106.244 58.3196 105.584C58.3196 103.749 59.8086 102.256 61.6384 102.256C62.3252 102.256 62.9846 102.468 63.5359 102.854C63.8302 102.604 64.1706 102.415 64.5384 102.298C64.5649 100.576 65.9699 99.1837 67.6933 99.1837Z" fill="#55A343"/>
<path d="M55.0139 99.1837C56.2276 99.1837 57.3184 99.8168 57.9392 100.796C58.4294 100.525 58.9842 100.379 59.5608 100.379C60.9074 100.379 62.1045 101.198 62.6347 102.388C62.7473 102.376 62.8603 102.371 62.9739 102.371C64.111 102.371 65.1666 102.952 65.792 103.873C66.0221 103.83 66.2562 103.808 66.4933 103.808C68.5812 103.808 70.2802 105.511 70.2802 107.605C70.2802 107.853 70.2564 108.098 70.2088 108.338C71.5484 108.895 72.4711 110.219 72.4711 111.738C72.4711 113.769 70.8233 115.421 68.798 115.421C68.2239 115.421 67.663 115.286 67.1569 115.031C66.2601 116.188 64.8834 116.878 63.3845 116.878C62.4813 116.878 61.6195 116.63 60.8724 116.165C60.2485 117.122 59.1683 117.742 57.9778 117.742C56.8945 117.742 55.9071 117.246 55.2651 116.423C54.4704 116.849 53.5887 117.071 52.672 117.071C51.6388 117.071 50.651 116.79 49.7819 116.253C49.068 116.686 48.2432 116.919 47.4027 116.919C44.869 116.919 42.8076 114.852 42.8076 112.311C42.8076 110.557 43.8171 108.989 45.3103 108.216C44.9277 107.631 44.7166 106.94 44.7166 106.215C44.7166 104.199 46.3523 102.559 48.3628 102.559C49.1174 102.559 49.8419 102.792 50.4471 103.216C50.7703 102.942 51.1444 102.734 51.5484 102.606C51.5773 100.713 53.1209 99.1837 55.0139 99.1837Z" fill="#55A343"/>
<path d="M48.2031 114.198C50.5395 114.198 52.5883 115.66 53.4368 117.738C54.2891 116.958 55.4097 116.51 56.6107 116.51C59.2152 116.51 61.3345 118.635 61.3345 121.247C61.3345 121.738 61.2598 122.219 61.1152 122.678C63.2971 122.958 64.9891 124.832 64.9891 127.096C64.9891 129.551 62.997 131.549 60.5482 131.549C59.4192 131.549 58.3633 131.128 57.5572 130.386C56.4227 132.098 54.5044 133.154 52.3994 133.154C50.6486 133.154 49.0038 132.417 47.8389 131.146C46.9105 132.02 45.6754 132.523 44.3837 132.523C41.5999 132.523 39.3355 130.252 39.3355 127.46C39.3355 126.781 39.4722 126.113 39.7355 125.491C38.6637 124.802 37.9868 123.601 37.9868 122.289C37.9868 120.189 39.6903 118.481 41.7843 118.481C42.0933 118.481 42.4003 118.519 42.6985 118.594C43.2718 116.059 45.5175 114.198 48.2031 114.198Z" fill="#448F35"/>
<path d="M67.2414 110.808C68.5169 110.808 69.6628 111.395 70.4219 112.315C71.2955 111.737 72.3324 111.413 73.4154 111.413C76.3196 111.413 78.6994 113.709 78.8437 116.586C81.5055 116.876 83.584 119.144 83.584 121.889C83.584 124.805 81.2371 127.183 78.3373 127.222C77.5342 128.612 76.0422 129.509 74.3763 129.509C73.015 129.509 71.7787 128.919 70.9331 127.953C70.4156 128.213 69.8354 128.355 69.2314 128.355C68.1009 128.355 67.0471 127.843 66.338 127.006C66.1768 127.023 66.0145 127.031 65.8521 127.031C64.1519 127.031 62.6397 126.136 61.7796 124.779C61.3576 124.936 60.9036 125.019 60.4361 125.019C58.3112 125.019 56.582 123.285 56.582 121.154C56.582 119.762 57.3023 118.542 58.4072 117.862C58.3813 117.671 58.3681 117.478 58.3681 117.285C58.3681 114.901 60.3024 112.962 62.6794 112.962C62.9807 112.962 63.2786 112.993 63.5693 113.055C64.2558 111.722 65.644 110.808 67.2414 110.808Z" fill="#448F35"/>
<path d="M76.6862 136.758C74.7525 137.63 72.5351 137.079 71.21 135.552C70.9762 135.732 70.721 135.886 70.4481 136.009C68.5114 136.882 66.2271 136.013 65.3559 134.071C64.4848 132.128 65.3517 129.838 67.2884 128.964C67.9523 128.665 68.6738 128.563 69.376 128.657C70.1291 127.308 71.2865 126.241 72.7189 125.595C73.9461 125.041 75.2728 124.844 76.5931 125.013C76.9618 124.693 77.3733 124.43 77.8225 124.228C78.0577 124.122 78.2999 124.034 78.5473 123.965C78.8934 123.24 79.4859 122.65 80.2306 122.314C81.9537 121.537 83.9865 122.311 84.7613 124.038C85.4872 125.657 84.8564 127.548 83.3566 128.42C83.7358 130.266 82.8032 132.2 81.0186 133.005C80.4957 133.241 79.9324 133.361 79.3678 133.365C79.0799 134.833 78.1029 136.119 76.6862 136.758Z" fill="#448F35"/>
<path d="M50.3638 125.267C60.3635 142.834 61.0756 135.901 60.6397 154.124C60.6349 154.333 60.8024 154.507 61.0105 154.509C63.7614 154.53 64.0175 153.449 65.5014 154.189C65.7481 154.312 66.0385 154.132 66.0397 153.856C66.1382 130.766 61.4931 133.459 80.4264 123.531L79.7495 122.222L66.701 127.155L72.9565 115.401L71.0349 115.94C71.7006 115.21 67.8547 120.228 64.6359 123.44L58.0572 114.243L56.7407 115.766C63.5427 125.907 63.5427 125.907 60.8403 135.225L51.1837 124.256L50.3638 125.267Z" fill="#794F30"/>
<path d="M65.8848 127.674L66.7011 127.154L72.9567 115.401L72.1159 115.636L65.8848 127.674Z" fill="#71492C"/>
<path d="M64.6356 123.439L58.0568 114.243L57.6655 114.695C63.227 122.47 63.0788 122.012 64.6356 123.439Z" fill="#71492C"/>
<path d="M60.8402 135.224L51.1836 124.255L50.8408 124.678C58.0465 132.863 59.4238 134.255 60.8402 135.224Z" fill="#71492C"/>
<path d="M60.9131 154.494C60.9444 154.503 60.9766 154.509 61.0107 154.509C62.7494 154.522 63.4914 154.095 64.1767 153.966C63.2616 153.775 62.7302 154.388 60.9131 154.494Z" fill="#71492C"/>
<path d="M80.4258 123.531L79.7489 122.222L79.151 122.448L79.711 123.531C60.778 133.458 65.4231 130.766 65.3243 153.856C65.324 153.941 65.2939 154.015 65.2484 154.076C65.3288 154.108 65.4126 154.145 65.5011 154.189C65.7479 154.312 66.0383 154.132 66.0395 153.856C66.138 130.766 61.4928 133.458 80.4258 123.531Z" fill="#71492C"/>
<path d="M87.0403 113.146C88.767 115.239 88.6447 118.264 86.8634 120.212C87.3993 120.475 87.8792 120.85 88.2666 121.319C89.7614 123.131 89.5074 125.824 87.7006 127.324C85.8934 128.823 83.2073 128.568 81.7125 126.756C81.0805 125.99 80.7419 125.042 80.7362 124.067C78.7107 123.705 76.899 122.649 75.5726 121.041C74.4641 119.697 73.7947 118.089 73.6215 116.364C73.0302 116.018 72.5105 115.575 72.0719 115.043C71.802 114.716 71.5689 114.361 71.3758 113.984C70.3868 113.905 69.4602 113.43 68.8203 112.654C67.5211 111.08 67.7419 108.739 69.3123 107.436C70.8826 106.133 73.2169 106.354 74.5162 107.929C74.5638 107.987 74.6096 108.046 74.6533 108.106C76.5884 106.76 79.271 107.103 80.7995 108.956C81.3565 109.631 81.7038 110.452 81.8119 111.311C83.7266 110.911 85.7558 111.589 87.0403 113.146Z" fill="#5CB248"/>
<path d="M41.2042 110.724C42.9499 108.63 45.9882 108.267 48.1704 109.818C47.558 108.403 47.742 106.704 48.7958 105.44C50.2827 103.657 52.9294 103.42 54.7076 104.911C55.3758 105.471 55.8258 106.196 56.049 106.976C56.1629 106.776 56.2924 106.582 56.4452 106.399C57.826 104.743 60.2839 104.523 61.9353 105.908C63.5867 107.292 63.806 109.757 62.4251 111.413C61.5244 112.493 60.1661 112.958 58.8717 112.769C59.917 114.778 59.7248 117.303 58.1854 119.149C56.9 120.691 54.9826 121.389 53.1294 121.184C53.4873 122.56 53.2026 124.082 52.2236 125.256C50.615 127.186 47.7511 127.442 45.827 125.829C45.1378 125.251 44.6667 124.51 44.4145 123.711C43.2749 124.387 41.7895 124.312 40.7159 123.412C39.3537 122.27 39.1726 120.237 40.3116 118.871C40.6945 118.411 41.1786 118.09 41.703 117.903C39.6522 116.04 39.413 112.872 41.2042 110.724Z" fill="#5CB248"/>
<path d="M54.9833 102.801C57.5471 101.886 60.3486 103.12 61.4434 105.568C61.6319 104.038 62.6513 102.667 64.1988 102.115C66.3825 101.336 68.7828 102.48 69.5597 104.67C69.8516 105.493 69.8724 106.346 69.6696 107.132C69.8691 107.018 70.079 106.916 70.3031 106.836C72.3311 106.113 74.56 107.175 75.2814 109.209C76.0029 111.242 74.9438 113.478 72.9155 114.201C71.5928 114.673 70.1872 114.381 69.1675 113.56C69.0509 115.822 67.6064 117.9 65.3456 118.707C63.4575 119.38 61.4524 119.005 59.9601 117.884C59.5715 119.252 58.5554 120.419 57.1172 120.932C54.7543 121.775 52.1573 120.537 51.3169 118.168C51.0156 117.319 50.9849 116.441 51.1726 115.624C49.8486 115.626 48.6066 114.805 48.1376 113.483C47.5423 111.805 48.4162 109.962 50.0893 109.365C50.6517 109.164 51.2316 109.133 51.7778 109.24C50.9542 106.59 52.3525 103.739 54.9833 102.801Z" fill="#5CB248"/>
<path d="M67.8894 122.6C65.302 121.894 63.7756 119.218 64.4799 116.623C64.5601 116.328 64.6688 116.048 64.7968 115.782C63.9504 116.334 62.8843 116.538 61.8335 116.251C59.8773 115.717 58.7232 113.694 59.2558 111.732C59.7884 109.771 61.8058 108.613 63.7621 109.147C64.8658 109.449 65.7138 110.224 66.1479 111.195C68.0261 110.098 70.3237 109.726 72.5863 110.344C74.4079 110.841 75.9229 111.904 77.0007 113.29C77.7412 113.167 78.5181 113.195 79.2895 113.405C79.8417 113.556 80.349 113.789 80.8048 114.086C81.55 113.469 82.5706 113.211 83.5735 113.485C85.2143 113.933 86.1822 115.629 85.7355 117.275C85.2887 118.92 83.5967 119.891 81.9558 119.443C81.572 119.338 81.2271 119.163 80.9265 118.938C80.9039 119.149 80.8692 119.361 80.812 119.573C80.2279 121.725 78.015 122.994 75.8695 122.408C74.7351 122.099 73.8503 121.33 73.3512 120.359C72.2715 122.212 70.0544 123.191 67.8894 122.6Z" fill="#5CB248"/>
<path d="M56.0815 110.575C56.3695 111.283 55.9502 112.124 55.9502 112.124C55.9502 112.124 55.0639 111.817 54.7763 111.109C54.4883 110.401 54.9079 109.56 54.9079 109.56C54.9079 109.56 55.7935 109.867 56.0815 110.575Z" fill="#55A343"/>
<path d="M57.5267 112.186C56.8335 112.504 55.978 112.119 55.978 112.119C55.978 112.119 56.2467 111.218 56.9399 110.9C57.633 110.582 58.4886 110.967 58.4886 110.967C58.4886 110.967 58.2199 111.867 57.5267 112.186Z" fill="#55A343"/>
<path d="M75.4023 114.489C76.0521 114.889 76.2099 115.816 76.2099 115.816C76.2099 115.816 75.3143 116.094 74.6646 115.694C74.0148 115.294 73.8569 114.367 73.8569 114.367C73.8569 114.367 74.7525 114.089 75.4023 114.489Z" fill="#55A343"/>
<path d="M77.5179 114.93C77.1467 115.598 76.2301 115.795 76.2301 115.795C76.2301 115.795 75.9153 114.91 76.2864 114.242C76.6575 113.574 77.5742 113.377 77.5742 113.377C77.5742 113.377 77.889 114.262 77.5179 114.93Z" fill="#55A343"/>
<path d="M46.3627 121.858C47.0125 122.258 47.1704 123.185 47.1704 123.185C47.1704 123.185 46.2748 123.463 45.625 123.063C44.9752 122.663 44.8174 121.736 44.8174 121.736C44.8174 121.736 45.713 121.458 46.3627 121.858Z" fill="#55A343"/>
<path d="M48.4783 122.299C48.1072 122.967 47.1905 123.164 47.1905 123.164C47.1905 123.164 46.8757 122.279 47.2469 121.611C47.618 120.943 48.5347 120.746 48.5347 120.746C48.5347 120.746 48.8494 121.631 48.4783 122.299Z" fill="#55A343"/>
<path d="M87.9456 120.624C87.184 120.663 86.5312 119.988 86.5312 119.988C86.5312 119.988 87.1129 119.251 87.8745 119.212C88.636 119.174 89.2888 119.848 89.2888 119.848C89.2888 119.848 88.7071 120.586 87.9456 120.624Z" fill="#5CB248"/>
<path d="M52.983 122.453C52.7333 121.731 53.1969 120.914 53.1969 120.914C53.1969 120.914 54.0654 121.268 54.3151 121.99C54.5649 122.712 54.1012 123.529 54.1012 123.529C54.1012 123.529 53.2331 123.175 52.983 122.453Z" fill="#5CB248"/>
<path d="M72.4906 121.584C72.5536 120.822 73.307 120.262 73.307 120.262C73.307 120.262 73.9586 120.938 73.8956 121.7C73.8326 122.462 73.0792 123.021 73.0792 123.021C73.0792 123.021 72.4277 122.346 72.4906 121.584Z" fill="#5CB248"/>
<path d="M71.0449 106.438C70.5738 107.039 69.6378 107.09 69.6378 107.09C69.6378 107.09 69.4652 106.166 69.9363 105.564C70.4075 104.963 71.3434 104.913 71.3434 104.913C71.3434 104.913 71.516 105.837 71.0449 106.438Z" fill="#5CB248"/>
<path d="M48.156 108.432C48.5587 109.081 48.2867 109.981 48.2867 109.981C48.2867 109.981 47.3616 109.828 46.9588 109.179C46.5561 108.53 46.8281 107.63 46.8281 107.63C46.8281 107.63 47.7532 107.783 48.156 108.432Z" fill="#5CB248"/>
<path d="M178.835 121.69C179.283 120.981 180.299 120.823 180.299 120.823C180.299 120.823 180.589 121.812 180.141 122.521C179.693 123.229 178.677 123.388 178.677 123.388C178.677 123.388 178.387 122.398 178.835 121.69Z" fill="#55A343"/>
<path d="M195.49 105.976C197.042 105.976 198.438 106.786 199.232 108.038C199.859 107.692 200.569 107.505 201.306 107.505C203.029 107.505 204.56 108.553 205.238 110.075C205.382 110.06 205.527 110.053 205.672 110.053C207.127 110.053 208.477 110.796 209.278 111.975C209.572 111.92 209.872 111.892 210.175 111.892C212.846 111.892 215.019 114.071 215.019 116.749C215.019 117.067 214.988 117.379 214.928 117.686C216.641 118.399 217.822 120.093 217.822 122.036C217.822 124.634 215.714 126.748 213.123 126.748C212.388 126.748 211.671 126.574 211.024 126.248C209.876 127.729 208.115 128.611 206.198 128.611C205.042 128.611 203.94 128.293 202.984 127.698C202.186 128.923 200.804 129.716 199.281 129.716C197.895 129.716 196.632 129.081 195.811 128.029C194.794 128.574 193.666 128.858 192.493 128.858C191.171 128.858 189.908 128.498 188.796 127.811C187.883 128.365 186.828 128.664 185.752 128.664C182.511 128.664 179.874 126.02 179.874 122.769C179.874 120.524 181.165 118.518 183.075 117.53C182.586 116.782 182.316 115.898 182.316 114.971C182.316 112.392 184.408 110.294 186.98 110.294C187.945 110.294 188.872 110.591 189.647 111.134C190.06 110.783 190.539 110.518 191.055 110.353C191.093 107.933 193.068 105.976 195.49 105.976Z" fill="#448F35"/>
<path d="M185.569 99.7863C187.784 99.7863 189.774 101.06 190.752 102.967C191.659 102.131 192.858 101.647 194.122 101.647C196.87 101.647 199.105 103.889 199.105 106.644C199.105 106.913 199.084 107.18 199.041 107.442C201.173 107.483 202.896 109.235 202.896 111.383C202.896 112.84 202.109 114.15 200.857 114.837C200.482 116.466 199.038 117.644 197.325 117.644C196.704 117.644 196.101 117.485 195.567 117.186C195.17 117.522 194.664 117.714 194.122 117.714C193.669 117.714 193.237 117.576 192.875 117.333C192.825 117.389 192.773 117.444 192.72 117.497C191.874 118.345 190.749 118.812 189.553 118.812C188.356 118.812 187.231 118.345 186.385 117.497C186.335 117.447 186.286 117.396 186.239 117.344C185.398 118.296 184.177 118.868 182.873 118.868C180.46 118.868 178.484 116.951 178.382 114.555C176.833 114.502 175.589 113.223 175.589 111.657C175.589 111.599 175.591 111.54 175.595 111.481C174.895 110.753 174.502 109.784 174.502 108.759C174.502 106.592 176.26 104.829 178.421 104.829C178.889 104.829 179.345 104.911 179.772 105.068C180.052 102.108 182.545 99.7863 185.569 99.7863Z" fill="#55A343"/>
<path d="M184.414 120.71C195.451 131.478 194.552 150.019 194.292 153.358C194.275 153.58 194.494 153.748 194.701 153.667C196.74 152.861 199.802 153.453 201.022 153.744C201.25 153.799 201.453 153.584 201.384 153.36C199.011 145.636 200.493 134.35 212.174 116.844C212.174 116.844 211.55 116 210.889 116.635C208.99 118.461 205.989 122.395 204.538 123.203C204.196 120.126 207.782 113.429 207.782 113.429C207.782 113.429 203.701 119.246 201.805 118.642C199.91 118.039 199.427 113.073 199.427 113.073L197.71 113.445C203.324 124.791 198.632 132.497 198.632 132.497C198.632 132.497 194.314 127.878 195.052 116.754L193.415 116.929C193.415 116.929 194.037 128.208 193.654 128.513C193.37 128.738 187.737 118.868 187.737 118.868L184.414 120.71Z" fill="#794F30"/>
<path d="M194.151 116.851C193.453 127.769 196.896 131.369 198.633 132.496C197.5 130.828 194.478 125.407 195.052 116.754L194.151 116.851Z" fill="#71492C"/>
<path d="M200.909 118.642C201.141 118.716 201.406 118.693 201.691 118.597C199.891 117.834 199.427 113.072 199.427 113.072L198.552 113.262C198.663 114.172 199.234 118.109 200.909 118.642Z" fill="#71492C"/>
<path d="M204.539 123.202C204.685 119.92 207.782 113.428 207.782 113.428C207.782 113.428 207.094 115.033 205.852 116.401C204.428 119.46 204.394 123.334 204.539 123.202Z" fill="#71492C"/>
<path d="M193.654 128.513C192.04 126.042 187.738 118.868 187.738 118.868L187.057 119.245C187.939 120.783 189.979 124.857 193.654 128.513Z" fill="#71492C"/>
<path d="M212.175 116.844C212.175 116.844 211.605 116.077 210.979 116.561C211.163 116.688 211.278 116.844 211.278 116.844C198.78 132.846 196.847 142.937 200.488 153.36C200.52 153.453 200.496 153.545 200.447 153.617C200.666 153.662 200.862 153.706 201.023 153.744C201.251 153.799 201.453 153.584 201.384 153.36C199.011 145.635 200.493 134.349 212.175 116.844Z" fill="#71492C"/>
<path d="M194.316 153.502C194.378 153.645 194.543 153.73 194.701 153.667C195.337 153.416 196.072 153.3 196.819 153.27C195.97 153.237 195.094 153.291 194.316 153.502Z" fill="#71492C"/>
<path d="M220.486 102.546C220.406 102.546 220.325 102.547 220.244 102.549C220.264 102.347 220.273 102.143 220.273 101.938C220.273 98.1352 216.991 95.0419 212.957 95.0419C211.116 95.0419 209.374 95.6953 208.048 96.8253C207.159 95.2421 205.392 94.1586 203.37 94.1586C200.999 94.1586 198.987 95.6363 198.317 97.6657C197.675 97.4274 196.986 97.302 196.286 97.302C193.214 97.302 190.714 99.6576 190.714 102.553C190.714 103.033 190.785 103.51 190.923 103.97C189.181 104.214 186.043 105.976 186.006 108.892C185.128 108.333 184.103 108.027 183.051 108.027C180.165 108.027 177.789 110.258 177.549 113.091C177.46 113.085 177.37 113.083 177.281 113.083C174.827 113.083 172.832 115.084 172.832 117.544C172.832 120.004 174.827 122.006 177.281 122.006C178.489 122.006 179.639 121.508 180.471 120.649C180.968 120.759 181.475 120.814 181.985 120.814C182.813 120.814 183.622 120.67 184.396 120.386C186.124 121.548 188.125 122.16 190.218 122.16C192.723 122.16 195.09 121.286 196.979 119.68C197.885 120.422 199.022 120.835 200.216 120.835C202.43 120.835 204.32 119.418 205.032 117.44C205.488 117.576 205.968 117.65 206.461 117.65C207.543 117.65 208.563 117.31 209.383 116.709C210.454 118.313 212.337 119.334 214.449 119.334C216.852 119.334 218.978 117.993 219.924 115.977C220.112 115.991 220.3 115.998 220.487 115.998C224.422 115.998 227.624 112.98 227.624 109.272C227.623 105.563 224.422 102.546 220.486 102.546Z" fill="#5CB248"/>
<path d="M194.113 107.248C194.838 107.666 195.04 108.677 195.04 108.677C195.04 108.677 194.067 109.011 193.341 108.592C192.617 108.174 192.415 107.163 192.415 107.163C192.415 107.163 193.388 106.83 194.113 107.248Z" fill="#55A343"/>
<path d="M196.446 107.666C196.06 108.41 195.061 108.654 195.061 108.654C195.061 108.654 194.688 107.693 195.075 106.949C195.461 106.205 196.46 105.961 196.46 105.961C196.46 105.961 196.833 106.922 196.446 107.666Z" fill="#55A343"/>
<path d="M207.544 100.566C207.859 101.343 207.399 102.265 207.399 102.265C207.399 102.265 206.427 101.928 206.112 101.151C205.796 100.375 206.256 99.4522 206.256 99.4522C206.256 99.4522 207.228 99.7893 207.544 100.566Z" fill="#55A343"/>
<path d="M209.13 102.333C208.37 102.682 207.431 102.26 207.431 102.26C207.431 102.26 207.726 101.272 208.486 100.923C209.247 100.574 210.185 100.996 210.185 100.996C210.185 100.996 209.89 101.984 209.13 102.333Z" fill="#55A343"/>
<path d="M213.717 112.676C214.033 113.453 213.573 114.376 213.573 114.376C213.573 114.376 212.601 114.039 212.285 113.262C211.969 112.485 212.429 111.563 212.429 111.563C212.429 111.563 213.401 111.9 213.717 112.676Z" fill="#55A343"/>
<path d="M215.303 114.443C214.542 114.792 213.604 114.37 213.604 114.37C213.604 114.37 213.899 113.382 214.659 113.033C215.42 112.684 216.358 113.106 216.358 113.106C216.358 113.106 216.063 114.094 215.303 114.443Z" fill="#55A343"/>
<path d="M198.442 96.0511C198.757 96.8278 198.297 97.75 198.297 97.75C198.297 97.75 197.325 97.4132 197.01 96.6365C196.694 95.8599 197.154 94.9377 197.154 94.9377C197.154 94.9377 198.126 95.2745 198.442 96.0511Z" fill="#5CB248"/>
<path d="M221.853 102.423C221.156 102.885 220.164 102.614 220.164 102.614C220.164 102.614 220.302 101.592 221 101.129C221.698 100.667 222.69 100.938 222.69 100.938C222.69 100.938 222.551 101.96 221.853 102.423Z" fill="#5CB248"/>
<path d="M220.466 117.397C219.843 116.837 219.855 115.806 219.855 115.806C219.855 115.806 220.876 115.683 221.499 116.243C222.121 116.803 222.109 117.834 222.109 117.834C222.109 117.834 221.089 117.957 220.466 117.397Z" fill="#5CB248"/>
<path d="M196.347 121.057C196.315 120.219 197.063 119.51 197.063 119.51C197.063 119.51 197.861 120.161 197.892 120.999C197.923 121.837 197.176 122.546 197.176 122.546C197.176 122.546 196.378 121.895 196.347 121.057Z" fill="#5CB248"/>
<path d="M135.71 65.532C135.373 64.7441 134.593 64.1919 133.684 64.1919C133.399 64.1919 133.128 64.2478 132.879 64.3463C132.903 64.1962 132.918 64.0433 132.918 63.8862C132.918 62.2903 131.628 60.9965 130.037 60.9965C129.195 60.9965 128.44 61.3605 127.913 61.9375C127.515 60.4534 126.167 59.3596 124.561 59.3596C122.643 59.3596 121.087 60.9195 121.087 62.8441C121.087 63.0631 121.109 63.2766 121.148 63.4848C120.667 62.9443 119.969 62.6021 119.189 62.6021C117.738 62.6021 116.562 63.7817 116.562 65.2368C116.562 65.3365 116.568 65.435 116.579 65.532H135.71Z" fill="#F7FBFC"/>
<path d="M202.32 50.5745H220.928C220.921 50.563 220.914 50.5512 220.907 50.5397C221.861 50.2011 222.547 49.2903 222.547 48.217C222.547 46.8553 221.446 45.7512 220.088 45.7512C219.631 45.7512 219.205 45.878 218.839 46.0952C218.755 43.9743 217.019 42.2791 214.883 42.2791C212.802 42.2791 211.099 43.8885 210.935 45.9336C210.408 44.8794 209.324 44.1538 208.067 44.1538C206.295 44.1538 204.857 45.595 204.857 47.3727C204.857 48.0406 205.06 48.6608 205.408 49.1752C205.235 49.1438 205.058 49.1251 204.876 49.1251C203.791 49.1248 202.842 49.706 202.32 50.5745Z" fill="#EFF7F8"/>
<path d="M71.7861 86.2915C71.3867 85.4106 70.5405 84.7772 69.5356 84.6868C69.8263 84.1972 69.9965 83.6268 69.9965 83.0154C69.9965 81.2066 68.534 79.74 66.7301 79.74C65.9044 79.74 65.1525 80.0496 64.5775 80.5562C64.582 80.4885 64.5877 80.4212 64.5877 80.352C64.5877 78.6576 63.218 77.2838 61.528 77.2838C59.8459 77.2838 58.4819 78.6452 58.4695 80.3293C57.6941 78.925 56.2024 77.9737 54.4883 77.9737C51.9766 77.9737 49.9402 80.0158 49.9402 82.5345C49.9402 83.0514 50.0272 83.5474 50.1851 84.0108C49.7956 83.8981 49.3847 83.8365 48.959 83.8365C47.2275 83.8365 45.7294 84.8364 45.0059 86.2915H71.7861Z" fill="#EFF7F8"/>
<path d="M171.507 56.7644C177.25 55.985 178.687 56.533 180.039 54.1393L177.992 54.6643C176.415 51.8906 176.146 51.5744 172.9 49.6531C175.335 53.6385 174.594 52.0405 175.624 55.099L171.507 56.7644Z" fill="#43484E"/>
<path d="M187.256 61.1244C190.106 60.7374 190.819 61.0096 191.49 59.8218L190.475 60.0825C189.692 58.7062 189.558 58.5491 187.947 57.5958C189.156 59.5735 188.788 58.7805 189.299 60.2982L187.256 61.1244Z" fill="#43484E"/>
<path d="M194.678 49.0399C194.678 49.0399 194.275 48.6925 194.291 48.5759C194.421 47.612 194.83 46.4157 195.351 45.4717C194.042 46.3617 192.887 47.3661 192.888 48.3581C191.48 48.0805 189.373 46.1934 189.373 46.1934C189.954 47.7337 191.356 49.9921 192.177 50.2733C191.556 50.4292 191.416 50.3917 190.459 50.3425L191.177 50.9421C192.869 50.3171 193.693 50.2422 194.284 49.4565C194.375 49.335 194.629 49.2786 194.678 49.0399Z" fill="#43484E"/>
<path d="M203.081 77.3513H99.9746V150.449H203.081V77.3513Z" fill="#E3E2DC"/>
<path d="M203.082 149.503H62.3711V156.901H203.082V149.503Z" fill="#43484E"/>
<path d="M151.528 44.09L99.9746 77.3513H203.081L151.528 44.09Z" fill="#E3E2DC"/>
<path d="M137.58 101.975H62.3711V149.502H137.58V101.975Z" fill="#F0F0EC"/>
<path d="M99.9753 77.3513L62.3711 101.975H137.579L99.9753 77.3513Z" fill="#F0F0EC"/>
<path d="M203.146 75.5795L151.527 42.3909L99.2029 76.1496L62.2964 99.9953V107.449L100.746 82.6065L151.53 49.8416L203.146 83.0281V75.5795Z" fill="#DADADA"/>
<path d="M56.6503 107.045L55.106 104.641L99.2027 76.1496L151.527 42.3909L209.444 79.6289L207.904 82.036L151.53 45.7891L100.746 78.5537L56.6503 107.045Z" fill="white"/>
<path d="M140.955 102.996H137.58V156.901H140.955V102.996Z" fill="#DADADA"/>
<path d="M55.106 104.641L99.2027 76.1496L151.527 42.3909L209.444 79.6289" stroke="#1D1D1B" stroke-width="1.68727" stroke-miterlimit="10"/>
<path d="M140.968 108.768L142.231 109.555L143.061 107L140.954 105.616L140.968 108.768Z" fill="#DADADA"/>
<path d="M58.7531 142.96C55.5913 142.954 53.0229 145.52 53.0169 148.69C53.0154 149.516 53.191 150.3 53.5028 151.01C53.2467 150.939 52.978 150.897 52.6994 150.897C51.0263 150.894 49.6674 152.251 49.6641 153.929C49.6608 155.607 51.0145 156.969 52.6876 156.973L78.2813 157.022C79.5384 157.024 80.5593 156.004 80.5617 154.744C80.5641 153.483 79.5471 152.459 78.2901 152.457C77.7807 152.456 77.3116 152.625 76.9318 152.908C77.0423 152.546 77.1029 152.163 77.1038 151.766C77.108 149.599 75.3596 147.839 73.1991 147.835C71.8769 147.832 70.7093 148.489 69.999 149.495C69.6975 147.985 68.3693 146.845 66.7739 146.842C65.8407 146.84 64.9987 147.229 64.398 147.854C63.989 145.09 61.623 142.966 58.7531 142.96Z" fill="#55A343"/>
<path d="M38.5562 157.022C38.6538 156.81 38.867 156.663 39.1153 156.663C39.2198 156.663 39.3168 156.691 39.4029 156.737C39.5825 156.319 39.9967 156.026 40.4799 156.026C40.67 156.026 40.8471 156.076 41.0058 156.156C41.3191 155.497 41.9879 155.04 42.7651 155.04C43.1886 155.04 43.5793 155.177 43.8993 155.407C44.2571 153.946 45.5684 152.861 47.1358 152.861C47.3343 152.861 47.5277 152.881 47.7166 152.915C48.154 151.117 49.7662 149.78 51.6942 149.78C53.345 149.78 54.7641 150.761 55.4133 152.171C55.657 149.343 58.0199 147.123 60.9037 147.123C62.6036 147.123 64.1227 147.895 65.1343 149.108C65.3943 149.014 65.6735 148.96 65.966 148.96C67.3198 148.96 68.4175 150.06 68.4175 151.418C68.4175 152.065 68.1666 152.652 67.7593 153.09C68.8215 153.528 69.5698 154.575 69.5698 155.798C69.5698 156.235 69.4737 156.65 69.3023 157.022H38.5562V157.022Z" fill="#5CB248"/>
<path d="M62.7256 152.162C62.5626 152.564 62.8 153.04 62.8 153.04C62.8 153.04 63.3019 152.866 63.4652 152.465C63.6281 152.064 63.3907 151.588 63.3907 151.588C63.3907 151.588 62.8886 151.761 62.7256 152.162Z" fill="#55A343"/>
<path d="M61.9068 153.075C62.2996 153.255 62.784 153.037 62.784 153.037C62.784 153.037 62.6318 152.527 62.239 152.346C61.8462 152.166 61.3618 152.384 61.3618 152.384C61.3618 152.384 61.5139 152.894 61.9068 153.075Z" fill="#55A343"/>
<path d="M73.8923 150.878C73.4735 150.984 73.2319 151.459 73.2319 151.459C73.2319 151.459 73.6693 151.761 74.0881 151.654C74.5068 151.548 74.7484 151.074 74.7484 151.074C74.7484 151.074 74.311 150.772 73.8923 150.878Z" fill="#448F35"/>
<path d="M72.6741 150.758C72.7624 151.182 73.2248 151.444 73.2248 151.444C73.2248 151.444 73.5441 151.018 73.4561 150.594C73.3679 150.17 72.9055 149.908 72.9055 149.908C72.9055 149.908 72.5858 150.334 72.6741 150.758Z" fill="#448F35"/>
<path d="M58.5499 144.574C58.3586 144.962 58.5614 145.454 58.5614 145.454C58.5614 145.454 59.0744 145.317 59.2657 144.929C59.457 144.54 59.2542 144.048 59.2542 144.048C59.2542 144.048 58.7415 144.185 58.5499 144.574Z" fill="#448F35"/>
<path d="M57.6679 145.425C58.0465 145.633 58.5457 145.45 58.5457 145.45C58.5457 145.45 58.4303 144.93 58.0516 144.722C57.673 144.514 57.1738 144.697 57.1738 144.697C57.1738 144.697 57.2892 145.217 57.6679 145.425Z" fill="#448F35"/>
<path d="M50.825 154.887C50.4602 155.049 50.3135 155.519 50.3135 155.519C50.3135 155.519 50.7584 155.725 51.1232 155.564C51.488 155.402 51.6344 154.932 51.6344 154.932C51.6344 154.932 51.1898 154.725 50.825 154.887Z" fill="#55A343"/>
<path d="M49.6971 154.968C49.8429 155.34 50.3047 155.506 50.3047 155.506C50.3047 155.506 50.5298 155.069 50.3837 154.697C50.2379 154.325 49.7761 154.158 49.7761 154.158C49.7761 154.158 49.5513 154.595 49.6971 154.968Z" fill="#55A343"/>
<path d="M58.0948 155.049C57.8653 155.376 57.9807 155.854 57.9807 155.854C57.9807 155.854 58.4684 155.802 58.6979 155.475C58.9275 155.148 58.8121 154.67 58.8121 154.67C58.8121 154.67 58.3247 154.722 58.0948 155.049Z" fill="#55A343"/>
<path d="M57.1692 155.701C57.4855 155.945 57.9666 155.849 57.9666 155.849C57.9666 155.849 57.935 155.358 57.6187 155.114C57.3024 154.87 56.8213 154.966 56.8213 154.966C56.8213 154.966 56.8529 155.457 57.1692 155.701Z" fill="#55A343"/>
<path d="M47.0917 152.623C47.3227 152.942 47.8044 152.987 47.8044 152.987C47.8044 152.987 47.9111 152.514 47.68 152.195C47.449 151.876 46.9676 151.832 46.9676 151.832C46.9676 151.832 46.8606 152.305 47.0917 152.623Z" fill="#5CB248"/>
<path d="M68.4557 153.243C68.7949 153.112 68.9489 152.691 68.9489 152.691C68.9489 152.691 68.553 152.483 68.2138 152.614C67.8746 152.745 67.7207 153.166 67.7207 153.166C67.7207 153.166 68.1165 153.374 68.4557 153.243Z" fill="#5CB248"/>
<path d="M77.1421 154.885C77.3744 154.623 77.3214 154.196 77.3214 154.196C77.3214 154.196 76.8918 154.193 76.6595 154.454C76.4273 154.716 76.4803 155.144 76.4803 155.144C76.4803 155.144 76.9099 155.147 77.1421 154.885Z" fill="#448F35"/>
<path d="M192.245 152.542C191.572 153.599 191.176 154.852 191.176 156.201C191.176 156.415 191.187 156.625 191.207 156.834H229.317C229.4 156.443 229.444 156.038 229.444 155.622C229.444 152.392 226.833 149.773 223.611 149.773C223.255 149.773 222.909 149.81 222.57 149.871C223.25 148.865 223.647 147.652 223.647 146.345C223.647 142.867 220.835 140.047 217.367 140.047C214.909 140.047 212.786 141.466 211.755 143.529C211.436 139.528 208.103 136.379 204.031 136.379C199.853 136.379 196.455 139.696 196.291 143.846C195.575 143.421 194.741 143.172 193.848 143.172C191.191 143.172 189.037 145.332 189.037 147.997C189.037 150.097 190.377 151.879 192.245 152.542Z" fill="#55A343"/>
<path d="M233.063 156.834C233.186 156.516 233.256 156.171 233.256 155.809C233.256 154.242 231.989 152.972 230.426 152.972C229.965 152.972 229.531 153.085 229.146 153.281C229.018 150.562 226.786 148.395 224.042 148.395C222.459 148.395 221.044 149.117 220.106 150.25C220.02 148.037 218.209 146.268 215.981 146.268C214.745 146.268 213.639 146.815 212.882 147.678C212.691 145.317 210.724 143.46 208.32 143.46C206.105 143.46 204.257 145.038 203.833 147.134C203.585 147.078 203.328 147.047 203.063 147.047C201.127 147.047 199.557 148.621 199.557 150.563C199.557 151.231 199.747 151.855 200.07 152.387C198.366 152.593 197.044 154.045 197.044 155.809C197.044 156.167 197.101 156.51 197.202 156.834H233.063Z" fill="#5CB248"/>
<path d="M208.547 149.317C209.376 149.612 209.776 150.619 209.776 150.619C209.776 150.619 208.832 151.149 208.003 150.854C207.174 150.56 206.774 149.552 206.774 149.552C206.774 149.552 207.718 149.022 208.547 149.317Z" fill="#55A343"/>
<path d="M211.039 149.304C210.78 150.147 209.793 150.591 209.793 150.591C209.793 150.591 209.226 149.668 209.485 148.824C209.743 147.982 210.73 147.538 210.73 147.538C210.73 147.538 211.298 148.462 211.039 149.304Z" fill="#55A343"/>
<path d="M194.573 148.506C195.426 148.722 195.918 149.688 195.918 149.688C195.918 149.688 195.027 150.303 194.175 150.087C193.322 149.871 192.83 148.905 192.83 148.905C192.83 148.905 193.721 148.29 194.573 148.506Z" fill="#448F35"/>
<path d="M197.053 148.262C196.874 149.125 195.932 149.659 195.932 149.659C195.932 149.659 195.281 148.792 195.461 147.929C195.641 147.066 196.582 146.532 196.582 146.532C196.582 146.532 197.233 147.399 197.053 148.262Z" fill="#448F35"/>
<path d="M221.874 153.521C222.341 154.187 222.106 155.16 222.106 155.16C222.106 155.16 221.113 155.054 220.645 154.387C220.178 153.721 220.413 152.748 220.413 152.748C220.413 152.748 221.406 152.855 221.874 153.521Z" fill="#55A343"/>
<path d="M223.758 154.847C223.114 155.343 222.134 155.149 222.134 155.149C222.134 155.149 222.199 154.149 222.843 153.653C223.487 153.156 224.467 153.351 224.467 153.351C224.467 153.351 224.402 154.351 223.758 154.847Z" fill="#55A343"/>
<path d="M230.405 152.629C229.935 153.278 228.954 153.368 228.954 153.368C228.954 153.368 228.737 152.405 229.208 151.756C229.679 151.106 230.659 151.016 230.659 151.016C230.659 151.016 230.876 151.979 230.405 152.629Z" fill="#5CB248"/>
<path d="M195.048 143.411C194.575 142.878 194.683 142.007 194.683 142.007C194.683 142.007 195.558 142.001 196.031 142.534C196.504 143.067 196.396 143.937 196.396 143.937C196.396 143.937 195.521 143.944 195.048 143.411Z" fill="#55A343"/>
<g clip-path="url(#clip1_5223_3300)">
<path d="M132.535 104.852H156.167V110.451H132.535V104.852Z" fill="#FECB4D"/>
<path d="M136.142 104.852H132.535V110.451H156.167V107.699" stroke="#252525" stroke-width="1.68727" stroke-miterlimit="10" stroke-linecap="round" stroke-linejoin="round"/>
<path d="M166.133 125.352C164.139 127.819 160.913 131.521 159.204 132.85C155.977 135.222 148.669 139.493 144.683 139.493C139.273 139.588 125.037 131.141 124.562 131.141V118.234C138.894 117.759 139.084 125.067 139.084 125.067H146.771C147.436 125.067 148.005 125.352 148.48 125.731C148.859 126.206 149.144 126.775 149.144 127.44C149.144 128.768 148.1 129.812 146.771 129.812C146.771 129.812 150.947 129.907 152.371 129.623C155.503 129.053 162.051 121.366 162.051 121.366C162.621 120.891 163.285 120.701 163.95 120.701C164.614 120.701 165.278 120.986 165.848 121.461C166.987 122.41 167.082 124.118 166.133 125.352Z" fill="#C7D9F9"/>
<path d="M122 135.602H117.54C116.116 135.602 114.977 134.463 114.977 133.039V116.525C114.977 115.102 116.116 113.963 117.54 113.963H121.905C123.329 113.963 124.468 115.102 124.468 116.525V133.039C124.563 134.463 123.424 135.602 122 135.602Z" fill="#FECB4D"/>
<path d="M127.98 132.85C132.63 135.317 140.792 139.493 144.684 139.493C148.67 139.398 155.978 135.222 159.205 132.85C160.913 131.616 164.14 127.819 166.133 125.352C167.082 124.118 166.987 122.41 165.848 121.366C164.804 120.417 163.191 120.417 162.052 121.366C162.052 121.366 155.503 129.053 152.371 129.623M122 135.602H117.54C116.116 135.602 114.977 134.463 114.977 133.039V116.525C114.977 115.102 116.116 113.963 117.54 113.963H121.905C123.329 113.963 124.468 115.102 124.468 116.525V133.039C124.563 134.463 123.424 135.602 122 135.602Z" stroke="#252525" stroke-width="1.68727" stroke-miterlimit="10" stroke-linecap="round" stroke-linejoin="round"/>
<path d="M139.369 129.718H146.772C148.1 129.718 149.144 128.674 149.144 127.345C149.144 126.016 148.1 124.972 146.772 124.972H139.084C139.084 124.972 138.894 118.993 128.359 118.234" stroke="#252525" stroke-width="1.68727" stroke-miterlimit="10" stroke-linecap="round" stroke-linejoin="round"/>
<path d="M147.151 99.2519C152.393 99.2519 156.642 95.0027 156.642 89.761C156.642 84.5193 152.393 80.2701 147.151 80.2701C141.909 80.2701 137.66 84.5193 137.66 89.761C137.66 95.0027 141.909 99.2519 147.151 99.2519Z" fill="#FECB4D"/>
<path d="M148.195 99.2519C147.91 99.2519 147.53 99.3468 147.246 99.3468C142.026 99.3468 137.755 95.0759 137.755 89.8559C137.755 84.6359 142.026 80.365 147.246 80.365C152.466 80.365 156.737 84.6359 156.737 89.8559C156.737 91.9439 155.977 93.937 154.838 95.5504" stroke="#252525" stroke-width="1.68727" stroke-miterlimit="10" stroke-linecap="round" stroke-linejoin="round"/>
<path d="M136.142 99.2518H159.774V104.851H136.142V99.2518Z" fill="#FECB4D"/>
<path d="M136.142 99.2518H159.774V104.851H136.142V99.2518Z" stroke="#252525" stroke-width="1.68727" stroke-miterlimit="10" stroke-linecap="round" stroke-linejoin="round"/>
<path d="M136.142 110.451H159.774V116.051H136.142V110.451Z" fill="#FECB4D"/>
<path d="M136.142 113.393V116.051H159.774V110.451H136.142" stroke="#252525" stroke-width="1.68727" stroke-miterlimit="10" stroke-linecap="round" stroke-linejoin="round"/>
<path d="M150.24 87.349L149.92 88.5353H143.892L144.219 87.349H150.24ZM147.239 94.3581L144.078 90.6259L144.071 89.5999H145.598C145.97 89.5999 146.275 89.5315 146.515 89.3947C146.758 89.2536 146.94 89.0633 147.06 88.8239C147.184 88.5845 147.246 88.3152 147.246 88.0159C147.246 87.7038 147.19 87.4281 147.079 87.1887C146.968 86.945 146.79 86.7547 146.547 86.6179C146.303 86.4811 145.98 86.4127 145.578 86.4127H143.898L144.264 85.0212H145.578C146.339 85.0212 146.972 85.1366 147.477 85.3674C147.985 85.594 148.366 85.9254 148.618 86.3614C148.875 86.7932 149.003 87.3148 149.003 87.9261C149.003 88.4605 148.913 88.9329 148.733 89.3433C148.558 89.7495 148.274 90.0808 147.881 90.3373C147.487 90.5938 146.97 90.7648 146.329 90.8503L149.195 94.2683V94.3581H147.239ZM150.247 85.0212L149.92 86.2075H144.963L145.29 85.0212H150.247Z" fill="#252525"/>
</g>
</g>
<defs>
<clipPath id="clip0_5223_3300">
<rect width="269.963" height="205.003" fill="white" transform="translate(0 0.209229)"/>
</clipPath>
<clipPath id="clip1_5223_3300">
<rect width="60.7416" height="60.7416" fill="white" transform="translate(110.516 79.5108)"/>
</clipPath>
</defs>
</svg>
