<svg width="270" height="206" viewBox="0 0 270 206" fill="none" xmlns="http://www.w3.org/2000/svg">
<g clip-path="url(#clip0_5223_2990)">
<path d="M269.963 0.365662H0V205.369H269.963V0.365662Z" fill="white"/>
<path d="M38.5557 157.178C58.5918 183.991 66.227 160.165 108.693 168.203C156.411 177.234 177.611 229.518 233.057 156.991L136.305 147.472L38.5557 157.178Z" fill="#FFB200"/>
<path d="M38.5553 157.178C38.5553 157.178 10.6951 130.487 10.5137 112.58C10.2348 85.0389 39.1716 75.6107 52.8814 58.958C66.5912 42.3052 59.5482 15.6222 87.5906 9.83522C115.633 4.04828 130.862 26.433 158.3 31.1464C185.738 35.86 201.804 13.7055 220.387 23.8206C232.708 30.5271 234.296 52.3605 241.222 66.4728C247.771 79.8169 254.582 84.581 256.397 106.86C258.212 129.139 233.057 156.991 233.057 156.991C221.59 157.066 206.312 154.786 193.962 154.786C137.394 154.786 75.9968 156.519 46.8638 156.646C45.438 156.652 39.8326 157.2 38.5553 157.178Z" fill="#FFD6E7"/>
<path d="M75.7087 102.1C75.221 102.688 74.2838 102.712 74.2838 102.712C74.2838 102.712 74.1374 101.784 74.6248 101.196C75.1125 100.609 76.0497 100.584 76.0497 100.584C76.0497 100.584 76.1964 101.513 75.7087 102.1Z" fill="#55A343"/>
<path d="M44.5686 107.439C45.2289 107.822 45.4115 108.744 45.4115 108.744C45.4115 108.744 44.5237 109.046 43.8634 108.663C43.2031 108.281 43.0205 107.359 43.0205 107.359C43.0205 107.359 43.9086 107.057 44.5686 107.439Z" fill="#55A343"/>
<path d="M67.6933 99.3401C68.7979 99.3401 69.7908 99.9164 70.3563 100.808C70.8024 100.561 71.3076 100.428 71.8323 100.428C73.0581 100.428 74.1477 101.174 74.6303 102.257C74.7327 102.246 74.8357 102.241 74.939 102.241C75.9741 102.241 76.9351 102.77 77.5044 103.609C77.7138 103.57 77.927 103.55 78.1427 103.55C80.0433 103.55 81.5898 105.1 81.5898 107.006C81.5898 107.232 81.5681 107.455 81.5248 107.673C82.7442 108.18 83.584 109.385 83.584 110.768C83.584 112.617 82.0842 114.121 80.2406 114.121C79.7179 114.121 79.2073 113.998 78.7467 113.766C77.9304 114.819 76.6772 115.447 75.3129 115.447C74.4908 115.447 73.7064 115.221 73.0262 114.797C72.4583 115.669 71.4751 116.233 70.3912 116.233C69.4049 116.233 68.5063 115.781 67.9219 115.033C67.1987 115.42 66.3959 115.622 65.5617 115.622C64.6212 115.622 63.722 115.366 62.931 114.877C62.2812 115.271 61.5305 115.484 60.7651 115.484C58.4588 115.484 56.582 113.602 56.582 111.289C56.582 109.692 57.5011 108.265 58.86 107.561C58.5118 107.029 58.3196 106.4 58.3196 105.74C58.3196 103.905 59.8086 102.412 61.6384 102.412C62.3252 102.412 62.9846 102.624 63.5359 103.01C63.8302 102.761 64.1706 102.572 64.5384 102.455C64.5649 100.733 65.9699 99.3401 67.6933 99.3401Z" fill="#55A343"/>
<path d="M55.0134 99.3401C56.2271 99.3401 57.3179 99.9732 57.9387 100.952C58.4289 100.681 58.9837 100.535 59.5603 100.535C60.9069 100.535 62.104 101.355 62.6342 102.544C62.7468 102.533 62.8598 102.527 62.9734 102.527C64.1106 102.527 65.1661 103.108 65.7915 104.03C66.0216 103.986 66.2557 103.964 66.4928 103.964C68.5807 103.964 70.2797 105.668 70.2797 107.761C70.2797 108.01 70.2559 108.254 70.2083 108.494C71.5479 109.052 72.4706 110.375 72.4706 111.895C72.4706 113.925 70.8228 115.578 68.7976 115.578C68.2234 115.578 67.6625 115.442 67.1564 115.187C66.2596 116.345 64.8829 117.034 63.384 117.034C62.4808 117.034 61.619 116.786 60.8719 116.321C60.2481 117.278 59.1678 117.899 57.9773 117.899C56.894 117.899 55.9066 117.402 55.2646 116.579C54.47 117.005 53.5882 117.227 52.6716 117.227C51.6383 117.227 50.6505 116.946 49.7814 116.409C49.0675 116.842 48.2427 117.076 47.4023 117.076C44.8685 117.076 42.8071 115.009 42.8071 112.468C42.8071 110.713 43.8166 109.145 45.3098 108.372C44.9273 107.788 44.7161 107.097 44.7161 106.372C44.7161 104.356 46.3518 102.715 48.3623 102.715C49.1169 102.715 49.8414 102.948 50.4466 103.372C50.7698 103.098 51.144 102.891 51.5479 102.762C51.5768 100.87 53.1204 99.3401 55.0134 99.3401Z" fill="#55A343"/>
<path d="M48.2026 114.354C50.539 114.354 52.5878 115.816 53.4364 117.894C54.2886 117.115 55.4092 116.666 56.6102 116.666C59.2148 116.666 61.334 118.791 61.334 121.403C61.334 121.894 61.2593 122.375 61.1147 122.835C63.2966 123.115 64.9886 124.989 64.9886 127.252C64.9886 129.708 62.9965 131.705 60.5477 131.705C59.4187 131.705 58.3628 131.285 57.5567 130.543C56.4223 132.254 54.504 133.31 52.3989 133.31C50.6481 133.31 49.0033 132.574 47.8384 131.302C46.91 132.177 45.6749 132.679 44.3832 132.679C41.5994 132.679 39.335 130.408 39.335 127.617C39.335 126.937 39.4717 126.269 39.735 125.648C38.6632 124.958 37.9863 123.757 37.9863 122.445C37.9863 120.345 39.6898 118.637 41.7838 118.637C42.0928 118.637 42.3998 118.676 42.698 118.75C43.2713 116.215 45.517 114.354 48.2026 114.354Z" fill="#448F35"/>
<path d="M67.2414 110.964C68.5169 110.964 69.6628 111.552 70.4219 112.471C71.2955 111.893 72.3324 111.569 73.4154 111.569C76.3196 111.569 78.6994 113.865 78.8437 116.742C81.5055 117.033 83.584 119.3 83.584 122.045C83.584 124.962 81.2371 127.339 78.3373 127.379C77.5342 128.768 76.0422 129.665 74.3763 129.665C73.015 129.665 71.7787 129.076 70.9331 128.109C70.4156 128.369 69.8354 128.511 69.2314 128.511C68.1009 128.511 67.0471 127.999 66.338 127.163C66.1768 127.179 66.0145 127.188 65.8521 127.188C64.1519 127.188 62.6397 126.292 61.7796 124.936C61.3576 125.093 60.9036 125.176 60.4361 125.176C58.3112 125.176 56.582 123.442 56.582 121.311C56.582 119.919 57.3023 118.699 58.4072 118.018C58.3813 117.827 58.3681 117.635 58.3681 117.441C58.3681 115.057 60.3024 113.118 62.6794 113.118C62.9807 113.118 63.2786 113.15 63.5693 113.212C64.2558 111.878 65.644 110.964 67.2414 110.964Z" fill="#448F35"/>
<path d="M76.6857 136.914C74.752 137.786 72.5346 137.235 71.2095 135.708C70.9757 135.888 70.7205 136.042 70.4476 136.165C68.5109 137.039 66.2266 136.169 65.3555 134.227C64.4843 132.285 65.3512 129.994 67.2879 129.121C67.9518 128.821 68.6733 128.719 69.3755 128.814C70.1286 127.465 71.286 126.397 72.7184 125.751C73.9456 125.198 75.2723 125 76.5926 125.169C76.9614 124.849 77.3728 124.587 77.822 124.384C78.0573 124.278 78.2995 124.19 78.5468 124.121C78.8929 123.396 79.4854 122.807 80.2301 122.471C81.9532 121.693 83.986 122.467 84.7608 124.195C85.4868 125.814 84.856 127.705 83.3561 128.576C83.7353 130.423 82.8027 132.356 81.0182 133.161C80.4952 133.397 79.9319 133.517 79.3674 133.521C79.0794 134.989 78.1024 136.275 76.6857 136.914Z" fill="#448F35"/>
<path d="M50.3638 125.423C60.3635 142.99 61.0756 136.058 60.6397 154.28C60.6349 154.489 60.8024 154.664 61.0105 154.666C63.7614 154.687 64.0175 153.605 65.5014 154.345C65.7481 154.468 66.0385 154.288 66.0397 154.012C66.1382 130.923 61.4931 133.615 80.4264 123.687L79.7495 122.378L66.701 127.311L72.9565 115.557L71.0349 116.097C71.7006 115.367 67.8547 120.384 64.6359 123.596L58.0572 114.399L56.7407 115.923C63.5427 126.063 63.5427 126.063 60.8403 135.381L51.1837 124.412L50.3638 125.423Z" fill="#794F30"/>
<path d="M65.8838 127.83L66.7001 127.311L72.9557 115.557L72.1149 115.793L65.8838 127.83Z" fill="#71492C"/>
<path d="M64.6351 123.596L58.0563 114.399L57.665 114.852C63.2265 122.626 63.0783 122.169 64.6351 123.596Z" fill="#71492C"/>
<path d="M60.8402 135.381L51.1836 124.412L50.8408 124.835C58.0465 133.019 59.4238 134.411 60.8402 135.381Z" fill="#71492C"/>
<path d="M60.9126 154.65C60.9439 154.659 60.9762 154.665 61.0102 154.665C62.749 154.679 63.4909 154.252 64.1762 154.123C63.2611 153.932 62.7297 154.545 60.9126 154.65Z" fill="#71492C"/>
<path d="M80.4253 123.687L79.7484 122.378L79.1505 122.604L79.7105 123.687C60.7775 133.615 65.4226 130.923 65.3238 154.012C65.3235 154.097 65.2934 154.171 65.2479 154.232C65.3283 154.264 65.4121 154.301 65.5007 154.345C65.7474 154.468 66.0378 154.288 66.039 154.012C66.1375 130.923 61.4923 133.615 80.4253 123.687Z" fill="#71492C"/>
<path d="M87.0403 113.302C88.767 115.395 88.6447 118.42 86.8634 120.368C87.3993 120.631 87.8792 121.006 88.2666 121.475C89.7614 123.287 89.5074 125.981 87.7006 127.48C85.8934 128.979 83.2073 128.725 81.7125 126.913C81.0805 126.146 80.7419 125.198 80.7362 124.224C78.7107 123.861 76.899 122.805 75.5726 121.197C74.4641 119.853 73.7947 118.245 73.6215 116.521C73.0302 116.174 72.5105 115.731 72.0719 115.2C71.802 114.872 71.5689 114.517 71.3758 114.14C70.3868 114.061 69.4602 113.586 68.8203 112.811C67.5211 111.236 67.7419 108.895 69.3123 107.592C70.8826 106.289 73.2169 106.511 74.5162 108.086C74.5638 108.143 74.6096 108.202 74.6533 108.262C76.5884 106.916 79.271 107.26 80.7995 109.112C81.3565 109.788 81.7038 110.608 81.8119 111.467C83.7266 111.068 85.7558 111.745 87.0403 113.302Z" fill="#5CB248"/>
<path d="M41.2042 110.88C42.9499 108.787 45.9882 108.423 48.1704 109.974C47.558 108.559 47.742 106.86 48.7958 105.596C50.2827 103.813 52.9294 103.576 54.7076 105.067C55.3758 105.627 55.8258 106.352 56.049 107.132C56.1629 106.932 56.2924 106.738 56.4452 106.555C57.826 104.899 60.2839 104.679 61.9353 106.064C63.5867 107.448 63.806 109.913 62.4251 111.569C61.5244 112.65 60.1661 113.114 58.8717 112.926C59.917 114.934 59.7248 117.46 58.1854 119.306C56.9 120.847 54.9826 121.545 53.1294 121.34C53.4873 122.716 53.2026 124.239 52.2236 125.413C50.615 127.342 47.7511 127.598 45.827 125.985C45.1378 125.407 44.6667 124.667 44.4145 123.867C43.2749 124.543 41.7895 124.469 40.7159 123.568C39.3537 122.426 39.1726 120.393 40.3116 119.027C40.6945 118.568 41.1786 118.246 41.703 118.06C39.6522 116.196 39.413 113.028 41.2042 110.88Z" fill="#5CB248"/>
<path d="M54.9833 102.957C57.5471 102.042 60.3486 103.277 61.4434 105.724C61.6319 104.194 62.6513 102.823 64.1988 102.271C66.3825 101.492 68.7828 102.636 69.5597 104.826C69.8516 105.649 69.8724 106.502 69.6696 107.288C69.8691 107.174 70.079 107.073 70.3031 106.993C72.3311 106.269 74.56 107.331 75.2814 109.365C76.0029 111.399 74.9438 113.634 72.9155 114.357C71.5928 114.829 70.1872 114.538 69.1675 113.716C69.0509 115.979 67.6064 118.057 65.3456 118.863C63.4575 119.537 61.4524 119.161 59.9601 118.041C59.5715 119.408 58.5554 120.575 57.1172 121.088C54.7543 121.931 52.1573 120.694 51.3169 118.324C51.0156 117.475 50.9849 116.597 51.1726 115.78C49.8486 115.782 48.6066 114.962 48.1376 113.639C47.5423 111.962 48.4162 110.118 50.0893 109.521C50.6517 109.32 51.2316 109.29 51.7778 109.396C50.9542 106.746 52.3525 103.896 54.9833 102.957Z" fill="#5CB248"/>
<path d="M67.8889 122.756C65.3015 122.05 63.7752 119.374 64.4795 116.78C64.5596 116.484 64.6683 116.205 64.7964 115.939C63.9499 116.49 62.8838 116.695 61.8331 116.408C59.8768 115.874 58.7227 113.85 59.2553 111.889C59.7879 109.927 61.8053 108.77 63.7616 109.304C64.8653 109.605 65.7133 110.381 66.1474 111.352C68.0257 110.255 70.3232 109.882 72.5858 110.5C74.4074 110.997 75.9224 112.061 77.0002 113.447C77.7407 113.324 78.5176 113.351 79.289 113.562C79.8412 113.712 80.3485 113.946 80.8043 114.242C81.5496 113.625 82.5702 113.367 83.573 113.641C85.2138 114.089 86.1817 115.786 85.735 117.431C85.2883 119.077 83.5962 120.047 81.9553 119.599C81.5715 119.495 81.2266 119.319 80.926 119.095C80.9034 119.306 80.8688 119.518 80.8115 119.73C80.2274 121.881 78.0145 123.151 75.8691 122.565C74.7346 122.255 73.8498 121.486 73.3507 120.515C72.271 122.369 70.0539 123.348 67.8889 122.756Z" fill="#5CB248"/>
<path d="M56.0815 110.731C56.3695 111.44 55.9502 112.28 55.9502 112.28C55.9502 112.28 55.0639 111.973 54.7763 111.265C54.4883 110.557 54.9079 109.716 54.9079 109.716C54.9079 109.716 55.7935 110.023 56.0815 110.731Z" fill="#55A343"/>
<path d="M57.5267 112.342C56.8335 112.66 55.978 112.275 55.978 112.275C55.978 112.275 56.2467 111.374 56.9399 111.056C57.633 110.738 58.4886 111.123 58.4886 111.123C58.4886 111.123 58.2199 112.024 57.5267 112.342Z" fill="#55A343"/>
<path d="M75.4018 114.645C76.0516 115.045 76.2094 115.972 76.2094 115.972C76.2094 115.972 75.3138 116.25 74.6641 115.85C74.0143 115.45 73.8564 114.523 73.8564 114.523C73.8564 114.523 74.752 114.245 75.4018 114.645Z" fill="#55A343"/>
<path d="M77.5179 115.086C77.1467 115.754 76.2301 115.951 76.2301 115.951C76.2301 115.951 75.9153 115.066 76.2864 114.398C76.6575 113.73 77.5742 113.533 77.5742 113.533C77.5742 113.533 77.889 114.419 77.5179 115.086Z" fill="#55A343"/>
<path d="M46.3627 122.014C47.0125 122.414 47.1704 123.341 47.1704 123.341C47.1704 123.341 46.2748 123.619 45.625 123.219C44.9752 122.819 44.8174 121.892 44.8174 121.892C44.8174 121.892 45.713 121.614 46.3627 122.014Z" fill="#55A343"/>
<path d="M48.4778 122.455C48.1067 123.123 47.19 123.32 47.19 123.32C47.19 123.32 46.8752 122.435 47.2464 121.767C47.6175 121.099 48.5342 120.902 48.5342 120.902C48.5342 120.902 48.849 121.787 48.4778 122.455Z" fill="#55A343"/>
<path d="M87.9456 120.78C87.184 120.819 86.5312 120.144 86.5312 120.144C86.5312 120.144 87.1129 119.407 87.8745 119.369C88.636 119.33 89.2888 120.005 89.2888 120.005C89.2888 120.005 88.7071 120.742 87.9456 120.78Z" fill="#5CB248"/>
<path d="M52.983 122.61C52.7333 121.887 53.1969 121.07 53.1969 121.07C53.1969 121.07 54.0654 121.424 54.3151 122.146C54.5649 122.869 54.1012 123.686 54.1012 123.686C54.1012 123.686 53.2331 123.332 52.983 122.61Z" fill="#5CB248"/>
<path d="M72.4896 121.74C72.5526 120.978 73.306 120.419 73.306 120.419C73.306 120.419 73.9576 121.095 73.8946 121.856C73.8317 122.618 73.0783 123.178 73.0783 123.178C73.0783 123.178 72.4267 122.502 72.4896 121.74Z" fill="#5CB248"/>
<path d="M71.0444 106.594C70.5733 107.195 69.6373 107.246 69.6373 107.246C69.6373 107.246 69.4647 106.322 69.9358 105.721C70.407 105.12 71.3429 105.069 71.3429 105.069C71.3429 105.069 71.5155 105.993 71.0444 106.594Z" fill="#5CB248"/>
<path d="M48.1555 108.588C48.5582 109.237 48.2862 110.137 48.2862 110.137C48.2862 110.137 47.3611 109.984 46.9583 109.335C46.5556 108.686 46.8276 107.786 46.8276 107.786C46.8276 107.786 47.7527 107.939 48.1555 108.588Z" fill="#5CB248"/>
<path d="M178.834 121.846C179.282 121.138 180.298 120.979 180.298 120.979C180.298 120.979 180.588 121.969 180.14 122.677C179.692 123.385 178.676 123.544 178.676 123.544C178.676 123.544 178.386 122.554 178.834 121.846Z" fill="#55A343"/>
<path d="M195.49 106.132C197.042 106.132 198.438 106.942 199.232 108.194C199.859 107.848 200.569 107.661 201.306 107.661C203.029 107.661 204.56 108.709 205.238 110.231C205.382 110.216 205.527 110.209 205.672 110.209C207.127 110.209 208.477 110.953 209.278 112.132C209.572 112.076 209.872 112.048 210.175 112.048C212.846 112.048 215.019 114.227 215.019 116.905C215.019 117.223 214.988 117.536 214.928 117.842C216.641 118.556 217.822 120.249 217.822 122.192C217.822 124.791 215.714 126.904 213.123 126.904C212.388 126.904 211.671 126.731 211.024 126.405C209.876 127.885 208.115 128.767 206.198 128.767C205.042 128.767 203.94 128.45 202.984 127.855C202.186 129.08 200.804 129.873 199.281 129.873C197.895 129.873 196.632 129.237 195.811 128.185C194.794 128.73 193.666 129.014 192.493 129.014C191.171 129.014 189.908 128.654 188.796 127.968C187.883 128.522 186.828 128.82 185.752 128.82C182.511 128.82 179.874 126.176 179.874 122.926C179.874 120.681 181.165 118.675 183.075 117.686C182.586 116.938 182.316 116.054 182.316 115.127C182.316 112.548 184.408 110.45 186.98 110.45C187.945 110.45 188.872 110.748 189.647 111.29C190.06 110.939 190.539 110.674 191.055 110.51C191.093 108.089 193.068 106.132 195.49 106.132Z" fill="#448F35"/>
<path d="M185.568 99.9427C187.783 99.9427 189.773 101.216 190.751 103.124C191.658 102.288 192.857 101.804 194.121 101.804C196.869 101.804 199.104 104.045 199.104 106.8C199.104 107.07 199.083 107.336 199.04 107.599C201.173 107.639 202.895 109.391 202.895 111.539C202.895 112.996 202.108 114.307 200.856 114.993C200.481 116.622 199.037 117.8 197.324 117.8C196.703 117.8 196.1 117.641 195.566 117.342C195.169 117.678 194.663 117.87 194.121 117.87C193.668 117.87 193.236 117.733 192.874 117.49C192.824 117.545 192.772 117.6 192.719 117.653C191.873 118.502 190.748 118.969 189.552 118.969C188.355 118.969 187.23 118.501 186.384 117.653C186.334 117.603 186.286 117.552 186.238 117.5C185.397 118.452 184.176 119.025 182.872 119.025C180.459 119.025 178.483 117.107 178.381 114.712C176.832 114.659 175.588 113.379 175.588 111.814C175.588 111.755 175.59 111.697 175.594 111.638C174.894 110.909 174.501 109.94 174.501 108.915C174.501 106.749 176.259 104.986 178.42 104.986C178.888 104.986 179.344 105.067 179.771 105.224C180.051 102.265 182.544 99.9427 185.568 99.9427Z" fill="#55A343"/>
<path d="M184.414 120.866C195.451 131.634 194.552 150.176 194.292 153.514C194.275 153.737 194.494 153.905 194.701 153.823C196.74 153.017 199.802 153.609 201.022 153.901C201.25 153.955 201.453 153.741 201.384 153.516C199.011 145.792 200.493 134.506 212.174 117.001C212.174 117.001 211.55 116.156 210.889 116.791C208.99 118.617 205.989 122.552 204.538 123.359C204.196 120.282 207.782 113.585 207.782 113.585C207.782 113.585 203.701 119.402 201.805 118.799C199.91 118.195 199.427 113.229 199.427 113.229L197.71 113.601C203.324 124.948 198.632 132.653 198.632 132.653C198.632 132.653 194.314 128.035 195.052 116.911L193.415 117.085C193.415 117.085 194.037 128.365 193.654 128.669C193.37 128.895 187.737 119.025 187.737 119.025L184.414 120.866Z" fill="#794F30"/>
<path d="M194.151 117.007C193.453 127.926 196.896 131.525 198.633 132.653C197.5 130.984 194.478 125.564 195.052 116.911L194.151 117.007Z" fill="#71492C"/>
<path d="M200.909 118.799C201.141 118.872 201.406 118.849 201.691 118.753C199.891 117.99 199.427 113.229 199.427 113.229L198.552 113.418C198.663 114.329 199.234 118.265 200.909 118.799Z" fill="#71492C"/>
<path d="M204.538 123.359C204.685 120.077 207.782 113.585 207.782 113.585C207.782 113.585 207.094 115.189 205.852 116.557C204.427 119.616 204.393 123.49 204.538 123.359Z" fill="#71492C"/>
<path d="M193.654 128.669C192.04 126.198 187.737 119.024 187.737 119.024L187.057 119.401C187.939 120.94 189.978 125.013 193.654 128.669Z" fill="#71492C"/>
<path d="M212.174 117.001C212.174 117.001 211.604 116.234 210.978 116.717C211.162 116.845 211.278 117.001 211.278 117.001C198.779 133.003 196.846 143.093 200.487 153.516C200.52 153.609 200.495 153.702 200.447 153.773C200.666 153.818 200.861 153.862 201.022 153.901C201.25 153.955 201.453 153.741 201.384 153.516C199.011 145.791 200.493 134.506 212.174 117.001Z" fill="#71492C"/>
<path d="M194.316 153.658C194.378 153.801 194.543 153.886 194.701 153.823C195.337 153.572 196.072 153.457 196.819 153.426C195.97 153.394 195.094 153.447 194.316 153.658Z" fill="#71492C"/>
<path d="M220.486 102.702C220.406 102.702 220.325 102.703 220.244 102.706C220.264 102.503 220.273 102.299 220.273 102.094C220.273 98.2915 216.991 95.1982 212.957 95.1982C211.116 95.1982 209.374 95.8516 208.048 96.9817C207.159 95.3985 205.392 94.3149 203.37 94.3149C200.999 94.3149 198.987 95.7927 198.317 97.8221C197.675 97.5838 196.986 97.4584 196.286 97.4584C193.214 97.4584 190.714 99.814 190.714 102.709C190.714 103.19 190.785 103.666 190.923 104.127C189.181 104.37 186.043 106.132 186.006 109.048C185.128 108.489 184.103 108.183 183.051 108.183C180.165 108.183 177.789 110.415 177.549 113.247C177.46 113.242 177.37 113.239 177.281 113.239C174.827 113.239 172.832 115.24 172.832 117.7C172.832 120.161 174.827 122.162 177.281 122.162C178.489 122.162 179.639 121.664 180.471 120.806C180.968 120.915 181.475 120.97 181.985 120.97C182.813 120.97 183.622 120.827 184.396 120.543C186.124 121.705 188.125 122.316 190.218 122.316C192.723 122.316 195.09 121.442 196.979 119.836C197.885 120.579 199.022 120.991 200.216 120.991C202.43 120.991 204.32 119.574 205.032 117.597C205.488 117.733 205.968 117.806 206.461 117.806C207.543 117.806 208.563 117.466 209.383 116.865C210.454 118.47 212.337 119.49 214.449 119.49C216.852 119.49 218.978 118.149 219.924 116.133C220.112 116.147 220.3 116.154 220.487 116.154C224.422 116.154 227.624 113.137 227.624 109.428C227.623 105.719 224.422 102.702 220.486 102.702Z" fill="#5CB248"/>
<path d="M194.112 107.404C194.838 107.823 195.039 108.834 195.039 108.834C195.039 108.834 194.066 109.167 193.341 108.749C192.616 108.33 192.414 107.319 192.414 107.319C192.414 107.319 193.387 106.986 194.112 107.404Z" fill="#55A343"/>
<path d="M196.446 107.822C196.06 108.566 195.061 108.811 195.061 108.811C195.061 108.811 194.688 107.85 195.074 107.106C195.46 106.362 196.46 106.117 196.46 106.117C196.46 106.117 196.832 107.078 196.446 107.822Z" fill="#55A343"/>
<path d="M207.544 100.722C207.859 101.499 207.399 102.421 207.399 102.421C207.399 102.421 206.427 102.084 206.112 101.308C205.796 100.531 206.256 99.6086 206.256 99.6086C206.256 99.6086 207.228 99.9457 207.544 100.722Z" fill="#55A343"/>
<path d="M209.129 102.489C208.369 102.838 207.43 102.416 207.43 102.416C207.43 102.416 207.725 101.428 208.485 101.079C209.246 100.73 210.184 101.152 210.184 101.152C210.184 101.152 209.89 102.14 209.129 102.489Z" fill="#55A343"/>
<path d="M213.717 112.833C214.032 113.609 213.572 114.532 213.572 114.532C213.572 114.532 212.6 114.195 212.285 113.418C211.969 112.642 212.429 111.72 212.429 111.72C212.429 111.72 213.401 112.056 213.717 112.833Z" fill="#55A343"/>
<path d="M215.303 114.6C214.542 114.949 213.604 114.527 213.604 114.527C213.604 114.527 213.899 113.538 214.659 113.19C215.42 112.841 216.358 113.263 216.358 113.263C216.358 113.263 216.063 114.251 215.303 114.6Z" fill="#55A343"/>
<path d="M198.442 96.2075C198.757 96.9841 198.297 97.9064 198.297 97.9064C198.297 97.9064 197.325 97.5696 197.01 96.7929C196.694 96.0163 197.154 95.094 197.154 95.094C197.154 95.094 198.126 95.4308 198.442 96.2075Z" fill="#5CB248"/>
<path d="M221.853 102.579C221.156 103.042 220.164 102.77 220.164 102.77C220.164 102.77 220.302 101.748 221 101.285C221.698 100.823 222.69 101.095 222.69 101.095C222.69 101.095 222.551 102.116 221.853 102.579Z" fill="#5CB248"/>
<path d="M220.466 117.554C219.843 116.994 219.855 115.962 219.855 115.962C219.855 115.962 220.876 115.839 221.499 116.399C222.121 116.959 222.109 117.991 222.109 117.991C222.109 117.991 221.089 118.114 220.466 117.554Z" fill="#5CB248"/>
<path d="M196.347 121.213C196.315 120.375 197.063 119.667 197.063 119.667C197.063 119.667 197.861 120.317 197.892 121.155C197.923 121.994 197.176 122.702 197.176 122.702C197.176 122.702 196.378 122.052 196.347 121.213Z" fill="#5CB248"/>
<path d="M135.71 65.6883C135.373 64.9005 134.593 64.3483 133.683 64.3483C133.399 64.3483 133.128 64.4042 132.878 64.5026C132.902 64.3525 132.918 64.1997 132.918 64.0426C132.918 62.4467 131.628 61.1529 130.036 61.1529C129.195 61.1529 128.44 61.5169 127.913 62.0938C127.514 60.6097 126.167 59.5159 124.561 59.5159C122.642 59.5159 121.086 61.0758 121.086 63.0004C121.086 63.2194 121.109 63.433 121.147 63.6411C120.666 63.1007 119.968 62.7584 119.189 62.7584C117.738 62.7584 116.562 63.9381 116.562 65.3932C116.562 65.4929 116.568 65.5913 116.578 65.6883H135.71Z" fill="#F7FBFC"/>
<path d="M202.32 50.7308H220.928C220.921 50.7194 220.914 50.7076 220.906 50.6961C221.861 50.3575 222.546 49.4467 222.546 48.3734C222.546 47.0116 221.445 45.9075 220.087 45.9075C219.631 45.9075 219.205 46.0344 218.839 46.2516C218.755 44.1307 217.019 42.4354 214.883 42.4354C212.802 42.4354 211.098 44.0449 210.935 46.09C210.408 45.0357 209.323 44.3101 208.067 44.3101C206.294 44.3101 204.857 45.7514 204.857 47.5291C204.857 48.197 205.06 48.8172 205.407 49.3316C205.234 49.3002 205.057 49.2815 204.875 49.2815C203.79 49.2812 202.841 49.8624 202.32 50.7308Z" fill="#EFF7F8"/>
<path d="M71.7857 86.4479C71.3862 85.567 70.54 84.9336 69.5351 84.8432C69.8258 84.3536 69.996 83.7832 69.996 83.1718C69.996 81.363 68.5335 79.8964 66.7296 79.8964C65.9039 79.8964 65.152 80.206 64.577 80.7126C64.5815 80.6449 64.5872 80.5776 64.5872 80.5084C64.5872 78.814 63.2175 77.4402 61.5275 77.4402C59.8454 77.4402 58.4814 78.8016 58.469 80.4857C57.6936 79.0814 56.2019 78.1301 54.4878 78.1301C51.9761 78.1301 49.9397 80.1722 49.9397 82.6909C49.9397 83.2078 50.0267 83.7038 50.1846 84.1672C49.7951 84.0545 49.3842 83.9929 48.9586 83.9929C47.227 83.9929 45.729 84.9928 45.0054 86.4479H71.7857Z" fill="#EFF7F8"/>
<path d="M171.507 56.9207C177.25 56.1413 178.687 56.6893 180.039 54.2956L177.992 54.8207C176.415 52.047 176.146 51.7307 172.9 49.8094C175.335 53.7948 174.594 52.1968 175.624 55.2553L171.507 56.9207Z" fill="#43484E"/>
<path d="M187.256 61.2807C190.106 60.8937 190.819 61.1659 191.49 59.9781L190.475 60.2388C189.692 58.8625 189.558 58.7054 187.947 57.7521C189.156 59.7298 188.788 58.9368 189.299 60.4545L187.256 61.2807Z" fill="#43484E"/>
<path d="M194.678 49.1963C194.678 49.1963 194.275 48.8489 194.291 48.7323C194.421 47.7683 194.83 46.5721 195.351 45.6281C194.042 46.518 192.887 47.5224 192.888 48.5145C191.48 48.2368 189.373 46.3498 189.373 46.3498C189.954 47.8901 191.356 50.1484 192.177 50.4296C191.556 50.5855 191.416 50.5481 190.459 50.4988L191.177 51.0985C192.869 50.4734 193.693 50.3985 194.284 49.6128C194.375 49.4914 194.629 49.4349 194.678 49.1963Z" fill="#43484E"/>
<path d="M203.081 77.5077H99.9746V150.605H203.081V77.5077Z" fill="#E3E2DC"/>
<path d="M203.081 149.659H62.3706V157.058H203.081V149.659Z" fill="#43484E"/>
<path d="M151.528 44.2464L99.9746 77.5077H203.081L151.528 44.2464Z" fill="#E3E2DC"/>
<path d="M137.579 102.131H62.3706V149.659H137.579V102.131Z" fill="#F0F0EC"/>
<path d="M99.9748 77.5077L62.3706 102.131H137.579L99.9748 77.5077Z" fill="#F0F0EC"/>
<path d="M203.146 75.7359L151.527 42.5473L99.2029 76.306L62.2964 100.152V107.605L100.746 82.7629L151.53 49.998L203.146 83.1845V75.7359Z" fill="#DADADA"/>
<path d="M56.6503 107.201L55.106 104.797L99.2027 76.306L151.527 42.5473L209.444 79.7853L207.904 82.1924L151.53 45.9455L100.746 78.7101L56.6503 107.201Z" fill="white"/>
<path d="M140.954 103.152H137.579V157.058H140.954V103.152Z" fill="#DADADA"/>
<path d="M55.106 104.797L99.2027 76.306L151.527 42.5473L209.444 79.7853" stroke="#1D1D1B" stroke-width="1.68727" stroke-miterlimit="10"/>
<path d="M140.968 108.924L142.23 109.711L143.061 107.157L140.954 105.773L140.968 108.924Z" fill="#DADADA"/>
<path d="M58.7531 143.117C55.5913 143.111 53.0229 145.676 53.0169 148.847C53.0154 149.673 53.191 150.456 53.5028 151.166C53.2467 151.095 52.978 151.054 52.6994 151.053C51.0263 151.05 49.6674 152.408 49.6641 154.085C49.6608 155.763 51.0145 157.126 52.6876 157.129L78.2813 157.178C79.5384 157.18 80.5593 156.161 80.5617 154.9C80.5641 153.64 79.5471 152.616 78.2901 152.613C77.7807 152.612 77.3116 152.781 76.9318 153.064C77.0423 152.703 77.1029 152.319 77.1038 151.922C77.108 149.755 75.3596 147.995 73.1991 147.991C71.8769 147.989 70.7093 148.646 69.999 149.651C69.6975 148.141 68.3693 147.002 66.7739 146.999C65.8407 146.997 64.9987 147.386 64.398 148.01C63.989 145.247 61.623 143.122 58.7531 143.117Z" fill="#55A343"/>
<path d="M38.5557 157.178C38.6533 156.967 38.8665 156.819 39.1148 156.819C39.2193 156.819 39.3163 156.848 39.4025 156.894C39.582 156.475 39.9962 156.182 40.4794 156.182C40.6695 156.182 40.8466 156.232 41.0054 156.312C41.3186 155.653 41.9874 155.196 42.7646 155.196C43.1881 155.196 43.5789 155.333 43.8988 155.563C44.2566 154.102 45.5679 153.017 47.1353 153.017C47.3338 153.017 47.5272 153.037 47.7161 153.071C48.1535 151.273 49.7657 149.937 51.6937 149.937C53.3445 149.937 54.7636 150.917 55.4128 152.328C55.6565 149.499 58.0194 147.279 60.9032 147.279C62.6031 147.279 64.1223 148.051 65.1338 149.264C65.3938 149.17 65.673 149.116 65.9655 149.116C67.3193 149.116 68.417 150.217 68.417 151.575C68.417 152.221 68.1661 152.808 67.7588 153.247C68.821 153.685 69.5693 154.732 69.5693 155.955C69.5693 156.392 69.4732 156.806 69.3018 157.179H38.5557V157.178Z" fill="#5CB248"/>
<path d="M62.7256 152.319C62.5626 152.72 62.8 153.196 62.8 153.196C62.8 153.196 63.3019 153.022 63.4652 152.621C63.6281 152.22 63.3907 151.744 63.3907 151.744C63.3907 151.744 62.8886 151.918 62.7256 152.319Z" fill="#55A343"/>
<path d="M61.9068 153.231C62.2996 153.411 62.784 153.193 62.784 153.193C62.784 153.193 62.6318 152.683 62.239 152.503C61.8462 152.322 61.3618 152.541 61.3618 152.541C61.3618 152.541 61.5139 153.051 61.9068 153.231Z" fill="#55A343"/>
<path d="M73.8918 151.034C73.473 151.141 73.2314 151.615 73.2314 151.615C73.2314 151.615 73.6688 151.917 74.0876 151.811C74.5063 151.704 74.7479 151.23 74.7479 151.23C74.7479 151.23 74.3105 150.928 73.8918 151.034Z" fill="#448F35"/>
<path d="M72.6741 150.914C72.7624 151.338 73.2248 151.6 73.2248 151.6C73.2248 151.6 73.5441 151.175 73.4561 150.751C73.3679 150.327 72.9055 150.065 72.9055 150.065C72.9055 150.065 72.5858 150.491 72.6741 150.914Z" fill="#448F35"/>
<path d="M58.5494 144.73C58.3581 145.118 58.5609 145.611 58.5609 145.611C58.5609 145.611 59.0739 145.473 59.2652 145.085C59.4565 144.697 59.2537 144.205 59.2537 144.205C59.2537 144.205 58.741 144.341 58.5494 144.73Z" fill="#448F35"/>
<path d="M57.6679 145.581C58.0465 145.789 58.5457 145.606 58.5457 145.606C58.5457 145.606 58.4303 145.086 58.0516 144.878C57.673 144.67 57.1738 144.853 57.1738 144.853C57.1738 144.853 57.2892 145.373 57.6679 145.581Z" fill="#448F35"/>
<path d="M50.8245 155.044C50.4597 155.205 50.313 155.675 50.313 155.675C50.313 155.675 50.7579 155.882 51.1227 155.72C51.4875 155.558 51.6339 155.089 51.6339 155.089C51.6339 155.089 51.1893 154.882 50.8245 155.044Z" fill="#55A343"/>
<path d="M49.6967 155.124C49.8425 155.496 50.3043 155.663 50.3043 155.663C50.3043 155.663 50.5293 155.226 50.3832 154.853C50.2374 154.481 49.7756 154.314 49.7756 154.314C49.7756 154.314 49.5509 154.751 49.6967 155.124Z" fill="#55A343"/>
<path d="M58.0943 155.205C57.8648 155.533 57.9802 156.011 57.9802 156.011C57.9802 156.011 58.4679 155.959 58.6974 155.631C58.927 155.304 58.8116 154.826 58.8116 154.826C58.8116 154.826 58.3242 154.878 58.0943 155.205Z" fill="#55A343"/>
<path d="M57.1692 155.857C57.4855 156.101 57.9666 156.005 57.9666 156.005C57.9666 156.005 57.935 155.514 57.6187 155.27C57.3024 155.027 56.8213 155.122 56.8213 155.122C56.8213 155.122 56.8529 155.613 57.1692 155.857Z" fill="#55A343"/>
<path d="M47.0917 152.78C47.3227 153.099 47.8044 153.143 47.8044 153.143C47.8044 153.143 47.9111 152.67 47.68 152.351C47.449 152.032 46.9676 151.988 46.9676 151.988C46.9676 151.988 46.8606 152.461 47.0917 152.78Z" fill="#5CB248"/>
<path d="M68.4557 153.4C68.7949 153.269 68.9489 152.848 68.9489 152.848C68.9489 152.848 68.553 152.64 68.2138 152.771C67.8746 152.902 67.7207 153.323 67.7207 153.323C67.7207 153.323 68.1165 153.531 68.4557 153.4Z" fill="#5CB248"/>
<path d="M77.1416 155.041C77.3739 154.78 77.3209 154.352 77.3209 154.352C77.3209 154.352 76.8913 154.349 76.6591 154.611C76.4268 154.873 76.4798 155.3 76.4798 155.3C76.4798 155.3 76.9094 155.303 77.1416 155.041Z" fill="#448F35"/>
<path d="M192.245 152.698C191.572 153.756 191.176 155.009 191.176 156.357C191.176 156.571 191.187 156.782 191.207 156.99H229.317C229.4 156.599 229.444 156.194 229.444 155.778C229.444 152.548 226.833 149.93 223.611 149.93C223.255 149.93 222.909 149.966 222.57 150.028C223.25 149.022 223.647 147.808 223.647 146.501C223.647 143.023 220.835 140.204 217.367 140.204C214.909 140.204 212.786 141.623 211.755 143.686C211.436 139.685 208.103 136.536 204.031 136.536C199.853 136.536 196.455 139.852 196.291 144.002C195.575 143.577 194.741 143.329 193.848 143.329C191.191 143.329 189.037 145.488 189.037 148.153C189.037 150.253 190.377 152.035 192.245 152.698Z" fill="#55A343"/>
<path d="M233.063 156.99C233.186 156.672 233.256 156.328 233.256 155.966C233.256 154.399 231.989 153.128 230.426 153.128C229.965 153.128 229.531 153.241 229.146 153.437C229.018 150.718 226.786 148.551 224.042 148.551C222.459 148.551 221.044 149.273 220.106 150.406C220.02 148.193 218.209 146.425 215.981 146.425C214.745 146.425 213.639 146.972 212.882 147.834C212.691 145.473 210.724 143.616 208.32 143.616C206.105 143.616 204.257 145.194 203.833 147.291C203.585 147.235 203.328 147.203 203.063 147.203C201.127 147.203 199.557 148.777 199.557 150.719C199.557 151.388 199.747 152.011 200.07 152.543C198.366 152.749 197.044 154.201 197.044 155.966C197.044 156.323 197.101 156.666 197.202 156.99H233.063Z" fill="#5CB248"/>
<path d="M208.547 149.473C209.376 149.768 209.776 150.776 209.776 150.776C209.776 150.776 208.832 151.305 208.003 151.011C207.174 150.716 206.774 149.708 206.774 149.708C206.774 149.708 207.718 149.178 208.547 149.473Z" fill="#55A343"/>
<path d="M211.039 149.461C210.78 150.304 209.793 150.747 209.793 150.747C209.793 150.747 209.226 149.824 209.485 148.981C209.743 148.138 210.73 147.695 210.73 147.695C210.73 147.695 211.298 148.618 211.039 149.461Z" fill="#55A343"/>
<path d="M194.572 148.662C195.425 148.878 195.917 149.844 195.917 149.844C195.917 149.844 195.026 150.46 194.174 150.243C193.321 150.027 192.829 149.061 192.829 149.061C192.829 149.061 193.72 148.446 194.572 148.662Z" fill="#448F35"/>
<path d="M197.053 148.418C196.874 149.282 195.932 149.815 195.932 149.815C195.932 149.815 195.281 148.949 195.461 148.085C195.641 147.222 196.582 146.689 196.582 146.689C196.582 146.689 197.233 147.555 197.053 148.418Z" fill="#448F35"/>
<path d="M221.873 153.677C222.341 154.343 222.106 155.317 222.106 155.317C222.106 155.317 221.112 155.21 220.645 154.544C220.177 153.878 220.413 152.904 220.413 152.904C220.413 152.904 221.406 153.011 221.873 153.677Z" fill="#55A343"/>
<path d="M223.758 155.003C223.114 155.5 222.134 155.305 222.134 155.305C222.134 155.305 222.198 154.305 222.842 153.809C223.486 153.313 224.466 153.508 224.466 153.508C224.466 153.508 224.402 154.507 223.758 155.003Z" fill="#55A343"/>
<path d="M230.405 152.785C229.935 153.434 228.954 153.524 228.954 153.524C228.954 153.524 228.737 152.561 229.208 151.912C229.679 151.263 230.659 151.173 230.659 151.173C230.659 151.173 230.876 152.135 230.405 152.785Z" fill="#5CB248"/>
<path d="M195.047 143.567C194.574 143.034 194.682 142.163 194.682 142.163C194.682 142.163 195.557 142.157 196.03 142.69C196.503 143.223 196.395 144.094 196.395 144.094C196.395 144.094 195.52 144.1 195.047 143.567Z" fill="#55A343"/>
<g clip-path="url(#clip1_5223_2990)">
<path d="M151.537 84.3072H119.268C118.22 84.3072 117.37 85.157 117.37 86.2053V129.863C117.37 130.912 118.22 131.762 119.268 131.762H151.537C152.586 131.762 153.435 130.912 153.435 129.863V86.2053C153.435 85.157 152.586 84.3072 151.537 84.3072Z" fill="#C1D1F7"/>
<path d="M151.537 128.914H119.268C118.765 128.914 118.282 128.714 117.926 128.358C117.57 128.002 117.37 127.52 117.37 127.016V129.863C117.37 130.367 117.57 130.85 117.926 131.206C118.282 131.562 118.765 131.762 119.268 131.762H151.537C152.041 131.762 152.524 131.562 152.879 131.206C153.235 130.85 153.435 130.367 153.435 129.863V127.016C153.435 127.52 153.235 128.002 152.879 128.358C152.524 128.714 152.041 128.914 151.537 128.914Z" fill="#ADBEEE"/>
<path d="M151.538 132.711H126.861C126.61 132.711 126.368 132.611 126.19 132.433C126.012 132.255 125.912 132.013 125.912 131.762C125.912 131.51 126.012 131.268 126.19 131.09C126.368 130.913 126.61 130.813 126.861 130.813H151.538C151.789 130.813 152.031 130.713 152.209 130.535C152.387 130.357 152.487 130.115 152.487 129.863V86.2054C152.487 85.9537 152.387 85.7123 152.209 85.5343C152.031 85.3563 151.789 85.2563 151.538 85.2563H119.269C119.017 85.2563 118.776 85.3563 118.598 85.5343C118.42 85.7123 118.32 85.9537 118.32 86.2054V129.863C118.32 130.115 118.42 130.357 118.598 130.535C118.776 130.713 119.017 130.813 119.269 130.813H123.065C123.317 130.813 123.558 130.913 123.736 131.09C123.914 131.268 124.014 131.51 124.014 131.762C124.014 132.013 123.914 132.255 123.736 132.433C123.558 132.611 123.317 132.711 123.065 132.711H119.269C118.514 132.711 117.789 132.411 117.255 131.877C116.721 131.343 116.421 130.619 116.421 129.863V86.2054C116.421 85.4502 116.721 84.726 117.255 84.1921C117.789 83.6581 118.514 83.3581 119.269 83.3581H151.538C152.293 83.3581 153.017 83.6581 153.551 84.1921C154.085 84.726 154.385 85.4502 154.385 86.2054V129.863C154.385 130.619 154.085 131.343 153.551 131.877C153.017 132.411 152.293 132.711 151.538 132.711Z" fill="black"/>
<path d="M162.927 99.4926V135.558C162.927 136.061 162.727 136.544 162.371 136.9C162.015 137.256 161.532 137.456 161.028 137.456H128.76C128.256 137.456 127.773 137.256 127.417 136.9C127.061 136.544 126.861 136.061 126.861 135.558V91.8999C126.861 91.3965 127.061 90.9136 127.417 90.5577C127.773 90.2017 128.256 90.0017 128.76 90.0017H153.436L162.927 99.4926Z" fill="#EAF2FF"/>
<path d="M161.028 134.609H128.76C128.256 134.609 127.773 134.409 127.417 134.053C127.061 133.697 126.861 133.214 126.861 132.711V135.558C126.861 136.061 127.061 136.544 127.417 136.9C127.773 137.256 128.256 137.456 128.76 137.456H161.028C161.532 137.456 162.015 137.256 162.371 136.9C162.727 136.544 162.927 136.061 162.927 135.558V132.711C162.927 133.214 162.727 133.697 162.371 134.053C162.015 134.409 161.532 134.609 161.028 134.609Z" fill="#C1D1F7"/>
<path d="M161.028 138.405H128.759C128.004 138.405 127.28 138.105 126.746 137.571C126.212 137.037 125.912 136.313 125.912 135.558V91.8999C125.912 91.1448 126.212 90.4206 126.746 89.8866C127.28 89.3526 128.004 89.0526 128.759 89.0526H153.436C153.56 89.0525 153.684 89.077 153.799 89.1246C153.914 89.1723 154.019 89.2421 154.107 89.3303L163.598 98.8211C163.686 98.9093 163.756 99.014 163.804 99.1293C163.851 99.2445 163.876 99.3679 163.876 99.4926V103.289C163.876 103.541 163.776 103.782 163.598 103.96C163.42 104.138 163.178 104.238 162.927 104.238C162.675 104.238 162.433 104.138 162.255 103.96C162.077 103.782 161.977 103.541 161.977 103.289V99.8853L153.043 90.9508H128.759C128.508 90.9508 128.266 91.0508 128.088 91.2288C127.91 91.4068 127.81 91.6482 127.81 91.8999V135.558C127.81 135.81 127.91 136.051 128.088 136.229C128.266 136.407 128.508 136.507 128.759 136.507H161.028C161.28 136.507 161.521 136.407 161.699 136.229C161.877 136.051 161.977 135.81 161.977 135.558V108.983C161.977 108.732 162.077 108.49 162.255 108.312C162.433 108.134 162.675 108.034 162.927 108.034C163.178 108.034 163.42 108.134 163.598 108.312C163.776 108.49 163.876 108.732 163.876 108.983V135.558C163.876 136.313 163.576 137.037 163.042 137.571C162.508 138.105 161.784 138.405 161.028 138.405Z" fill="black"/>
<path d="M162.927 100.442H155.334C154.579 100.442 153.855 100.142 153.321 99.6077C152.787 99.0738 152.487 98.3496 152.487 97.5944V90.0017C152.487 89.8139 152.542 89.6303 152.647 89.474C152.751 89.3178 152.899 89.1961 153.073 89.1242C153.246 89.0523 153.437 89.0335 153.621 89.0702C153.805 89.1068 153.975 89.1974 154.107 89.3302L163.598 98.8211C163.731 98.9539 163.822 99.123 163.858 99.3072C163.895 99.4914 163.876 99.6824 163.804 99.8559C163.732 100.029 163.611 100.178 163.454 100.282C163.298 100.386 163.115 100.442 162.927 100.442ZM154.385 92.2926V97.5944C154.385 97.8461 154.485 98.0875 154.663 98.2655C154.841 98.4435 155.082 98.5435 155.334 98.5435H160.636L154.385 92.2926Z" fill="black"/>
<path d="M162.926 99.4926H155.334C154.83 99.4926 154.347 99.2926 153.992 98.9366C153.636 98.5806 153.436 98.0978 153.436 97.5944V90.0017L162.926 99.4926Z" fill="#C1D1F7"/>
<path d="M162.927 100.442H155.334C154.579 100.442 153.855 100.142 153.321 99.6077C152.787 99.0738 152.487 98.3496 152.487 97.5944V90.0017C152.487 89.8139 152.542 89.6303 152.647 89.474C152.751 89.3178 152.899 89.1961 153.073 89.1242C153.246 89.0523 153.437 89.0335 153.621 89.0702C153.805 89.1068 153.975 89.1974 154.107 89.3302L163.598 98.8211C163.731 98.9539 163.822 99.123 163.858 99.3072C163.895 99.4914 163.876 99.6824 163.804 99.8559C163.732 100.029 163.611 100.178 163.454 100.282C163.298 100.386 163.115 100.442 162.927 100.442ZM154.385 92.2926V97.5944C154.385 97.8461 154.485 98.0875 154.663 98.2655C154.841 98.4435 155.082 98.5435 155.334 98.5435H160.636L154.385 92.2926Z" fill="black"/>
<path d="M132.556 95.6962H147.742V99.4926H132.556V95.6962Z" fill="#E38343"/>
<path d="M147.741 100.442H132.556C132.304 100.442 132.063 100.342 131.885 100.164C131.707 99.9857 131.607 99.7443 131.607 99.4926V95.6962C131.607 95.4445 131.707 95.2031 131.885 95.0251C132.063 94.8471 132.304 94.7471 132.556 94.7471H147.741C147.993 94.7471 148.235 94.8471 148.413 95.0251C148.591 95.2031 148.691 95.4445 148.691 95.6962V99.4926C148.691 99.7443 148.591 99.9857 148.413 100.164C148.235 100.342 147.993 100.442 147.741 100.442ZM133.505 98.5435H146.792V96.6453H133.505V98.5435Z" fill="black"/>
<path d="M132.556 104.238H138.251V109.933H132.556V104.238Z" fill="#B1DA7A"/>
<path d="M138.251 110.882H132.556C132.304 110.882 132.063 110.782 131.885 110.604C131.707 110.426 131.607 110.184 131.607 109.933V104.238C131.607 103.986 131.707 103.745 131.885 103.567C132.063 103.389 132.304 103.289 132.556 103.289H138.251C138.502 103.289 138.744 103.389 138.922 103.567C139.1 103.745 139.2 103.986 139.2 104.238V109.933C139.2 110.184 139.1 110.426 138.922 110.604C138.744 110.782 138.502 110.882 138.251 110.882ZM133.505 108.983H137.301V105.187H133.505V108.983Z" fill="black"/>
<path d="M153.436 105.187H142.047C141.795 105.187 141.554 105.087 141.376 104.909C141.198 104.731 141.098 104.49 141.098 104.238C141.098 103.986 141.198 103.745 141.376 103.567C141.554 103.389 141.795 103.289 142.047 103.289H153.436C153.688 103.289 153.929 103.389 154.107 103.567C154.285 103.745 154.385 103.986 154.385 104.238C154.385 104.49 154.285 104.731 154.107 104.909C153.929 105.087 153.688 105.187 153.436 105.187Z" fill="black"/>
<path d="M153.436 108.983H142.047C141.795 108.983 141.554 108.883 141.376 108.705C141.198 108.528 141.098 108.286 141.098 108.034C141.098 107.783 141.198 107.541 141.376 107.363C141.554 107.185 141.795 107.085 142.047 107.085H153.436C153.688 107.085 153.929 107.185 154.107 107.363C154.285 107.541 154.385 107.783 154.385 108.034C154.385 108.286 154.285 108.528 154.107 108.705C153.929 108.883 153.688 108.983 153.436 108.983Z" fill="black"/>
<path d="M132.556 114.678H138.251V120.373H132.556V114.678Z" fill="#B1DA7A"/>
<path d="M138.251 121.322H132.556C132.304 121.322 132.063 121.222 131.885 121.044C131.707 120.866 131.607 120.624 131.607 120.373V114.678C131.607 114.426 131.707 114.185 131.885 114.007C132.063 113.829 132.304 113.729 132.556 113.729H138.251C138.502 113.729 138.744 113.829 138.922 114.007C139.1 114.185 139.2 114.426 139.2 114.678V120.373C139.2 120.624 139.1 120.866 138.922 121.044C138.744 121.222 138.502 121.322 138.251 121.322ZM133.505 119.423H137.301V115.627H133.505V119.423Z" fill="black"/>
<path d="M153.436 115.627H142.047C141.795 115.627 141.554 115.527 141.376 115.349C141.198 115.171 141.098 114.93 141.098 114.678C141.098 114.426 141.198 114.185 141.376 114.007C141.554 113.829 141.795 113.729 142.047 113.729H153.436C153.688 113.729 153.929 113.829 154.107 114.007C154.285 114.185 154.385 114.426 154.385 114.678C154.385 114.93 154.285 115.171 154.107 115.349C153.929 115.527 153.688 115.627 153.436 115.627Z" fill="black"/>
<path d="M153.436 119.423H142.047C141.795 119.423 141.554 119.323 141.376 119.145C141.198 118.967 141.098 118.726 141.098 118.474C141.098 118.223 141.198 117.981 141.376 117.803C141.554 117.625 141.795 117.525 142.047 117.525H153.436C153.688 117.525 153.929 117.625 154.107 117.803C154.285 117.981 154.385 118.223 154.385 118.474C154.385 118.726 154.285 118.967 154.107 119.145C153.929 119.323 153.688 119.423 153.436 119.423Z" fill="black"/>
<path d="M132.556 125.118H138.251V130.813H132.556V125.118Z" fill="#B1DA7A"/>
<path d="M138.251 131.762H132.556C132.304 131.762 132.063 131.662 131.885 131.484C131.707 131.306 131.607 131.064 131.607 130.812V125.118C131.607 124.866 131.707 124.625 131.885 124.447C132.063 124.269 132.304 124.169 132.556 124.169H138.251C138.502 124.169 138.744 124.269 138.922 124.447C139.1 124.625 139.2 124.866 139.2 125.118V130.812C139.2 131.064 139.1 131.306 138.922 131.484C138.744 131.662 138.502 131.762 138.251 131.762ZM133.505 129.863H137.301V126.067H133.505V129.863Z" fill="black"/>
<path d="M153.436 126.067H142.047C141.795 126.067 141.554 125.967 141.376 125.789C141.198 125.611 141.098 125.37 141.098 125.118C141.098 124.866 141.198 124.625 141.376 124.447C141.554 124.269 141.795 124.169 142.047 124.169H153.436C153.688 124.169 153.929 124.269 154.107 124.447C154.285 124.625 154.385 124.866 154.385 125.118C154.385 125.37 154.285 125.611 154.107 125.789C153.929 125.967 153.688 126.067 153.436 126.067Z" fill="black"/>
<path d="M153.436 129.863H142.047C141.795 129.863 141.554 129.763 141.376 129.585C141.198 129.407 141.098 129.166 141.098 128.914C141.098 128.663 141.198 128.421 141.376 128.243C141.554 128.065 141.795 127.965 142.047 127.965H153.436C153.688 127.965 153.929 128.065 154.107 128.243C154.285 128.421 154.385 128.663 154.385 128.914C154.385 129.166 154.285 129.407 154.107 129.585C153.929 129.763 153.688 129.863 153.436 129.863Z" fill="black"/>
<path d="M166.723 124.169L162.927 127.965L171.631 136.67C171.879 136.925 172.175 137.129 172.502 137.269C172.83 137.409 173.182 137.482 173.538 137.485C173.894 137.487 174.247 137.419 174.576 137.284C174.905 137.149 175.205 136.95 175.456 136.698C175.708 136.447 175.907 136.147 176.042 135.818C176.177 135.489 176.245 135.136 176.243 134.78C176.24 134.424 176.166 134.072 176.027 133.745C175.887 133.417 175.683 133.121 175.427 132.873L166.723 124.169Z" fill="#E38343"/>
<path d="M173.529 134.771L164.825 126.067L162.927 127.965L171.631 136.67C171.965 137.002 172.38 137.241 172.835 137.363C173.29 137.484 173.769 137.484 174.223 137.362C174.678 137.24 175.093 137.001 175.427 136.668C175.76 136.336 176 135.921 176.123 135.467C175.667 135.588 175.188 135.588 174.733 135.466C174.278 135.344 173.863 135.105 173.529 134.771Z" fill="#DF6117"/>
<path d="M173.529 138.405C173.051 138.406 172.579 138.312 172.138 138.129C171.697 137.945 171.297 137.677 170.96 137.337L162.255 128.633C162.167 128.545 162.097 128.44 162.049 128.325C162.001 128.21 161.977 128.086 161.977 127.962C161.977 127.837 162.001 127.713 162.049 127.598C162.097 127.483 162.167 127.378 162.255 127.29L166.051 123.494C166.139 123.406 166.244 123.336 166.359 123.288C166.475 123.24 166.598 123.215 166.723 123.215C166.847 123.215 166.971 123.24 167.086 123.288C167.201 123.336 167.306 123.406 167.394 123.494L176.095 132.203C176.603 132.711 176.949 133.358 177.09 134.062C177.23 134.767 177.159 135.497 176.884 136.161C176.609 136.825 176.144 137.393 175.547 137.792C174.95 138.192 174.247 138.405 173.529 138.405ZM164.268 127.965L172.299 135.999C172.625 136.325 173.067 136.508 173.528 136.508C173.989 136.508 174.431 136.325 174.757 135.999C175.083 135.673 175.266 135.231 175.266 134.77C175.266 134.309 175.083 133.867 174.757 133.541L166.723 125.511L164.268 127.965Z" fill="black"/>
<path d="M157.232 130.812C164.046 130.812 169.57 125.289 169.57 118.474C169.57 111.66 164.046 106.136 157.232 106.136C150.418 106.136 144.894 111.66 144.894 118.474C144.894 125.289 150.418 130.812 157.232 130.812Z" fill="#596060"/>
<path d="M157.232 127.965C154.206 127.965 151.286 126.854 149.026 124.841C146.766 122.829 145.325 120.056 144.976 117.051C144.776 118.779 144.944 120.53 145.468 122.189C145.993 123.849 146.862 125.378 148.02 126.677C149.177 127.976 150.596 129.016 152.184 129.728C153.772 130.44 155.492 130.808 157.232 130.808C158.972 130.808 160.693 130.44 162.28 129.728C163.868 129.016 165.287 127.976 166.445 126.677C167.602 125.378 168.472 123.849 168.996 122.189C169.521 120.53 169.689 118.779 169.488 117.051C169.139 120.056 167.698 122.829 165.438 124.841C163.178 126.854 160.258 127.965 157.232 127.965Z" fill="#4C5657"/>
<path d="M157.232 131.762C154.604 131.762 152.035 130.982 149.85 129.522C147.665 128.062 145.962 125.987 144.956 123.559C143.951 121.131 143.687 118.46 144.2 115.882C144.713 113.305 145.978 110.937 147.837 109.079C149.695 107.221 152.062 105.955 154.64 105.442C157.217 104.93 159.889 105.193 162.317 106.199C164.745 107.204 166.82 108.907 168.28 111.092C169.74 113.277 170.519 115.846 170.519 118.474C170.516 121.997 169.114 125.375 166.623 127.866C164.132 130.357 160.755 131.758 157.232 131.762ZM157.232 107.085C154.98 107.085 152.778 107.753 150.905 109.005C149.032 110.256 147.572 112.035 146.71 114.116C145.848 116.197 145.622 118.487 146.062 120.696C146.501 122.905 147.586 124.935 149.179 126.528C150.772 128.12 152.801 129.205 155.01 129.645C157.219 130.084 159.509 129.858 161.59 128.996C163.672 128.134 165.45 126.675 166.702 124.802C167.953 122.929 168.621 120.727 168.621 118.474C168.618 115.455 167.417 112.56 165.282 110.425C163.146 108.29 160.252 107.089 157.232 107.085Z" fill="black"/>
<path d="M157.232 127.016C161.95 127.016 165.774 123.192 165.774 118.474C165.774 113.757 161.95 109.933 157.232 109.933C152.515 109.933 148.69 113.757 148.69 118.474C148.69 123.192 152.515 127.016 157.232 127.016Z" fill="#B1DA7A"/>
<path d="M157.232 112.78C159.251 112.78 161.205 113.494 162.746 114.797C164.288 116.1 165.319 117.907 165.655 119.898C165.862 118.673 165.798 117.419 165.47 116.221C165.142 115.023 164.556 113.912 163.754 112.964C162.953 112.015 161.954 111.254 160.827 110.731C159.701 110.208 158.474 109.938 157.232 109.938C155.99 109.938 154.764 110.208 153.637 110.731C152.511 111.254 151.512 112.015 150.71 112.964C149.908 113.912 149.323 115.023 148.994 116.221C148.666 117.419 148.603 118.673 148.809 119.898C149.146 117.907 150.176 116.1 151.718 114.797C153.26 113.494 155.213 112.78 157.232 112.78Z" fill="#96BF5B"/>
<path d="M157.232 127.965C155.355 127.965 153.52 127.409 151.959 126.366C150.398 125.323 149.182 123.841 148.464 122.106C147.745 120.372 147.557 118.464 147.924 116.623C148.29 114.782 149.194 113.091 150.521 111.763C151.848 110.436 153.539 109.532 155.381 109.166C157.222 108.8 159.13 108.988 160.864 109.706C162.598 110.424 164.081 111.641 165.123 113.201C166.166 114.762 166.723 116.597 166.723 118.474C166.72 120.991 165.719 123.403 163.94 125.182C162.161 126.962 159.748 127.962 157.232 127.965ZM157.232 110.882C155.73 110.882 154.262 111.327 153.014 112.161C151.765 112.996 150.792 114.181 150.217 115.569C149.643 116.956 149.492 118.483 149.785 119.956C150.078 121.428 150.801 122.781 151.863 123.843C152.925 124.905 154.278 125.628 155.751 125.921C157.224 126.214 158.75 126.064 160.138 125.489C161.525 124.914 162.711 123.941 163.545 122.693C164.379 121.444 164.825 119.976 164.825 118.474C164.823 116.461 164.022 114.531 162.599 113.108C161.175 111.684 159.245 110.884 157.232 110.882Z" fill="black"/>
<path d="M156.56 121.993L153.713 119.146C153.535 118.968 153.435 118.726 153.435 118.474C153.435 118.223 153.535 117.981 153.713 117.803C153.891 117.625 154.133 117.525 154.385 117.525C154.637 117.525 154.878 117.625 155.056 117.803L157.232 119.98L161.306 115.905C161.484 115.727 161.726 115.627 161.977 115.627C162.229 115.627 162.471 115.727 162.649 115.905C162.827 116.083 162.927 116.324 162.927 116.576C162.927 116.828 162.827 117.07 162.649 117.248L157.903 121.993C157.815 122.081 157.711 122.151 157.595 122.199C157.48 122.247 157.357 122.271 157.232 122.271C157.107 122.271 156.984 122.247 156.868 122.199C156.753 122.151 156.649 122.081 156.56 121.993Z" fill="black"/>
</g>
</g>
<defs>
<clipPath id="clip0_5223_2990">
<rect width="269.963" height="205.003" fill="white" transform="translate(0 0.365601)"/>
</clipPath>
<clipPath id="clip1_5223_2990">
<rect width="60.7416" height="60.7416" fill="white" transform="translate(116.421 80.5108)"/>
</clipPath>
</defs>
</svg>
