<svg width="24" height="25" viewBox="0 0 24 25" fill="none" xmlns="http://www.w3.org/2000/svg">
<g clip-path="url(#clip0_5632_168)">
<path d="M3 12.5C3 13.6819 3.23279 14.8522 3.68508 15.9442C4.13738 17.0361 4.80031 18.0282 5.63604 18.864C6.47177 19.6997 7.46392 20.3626 8.55585 20.8149C9.64778 21.2672 10.8181 21.5 12 21.5C13.1819 21.5 14.3522 21.2672 15.4442 20.8149C16.5361 20.3626 17.5282 19.6997 18.364 18.864C19.1997 18.0282 19.8626 17.0361 20.3149 15.9442C20.7672 14.8522 21 13.6819 21 12.5C21 10.1131 20.0518 7.82387 18.364 6.13604C16.6761 4.44821 14.3869 3.5 12 3.5C9.61305 3.5 7.32387 4.44821 5.63604 6.13604C3.94821 7.82387 3 10.1131 3 12.5Z" stroke="#FF0169" stroke-width="2" stroke-linecap="round" stroke-linejoin="round"/>
<path d="M12 9.5H12.01" stroke="#FF0169" stroke-width="2" stroke-linecap="round" stroke-linejoin="round"/>
<path d="M11 12.5H12V16.5H13" stroke="#FF0169" stroke-width="2" stroke-linecap="round" stroke-linejoin="round"/>
</g>
<defs>
<clipPath id="clip0_5632_168">
<rect width="24" height="24" fill="white" transform="translate(0 0.5)"/>
</clipPath>
</defs>
</svg>
