<svg width="24" height="25" viewBox="0 0 24 25" fill="none" xmlns="http://www.w3.org/2000/svg">
<g clip-path="url(#clip0_5632_269)">
<path d="M10 6.5H7C6.46957 6.5 5.96086 6.71071 5.58579 7.08579C5.21071 7.46086 5 7.96957 5 8.5V17.5C5 18.0304 5.21071 18.5391 5.58579 18.9142C5.96086 19.2893 6.46957 19.5 7 19.5H16C16.5304 19.5 17.0391 19.2893 17.4142 18.9142C17.7893 18.5391 18 18.0304 18 17.5V14.5" stroke="#FF0169" stroke-width="2" stroke-linecap="round" stroke-linejoin="round"/>
<path d="M14 7.5C14 8.29565 14.3161 9.05871 14.8787 9.62132C15.4413 10.1839 16.2044 10.5 17 10.5C17.7956 10.5 18.5587 10.1839 19.1213 9.62132C19.6839 9.05871 20 8.29565 20 7.5C20 6.70435 19.6839 5.94129 19.1213 5.37868C18.5587 4.81607 17.7956 4.5 17 4.5C16.2044 4.5 15.4413 4.81607 14.8787 5.37868C14.3161 5.94129 14 6.70435 14 7.5Z" stroke="#FF0169" stroke-width="2" stroke-linecap="round" stroke-linejoin="round"/>
</g>
<defs>
<clipPath id="clip0_5632_269">
<rect width="24" height="24" fill="white" transform="translate(0 0.5)"/>
</clipPath>
</defs>
</svg>
