<svg width="24" height="25" viewBox="0 0 24 25" fill="none" xmlns="http://www.w3.org/2000/svg">
<g clip-path="url(#clip0_5632_191)">
<path d="M10 5.5C10 6.03043 10.2107 6.53914 10.5858 6.91421C10.9609 7.28929 11.4696 7.5 12 7.5C12.5304 7.5 13.0391 7.28929 13.4142 6.91421C13.7893 6.53914 14 6.03043 14 5.5C14 4.96957 13.7893 4.46086 13.4142 4.08579C13.0391 3.71071 12.5304 3.5 12 3.5C11.4696 3.5 10.9609 3.71071 10.5858 4.08579C10.2107 4.46086 10 4.96957 10 5.5Z" stroke="#FF0169" stroke-width="2" stroke-linecap="round" stroke-linejoin="round"/>
<path d="M3 19.5C3 20.0304 3.21071 20.5391 3.58579 20.9142C3.96086 21.2893 4.46957 21.5 5 21.5C5.53043 21.5 6.03914 21.2893 6.41421 20.9142C6.78929 20.5391 7 20.0304 7 19.5C7 18.9696 6.78929 18.4609 6.41421 18.0858C6.03914 17.7107 5.53043 17.5 5 17.5C4.46957 17.5 3.96086 17.7107 3.58579 18.0858C3.21071 18.4609 3 18.9696 3 19.5Z" stroke="#FF0169" stroke-width="2" stroke-linecap="round" stroke-linejoin="round"/>
<path d="M17 19.5C17 20.0304 17.2107 20.5391 17.5858 20.9142C17.9609 21.2893 18.4696 21.5 19 21.5C19.5304 21.5 20.0391 21.2893 20.4142 20.9142C20.7893 20.5391 21 20.0304 21 19.5C21 18.9696 20.7893 18.4609 20.4142 18.0858C20.0391 17.7107 19.5304 17.5 19 17.5C18.4696 17.5 17.9609 17.7107 17.5858 18.0858C17.2107 18.4609 17 18.9696 17 19.5Z" stroke="#FF0169" stroke-width="2" stroke-linecap="round" stroke-linejoin="round"/>
<path d="M6.5 18L12 13.5L17.5 18" stroke="#FF0169" stroke-width="2" stroke-linecap="round" stroke-linejoin="round"/>
<path d="M12 7.5V13.5" stroke="#FF0169" stroke-width="2" stroke-linecap="round" stroke-linejoin="round"/>
</g>
<defs>
<clipPath id="clip0_5632_191">
<rect width="24" height="24" fill="white" transform="translate(0 0.5)"/>
</clipPath>
</defs>
</svg>
