<svg width="24" height="25" viewBox="0 0 24 25" fill="none" xmlns="http://www.w3.org/2000/svg">
<g clip-path="url(#clip0_5632_156)">
<path d="M18.9998 9.21001L13.6668 5.06201C13.1988 4.69792 12.6227 4.50024 12.0298 4.50024C11.4368 4.50024 10.8608 4.69792 10.3928 5.06201L5.05879 9.21001C4.73823 9.4593 4.47888 9.77854 4.30054 10.1434C4.1222 10.5082 4.02959 10.9089 4.02979 11.315V18.515C4.02979 19.0454 4.2405 19.5542 4.61557 19.9292C4.99064 20.3043 5.49935 20.515 6.02979 20.515H18.0298C18.5602 20.515 19.0689 20.3043 19.444 19.9292C19.8191 19.5542 20.0298 19.0454 20.0298 18.515V11.315C20.0298 10.492 19.6498 9.71501 18.9998 9.21001Z" stroke="#FF0169" stroke-width="2" stroke-linecap="round" stroke-linejoin="round"/>
<path d="M16 15.5C13.79 16.833 10.208 16.833 8 15.5" stroke="#FF0169" stroke-width="2" stroke-linecap="round" stroke-linejoin="round"/>
</g>
<defs>
<clipPath id="clip0_5632_156">
<rect width="24" height="24" fill="white" transform="translate(0 0.5)"/>
</clipPath>
</defs>
</svg>
