<svg width="38" height="38" viewBox="0 0 38 38" fill="none" xmlns="http://www.w3.org/2000/svg">
<path d="M34.4375 14.25V13.6562C34.4375 13.6438 34.431 13.6331 34.4304 13.6206C34.4269 13.5668 34.4161 13.5136 34.3983 13.4627C34.3928 13.4438 34.3862 13.4251 34.3787 13.4069C34.351 13.3454 34.313 13.289 34.2665 13.24L34.263 13.2359L26.5442 5.51712C26.4329 5.40613 26.2822 5.34378 26.125 5.34375H23.75V3.5625C23.75 3.40503 23.6875 3.25401 23.5761 3.14266C23.4648 3.03131 23.3137 2.96875 23.1563 2.96875H20.1875C20.0301 2.96875 19.879 3.03131 19.7677 3.14266C19.6563 3.25401 19.5938 3.40503 19.5938 3.5625V5.34375H11.2813H11.2747H11.2694C11.2617 5.34375 11.2546 5.3485 11.2468 5.34909C11.1842 5.35263 11.1226 5.36647 11.0646 5.39006C11.0463 5.39761 11.0285 5.40613 11.0111 5.41559C10.9601 5.44171 10.9132 5.47533 10.8722 5.51534C10.8645 5.52306 10.8532 5.52603 10.8455 5.53434L3.72046 13.2531L4.59208 14.0594L11.3015 6.79428L18.4063 13.9021V24.3438H14.25V17.2188C14.25 17.0613 14.1875 16.9103 14.0761 16.7989C13.9648 16.6876 13.8137 16.625 13.6563 16.625H9.50002C9.34255 16.625 9.19153 16.6876 9.08018 16.7989C8.96883 16.9103 8.90627 17.0613 8.90627 17.2188V21.375H10.0938V17.8125H13.0625V24.3438H12.4688V25.5312H25.5313V24.3438H19.5938V14.25H34.4375ZM20.7813 4.15625H22.5625V7.71875H20.7813V4.15625ZM19.2458 13.0625L12.7146 6.53125H19.5938V8.3125C19.5938 8.46997 19.6563 8.621 19.7677 8.73234C19.879 8.84369 20.0301 8.90625 20.1875 8.90625H23.1563C23.3137 8.90625 23.4648 8.84369 23.5761 8.73234C23.6875 8.621 23.75 8.46997 23.75 8.3125V6.53125H25.8792L32.4105 13.0625H19.2458Z" fill="#6C6363"/>
<path d="M21.9688 16.625C21.8113 16.625 21.6603 16.6876 21.5489 16.7989C21.4376 16.9103 21.375 17.0613 21.375 17.2188V20.1875C21.375 20.345 21.4376 20.496 21.5489 20.6073C21.6603 20.7187 21.8113 20.7812 21.9688 20.7812H24.9375C25.095 20.7812 25.246 20.7187 25.3573 20.6073C25.4687 20.496 25.5312 20.345 25.5312 20.1875V17.2188C25.5312 17.0613 25.4687 16.9103 25.3573 16.7989C25.246 16.6876 25.095 16.625 24.9375 16.625H21.9688ZM24.3438 19.5938H22.5625V17.8125H24.3438V19.5938Z" fill="#6C6363"/>
<path d="M27.9062 16.625C27.7488 16.625 27.5978 16.6876 27.4864 16.7989C27.3751 16.9103 27.3125 17.0613 27.3125 17.2188V20.1875C27.3125 20.345 27.3751 20.496 27.4864 20.6073C27.5978 20.7187 27.7488 20.7812 27.9062 20.7812H30.875C31.0325 20.7812 31.1835 20.7187 31.2948 20.6073C31.4062 20.496 31.4688 20.345 31.4688 20.1875V17.2188C31.4688 17.0613 31.4062 16.9103 31.2948 16.7989C31.1835 16.6876 31.0325 16.625 30.875 16.625H27.9062ZM30.2812 19.5938H28.5V17.8125H30.2812V19.5938Z" fill="#6C6363"/>
<path d="M1.1875 23.8159C1.18833 24.6456 1.3814 25.4638 1.75156 26.2063L5.99984 34.7029L7.06266 34.1721L2.81378 25.6749C2.52608 25.0974 2.3759 24.4611 2.375 23.8159V16.9219C2.375 16.6857 2.46883 16.4591 2.63586 16.2921C2.80288 16.1251 3.02942 16.0313 3.26562 16.0313C3.50183 16.0313 3.72837 16.1251 3.89539 16.2921C4.06242 16.4591 4.15625 16.6857 4.15625 16.9219V23.75C4.15609 23.8917 4.20688 24.0286 4.29934 24.1359L5.04984 25.0123L5.06053 25.0242L7.86184 28.2898C7.96608 28.4026 8.10998 28.4707 8.26332 28.4796C8.41665 28.4886 8.5675 28.4378 8.68416 28.3379C8.80083 28.238 8.87424 28.0967 8.88896 27.9438C8.90369 27.7909 8.8586 27.6383 8.76316 27.5179L5.95531 24.244C5.80619 24.0698 5.73235 23.8436 5.75006 23.615C5.76776 23.3864 5.87555 23.1742 6.04972 23.025C6.22388 22.8759 6.45015 22.8021 6.67876 22.8198C6.90736 22.8375 7.11956 22.9453 7.26869 23.1194L10.2374 26.5157C10.2647 26.5467 10.2949 26.5749 10.3277 26.6C10.9906 27.0988 11.5288 27.7443 11.9003 28.486C12.2718 29.2278 12.4664 30.0455 12.4688 30.875V34.4375H13.6562V30.875C13.6537 29.8723 13.4215 28.8835 12.9775 27.9845C12.5335 27.0855 11.8895 26.3001 11.0948 25.6886L8.16288 22.3381C7.9606 22.1094 7.71043 21.9282 7.43018 21.8072C7.14992 21.6862 6.84645 21.6285 6.54134 21.638C6.10516 21.6539 5.68549 21.8089 5.34375 22.0804V16.9219C5.34375 16.3707 5.12481 15.8421 4.73508 15.4524C4.34536 15.0627 3.81678 14.8438 3.26562 14.8438C2.71447 14.8438 2.18589 15.0627 1.79617 15.4524C1.40644 15.8421 1.1875 16.3707 1.1875 16.9219V23.8159Z" fill="#6C6363"/>
<path d="M34.7344 14.8438C34.1832 14.8438 33.6546 15.0627 33.2649 15.4524C32.8752 15.8421 32.6562 16.3707 32.6562 16.9219V22.0804C32.3145 21.8089 31.8948 21.6539 31.4587 21.638C31.1537 21.6292 30.8504 21.6873 30.5703 21.8083C30.2901 21.9292 30.0399 22.1101 29.8371 22.3381L26.9052 25.6886C26.1105 26.3001 25.4665 27.0855 25.0225 27.9845C24.5785 28.8835 24.3463 29.8723 24.3438 30.875V34.4375H25.5312V30.875C25.5332 30.0458 25.7272 29.2282 26.0981 28.4865C26.4689 27.7448 27.0065 27.0991 27.6687 26.6C27.7015 26.5749 27.7317 26.5467 27.759 26.5157L30.7307 23.1194C30.8136 23.0203 30.9185 22.9418 31.037 22.8903C31.1556 22.8387 31.2845 22.8156 31.4135 22.8226C31.5752 22.8284 31.7319 22.8796 31.866 22.9702C32 23.0608 32.1059 23.1872 32.1716 23.335C32.2373 23.4828 32.2602 23.6461 32.2376 23.8063C32.2151 23.9664 32.148 24.1171 32.0441 24.241L29.2368 27.5203C29.1414 27.6407 29.0963 27.7933 29.111 27.9462C29.1258 28.0991 29.1992 28.2403 29.3158 28.3402C29.4325 28.4401 29.5833 28.491 29.7367 28.482C29.89 28.473 30.0339 28.405 30.1382 28.2922L32.9401 25.0266L32.9502 25.0147L33.7007 24.1383C33.7937 24.0304 33.8445 23.8925 33.8438 23.75V16.9219C33.8438 16.6857 33.9376 16.4591 34.1046 16.2921C34.2716 16.1251 34.4982 16.0313 34.7344 16.0313C34.9706 16.0313 35.1971 16.1251 35.3641 16.2921C35.5312 16.4591 35.625 16.6857 35.625 16.9219V23.8159C35.6241 24.4611 35.4739 25.0974 35.1862 25.6749L30.9373 34.1721L32.0002 34.7029L36.2484 26.2063C36.6186 25.4638 36.8117 24.6456 36.8125 23.8159V16.9219C36.8125 16.3707 36.5936 15.8421 36.2038 15.4524C35.8141 15.0627 35.2855 14.8437 34.7344 14.8438Z" fill="#6C6363"/>
</svg>
