<svg width="38" height="38" viewBox="0 0 38 38" fill="none" xmlns="http://www.w3.org/2000/svg">
<path d="M19.0001 5.6119C12.217 5.6119 6.69861 11.1303 6.69861 17.9134C6.69861 24.6964 12.217 30.2148 19.0001 30.2148C25.7831 30.2148 31.3015 24.6964 31.3015 17.9134C31.3015 11.1303 25.7831 5.6119 19.0001 5.6119ZM19.0001 29.0273C12.8718 29.0273 7.88611 24.0415 7.88611 17.9133C7.88611 11.785 12.8718 6.79933 19.0001 6.79933C25.1283 6.79933 30.114 11.785 30.114 17.9133C30.114 24.0415 25.1282 29.0273 19.0001 29.0273ZM24.7881 12.8502C24.6881 12.0941 24.0375 11.5239 23.2748 11.5239H21.9627V10.7919C21.9627 9.1583 20.6336 7.82926 19 7.82926C17.3664 7.82926 16.0374 9.1583 16.0374 10.7919V11.5239H14.7253C13.9626 11.5239 13.312 12.0941 13.212 12.8502L11.7568 23.8538C11.6989 24.2914 11.8316 24.7315 12.1207 25.0614C12.4099 25.3912 12.8288 25.5805 13.2701 25.5805H24.7301C25.1714 25.5805 25.5903 25.3913 25.8795 25.0614C26.1686 24.7315 26.3013 24.2914 26.2433 23.8538L24.7881 12.8502ZM17.2249 10.7919C17.2249 9.81313 18.0212 9.01684 19 9.01684C19.9788 9.01684 20.7752 9.81313 20.7752 10.7919V11.5239H17.2249V10.7919ZM24.9864 24.2787C24.949 24.3213 24.8659 24.393 24.7301 24.393H13.2701C13.1342 24.393 13.0511 24.3213 13.0137 24.2787C12.9763 24.236 12.9162 24.1443 12.934 24.0095L13.0148 23.3989H23.5404C23.8683 23.3989 24.1341 23.1331 24.1341 22.8052C24.1341 22.4773 23.8683 22.2114 23.5404 22.2114H13.1718L14.3893 13.0059C14.4119 12.8353 14.5532 12.7114 14.7253 12.7114H16.0374V13.7386C16.0374 14.0665 16.3033 14.3323 16.6312 14.3323C16.9591 14.3323 17.2249 14.0665 17.2249 13.7386V12.7114H20.7752V13.7386C20.7752 14.0665 21.041 14.3323 21.3689 14.3323C21.6968 14.3323 21.9627 14.0665 21.9627 13.7386V12.7114H23.2748C23.447 12.7114 23.5883 12.8353 23.6109 13.0059L25.0661 24.0095C25.0839 24.1442 25.0238 24.236 24.9864 24.2787ZM37.7467 27.6906C37.6759 27.479 37.4926 27.3251 37.272 27.2919L35.187 26.9782L35.4225 23.8477C35.4417 23.5926 35.2952 23.3538 35.0592 23.2553C34.8229 23.1566 34.5502 23.2204 34.3824 23.4137C32.5254 25.5502 30.2923 27.2482 27.7448 28.4607C27.6017 28.5287 27.4918 28.6512 27.4396 28.8007C27.3872 28.9503 27.3969 29.1145 27.4662 29.257L27.8714 30.0883C25.0924 31.3182 22.0666 31.9614 19 31.9614C15.9334 31.9614 12.9076 31.3182 10.1286 30.0882L10.5338 29.257C10.6033 29.1145 10.6128 28.9503 10.5605 28.8007C10.5082 28.6512 10.3983 28.5287 10.2552 28.4607C7.70776 27.2482 5.47452 25.5501 3.61771 23.4137C3.44983 23.2206 3.17708 23.1568 2.94091 23.2553C2.70475 23.3537 2.55824 23.5926 2.57746 23.8477L2.81303 26.9782L0.728081 27.2919C0.507503 27.325 0.324182 27.479 0.253378 27.6906C0.182573 27.9021 0.236307 28.1354 0.392389 28.2947C1.91009 29.843 3.61259 31.1947 5.45893 32.32L4.91892 33.2553C4.75504 33.5392 4.85212 33.902 5.13571 34.0661C9.33174 36.494 14.1259 37.7774 18.9999 37.7774C23.8739 37.7774 28.6681 36.494 32.8641 34.0661C33.1477 33.902 33.2448 33.5391 33.0809 33.2553L32.5409 32.32C34.3872 31.1947 36.0898 29.843 37.6075 28.2947C37.7637 28.1354 37.8173 27.9021 37.7465 27.6906H37.7467ZM2.08807 28.2882L3.53481 28.0706C3.84223 28.0243 4.06191 27.7488 4.03861 27.4389L3.8878 25.4344C5.45723 26.9799 7.23944 28.2647 9.20742 29.2681L9.05617 29.5785C8.71476 29.4045 8.37751 29.2217 8.04523 29.0294C7.90889 28.9505 7.74673 28.9291 7.59443 28.9697C7.44221 29.0105 7.3124 29.11 7.23365 29.2465L6.0532 31.2911C4.63585 30.4249 3.30703 29.4195 2.08814 28.2883L2.08807 28.2882ZM19.0001 36.5898C14.5337 36.5898 10.1375 35.4642 6.24743 33.3295L7.96871 30.3481C11.338 32.1822 15.1388 33.1489 19.0001 33.1489C22.8614 33.1489 26.6621 32.1822 30.0314 30.3481L31.7527 33.3295C27.8625 35.4642 23.4664 36.5898 19 36.5898H19.0001ZM31.947 31.2909L30.7666 29.2463C30.6877 29.1099 30.558 29.0103 30.4058 28.9696C30.2538 28.929 30.0915 28.9504 29.9551 29.0293C29.6228 29.2216 29.2854 29.4043 28.944 29.5783L28.7927 29.2679C30.7607 28.2645 32.5429 26.9797 34.1124 25.4342L33.9616 27.4387C33.9383 27.7487 34.158 28.0242 34.4653 28.0704L35.9121 28.288C34.6932 29.4193 33.3644 30.4247 31.947 31.2908V31.2909ZM30.8089 11.0956C30.6448 10.8116 30.7422 10.4484 31.0262 10.2845L33.5096 8.85066C33.7937 8.68671 34.1568 8.78416 34.3207 9.06797C34.4847 9.35193 34.3873 9.71509 34.1034 9.87903L31.6199 11.3129C31.5264 11.3668 31.4243 11.3925 31.3236 11.3925C31.1184 11.3925 30.9189 11.286 30.8089 11.0956ZM33.2294 17.3195H36.097C36.4249 17.3195 36.6908 17.5854 36.6908 17.9133C36.6908 18.2412 36.4249 18.507 36.097 18.507H33.2294C32.9015 18.507 32.6356 18.2412 32.6356 17.9133C32.6356 17.5854 32.9015 17.3195 33.2294 17.3195ZM3.67946 9.06797C3.84341 8.78394 4.20657 8.68656 4.49053 8.85066L6.97396 10.2845C7.25792 10.4484 7.35522 10.8116 7.19127 11.0956C7.08128 11.286 6.88171 11.3925 6.67649 11.3925C6.57578 11.3925 6.47365 11.3668 6.38014 11.3129L3.8967 9.87903C3.61274 9.71509 3.51551 9.35193 3.67946 9.06797ZM25.6004 5.2935L27.0342 2.81007C27.1981 2.52604 27.5613 2.42873 27.8453 2.59276C28.1293 2.75671 28.2266 3.11986 28.0626 3.40382L26.6289 5.88725C26.5189 6.0777 26.3193 6.1842 26.1141 6.1842C26.0134 6.1842 25.9113 6.15852 25.8178 6.10457C25.5338 5.94062 25.4365 5.57746 25.6004 5.2935ZM9.93729 3.40382C9.77334 3.11986 9.87064 2.75671 10.1546 2.59276C10.4386 2.42888 10.8017 2.52611 10.9657 2.81007L12.3995 5.2935C12.5634 5.57746 12.4661 5.94062 12.1822 6.10457C12.0887 6.15852 11.9866 6.1842 11.8858 6.1842C11.6806 6.1842 11.481 6.0777 11.371 5.88725L9.93722 3.40382H9.93729ZM1.30944 17.9134C1.30944 17.5855 1.57529 17.3196 1.90319 17.3196H4.77085C5.09875 17.3196 5.3646 17.5855 5.3646 17.9134C5.3646 18.2413 5.09875 18.5071 4.77085 18.5071H1.90319C1.57529 18.5071 1.30944 18.2413 1.30944 17.9134ZM18.4063 3.68407V0.816406C18.4063 0.488508 18.6722 0.222656 19.0001 0.222656C19.328 0.222656 19.5938 0.488508 19.5938 0.816406V3.68407C19.5938 4.01197 19.328 4.27782 19.0001 4.27782C18.6722 4.27782 18.4063 4.01197 18.4063 3.68407ZM21.7916 16.2935C22.0235 16.5254 22.0234 16.9013 21.7916 17.1332L18.3747 20.5501C18.2626 20.6621 18.1113 20.724 17.9549 20.724C17.9292 20.724 17.9033 20.7223 17.8774 20.7189C17.6943 20.6948 17.533 20.5869 17.4407 20.4271L16.1142 18.1295C15.9503 17.8455 16.0476 17.4824 16.3315 17.3184C16.6156 17.1545 16.9786 17.2519 17.1426 17.5357L18.0821 19.1632L20.9519 16.2935C21.1838 16.0617 21.5597 16.0617 21.7915 16.2935H21.7916Z" fill="#6C6363"/>
</svg>
